<svg xmlns:xlink="http://www.w3.org/1999/xlink" xmlns="http://www.w3.org/2000/svg" xmlns:ns1="http://www.w3.org/1999/xlink" viewBox="0 0 1200 800" width="1200" height="800" role="img"><title>Dental group complaints by clinic</title><desc>Riverbend Dental's chart shows 24 wait-time complaints this quarter across 4 clinics, with Elmwood flagged for 14 of them and a button to book a scheduling review.</desc><defs>
<linearGradient id="bg" x1="0" y1="0" x2="1" y2="1"><stop offset="0" stop-color="#FAFAFA" /><stop offset="1" stop-color="#EEEEF0" /></linearGradient>
<radialGradient id="glowA" cx="0.12" cy="0.08" r="0.55"><stop offset="0" stop-color="#FFFFFF" stop-opacity="0.95" /><stop offset="1" stop-color="#FFFFFF" stop-opacity="0" /></radialGradient>
<radialGradient id="glowB" cx="0.92" cy="0.96" r="0.5"><stop offset="0" stop-color="#FFFFFF" stop-opacity="0.85" /><stop offset="1" stop-color="#FFFFFF" stop-opacity="0" /></radialGradient>
<linearGradient id="gAcc" x1="0" y1="0" x2="1" y2="1"><stop offset="0" stop-color="#7C3AED" /><stop offset="1" stop-color="#4F46E5" /></linearGradient>
<linearGradient id="gStroke" x1="0" y1="0" x2="1" y2="0"><stop offset="0" stop-color="#A78BFA" /><stop offset="1" stop-color="#818CF8" /></linearGradient>
<pattern id="grid" width="40" height="40" patternUnits="userSpaceOnUse"><path d="M40 0H0V40" fill="none" stroke="#52525B" stroke-opacity="0.07" stroke-width="1" /></pattern>
<radialGradient id="fade" cx="0.5" cy="0.45" r="0.65"><stop offset="0" stop-color="#fff" stop-opacity="1" /><stop offset="1" stop-color="#fff" stop-opacity="0" /></radialGradient>
<mask id="gridMask"><rect width="1200" height="800" fill="url(#fade)" /></mask>
<filter id="e1" x="-10%" y="-10%" width="120%" height="140%"><feDropShadow dx="0" dy="1" stdDeviation="1.2" flood-color="#0F172A" flood-opacity="0.07" /><feDropShadow dx="0" dy="12" stdDeviation="18" flood-color="#18181B" flood-opacity="0.08" /></filter>
<filter id="e2" x="-15%" y="-15%" width="130%" height="160%"><feDropShadow dx="0" dy="2" stdDeviation="3" flood-color="#0F172A" flood-opacity="0.10" /><feDropShadow dx="0" dy="28" stdDeviation="34" flood-color="#18181B" flood-opacity="0.20" /></filter>
<radialGradient id="spot" cx="0.5" cy="0.5" r="0.5"><stop offset="0" stop-color="#71717A" stop-opacity="0.24" /><stop offset="1" stop-color="#71717A" stop-opacity="0" /></radialGradient>
<path id="g600_E" d="M150 0V1490H1118V1265H417V863H1066V641H417V225H1122V0Z" /><path id="g600_m" d="M138 0V1118H382L390 905Q434 1024 520.5 1080.0Q607 1136 707 1136Q921 1136 994 893Q1039 1014 1136.0 1075.0Q1233 1136 1351 1136Q1502 1136 1604.0 1038.0Q1706 940 1706 754V0H1446V714Q1446 818 1389.0 866.0Q1332 914 1252 914Q1157 914 1103.0 855.0Q1049 796 1049 702V0H795V726Q795 811 742.0 862.5Q689 914 606 914Q520 914 459.0 855.5Q398 797 398 685V0Z" /><path id="g600_e" d="M632 -23Q463 -23 341.5 48.0Q220 119 154.5 248.0Q89 377 89 552Q89 724 153.5 854.5Q218 985 336.5 1058.5Q455 1132 615 1132Q751 1132 867.5 1072.5Q984 1013 1055.0 888.5Q1126 764 1126 568V486H348Q353 337 431.5 259.0Q510 181 635 181Q721 181 782.5 218.0Q844 255 870 326L1109 277Q1069 142 943.5 59.5Q818 -23 632 -23ZM349 663H873Q861 783 796.5 855.5Q732 928 616 928Q497 928 427.5 851.5Q358 775 349 663Z" /><path id="g600_r" d="M138 0V1118H390V931H402Q432 1028 507.0 1080.5Q582 1133 678 1133Q728 1133 773 1126V887Q757 891 721.0 895.5Q685 900 650 900Q541 900 469.5 832.5Q398 765 398 658V0Z" /><path id="g600_g" d="M620 -442Q418 -442 296.0 -368.0Q174 -294 132 -183L352 -104Q378 -152 437.5 -198.0Q497 -244 619 -244Q740 -244 813.0 -187.5Q886 -131 886 -11V200H864Q844 160 807.0 117.0Q770 74 708.0 45.5Q646 17 549 17Q421 17 316.5 77.5Q212 138 150.5 259.0Q89 380 89 562Q89 745 150.5 872.5Q212 1000 317.0 1066.0Q422 1132 551 1132Q650 1132 714.0 1099.0Q778 1066 816.0 1019.5Q854 973 874 933H888V1118H1143V-3Q1143 -153 1075.0 -250.0Q1007 -347 889.0 -394.5Q771 -442 620 -442ZM622 222Q749 222 818.0 313.0Q887 404 887 564Q887 723 819.0 820.5Q751 918 622 918Q490 918 422.5 817.0Q355 716 355 564Q355 409 423.0 315.5Q491 222 622 222Z" /><path id="g600_n" d="M398 655V0H138V1118H384L387 895Q487 1132 733 1132Q906 1132 1010.5 1022.0Q1115 912 1115 711V0H855V671Q855 783 797.0 847.0Q739 911 637 911Q533 911 465.5 844.0Q398 777 398 655Z" /><path id="g600_t" d="M655 1118V914H439V315Q439 254 464.5 225.5Q490 197 550 197Q568 197 597.0 201.5Q626 206 645 210L686 9Q643 -4 598.0 -9.5Q553 -15 512 -15Q351 -15 265.0 65.0Q179 145 179 293V914H20V1118H179V1384H439V1118Z" /><path id="g600_p" d="M138 -418V1118H392V933H409Q428 972 465.0 1018.5Q502 1065 566.0 1098.5Q630 1132 729 1132Q858 1132 962.5 1066.0Q1067 1000 1128.5 871.5Q1190 743 1190 557Q1190 373 1129.5 244.0Q1069 115 965.0 47.5Q861 -20 728 -20Q632 -20 568.5 12.5Q505 45 467.0 91.0Q429 137 409 177H398V-418ZM658 194Q788 194 855.5 297.5Q923 401 923 558Q923 714 856.5 816.0Q790 918 658 918Q529 918 461.0 819.5Q393 721 393 558Q393 395 462.0 294.5Q531 194 658 194Z" /><path id="g600_o" d="M623 -23Q460 -23 340.0 49.5Q220 122 154.5 251.5Q89 381 89 553Q89 727 154.5 857.5Q220 988 340.0 1060.0Q460 1132 623 1132Q786 1132 906.0 1060.0Q1026 988 1092.0 857.5Q1158 727 1158 553Q1158 381 1092.0 251.5Q1026 122 906.0 49.5Q786 -23 623 -23ZM623 188Q714 188 774.0 237.0Q834 286 864.0 369.0Q894 452 894 554Q894 657 864.0 740.0Q834 823 774.0 872.0Q714 921 623 921Q533 921 473.0 872.0Q413 823 383.5 740.0Q354 657 354 554Q354 452 383.5 369.0Q413 286 473.0 237.0Q533 188 623 188Z" /><path id="g500_quotedblleft" d="M162 905 327 1490H487L399 905ZM564 905 729 1490H889L801 905Z" /><path id="g500_C" d="M784 -20Q590 -20 438.5 72.0Q287 164 200.0 335.0Q113 506 113 744Q113 983 200.5 1154.5Q288 1326 439.5 1418.0Q591 1510 784 1510Q941 1510 1071.0 1450.5Q1201 1391 1287.0 1278.5Q1373 1166 1398 1008H1169Q1141 1150 1033.5 1226.0Q926 1302 786 1302Q658 1302 557.0 1237.5Q456 1173 397.5 1048.5Q339 924 339 744Q339 563 397.5 439.0Q456 315 557.0 251.5Q658 188 786 188Q926 188 1033.5 264.5Q1141 341 1169 483H1399Q1376 335 1292.5 222.0Q1209 109 1078.5 44.5Q948 -20 784 -20Z" /><path id="g500_h" d="M368 662V0H148V1490H366V917Q419 1028 504.0 1080.0Q589 1132 704 1132Q875 1132 980.0 1024.5Q1085 917 1085 710V0H864V683Q864 804 801.0 872.0Q738 940 628 940Q516 940 442.0 867.5Q368 795 368 662Z" /><path id="g500_a" d="M461 -25Q354 -25 268.5 14.5Q183 54 133.0 130.0Q83 206 83 316Q83 411 120.0 472.5Q157 534 219.0 569.5Q281 605 357.5 623.0Q434 641 513 650Q661 667 728.0 679.5Q795 692 795 751V757Q795 850 740.5 901.5Q686 953 581 953Q471 953 408.0 905.0Q345 857 322 800L115 854Q153 954 224.0 1015.0Q295 1076 386.5 1104.0Q478 1132 578 1132Q645 1132 721.0 1116.0Q797 1100 864.0 1058.5Q931 1017 973.0 940.0Q1015 863 1015 742V0H802V153H791Q758 87 677.5 31.0Q597 -25 461 -25ZM510 152Q599 152 663.0 187.5Q727 223 761.5 280.0Q796 337 796 403V546Q780 530 727.5 518.5Q675 507 617.0 499.0Q559 491 525 487Q432 474 365.5 436.5Q299 399 299 313Q299 233 358.5 192.5Q418 152 510 152Z" /><path id="g500_r" d="M148 0V1118H361V938H373Q403 1029 480.5 1081.5Q558 1134 656 1134Q677 1134 704.5 1132.0Q732 1130 749 1128V918Q737 921 703.0 925.5Q669 930 634 930Q519 930 443.5 859.5Q368 789 368 679V0Z" /><path id="g500_t" d="M626 1118V939H403V302Q403 235 431.5 203.5Q460 172 525 172Q543 172 570.5 176.0Q598 180 618 184L657 8Q622 -4 581.5 -9.5Q541 -15 503 -15Q351 -15 267.0 63.5Q183 142 183 284V939H20V1118H183V1384H403V1118Z" /><path id="g500_c" d="M618 -23Q460 -23 343.0 49.0Q226 121 161.0 250.5Q96 380 96 553Q96 727 161.0 857.5Q226 988 343.0 1060.0Q460 1132 618 1132Q792 1132 918.5 1044.5Q1045 957 1086 802L877 752Q854 839 787.5 892.5Q721 946 619 946Q518 946 451.5 893.0Q385 840 352.5 750.5Q320 661 320 553Q320 446 352.5 357.5Q385 269 451.5 216.0Q518 163 619 163Q723 163 791.0 218.5Q859 274 881 365L1089 315Q1048 157 921.0 67.0Q794 -23 618 -23Z" /><path id="g500_o" d="M618 -23Q461 -23 343.5 49.0Q226 121 161.0 250.5Q96 380 96 553Q96 727 161.0 857.5Q226 988 343.5 1060.0Q461 1132 618 1132Q776 1132 893.5 1060.0Q1011 988 1076.0 857.5Q1141 727 1141 553Q1141 380 1076.0 250.5Q1011 121 893.5 49.0Q776 -23 618 -23ZM618 163Q720 163 786.5 216.5Q853 270 885.5 358.5Q918 447 918 553Q918 660 885.5 749.5Q853 839 786.5 892.5Q720 946 618 946Q517 946 451.0 892.5Q385 839 352.5 749.5Q320 660 320 553Q320 447 352.5 358.5Q385 270 451.0 216.5Q517 163 618 163Z" /><path id="g500_m" d="M148 0V1118H357L362 909Q405 1025 491.0 1081.0Q577 1137 677 1137Q786 1137 858.0 1075.0Q930 1013 963 902Q1005 1015 1101.5 1076.0Q1198 1137 1317 1137Q1416 1137 1496.0 1094.0Q1576 1051 1623.5 966.0Q1671 881 1671 754V0H1451V732Q1451 844 1388.5 894.0Q1326 944 1241 944Q1137 944 1077.5 880.0Q1018 816 1018 716V0H801V746Q801 836 743.5 890.0Q686 944 597 944Q505 944 436.5 880.5Q368 817 368 695V0Z" /><path id="g500_p" d="M148 -418V1118H362V936H380Q399 970 434.5 1016.5Q470 1063 534.0 1097.5Q598 1132 703 1132Q837 1132 942.5 1064.0Q1048 996 1109.0 867.0Q1170 738 1170 556Q1170 376 1110.0 246.0Q1050 116 944.5 47.0Q839 -22 703 -22Q601 -22 537.0 12.5Q473 47 436.5 93.0Q400 139 380 175H368V-418ZM654 165Q750 165 814.5 217.0Q879 269 912.0 358.0Q945 447 945 558Q945 668 912.5 755.5Q880 843 815.5 894.0Q751 945 654 945Q512 945 438.0 838.5Q364 732 364 558Q364 383 439.0 274.0Q514 165 654 165Z" /><path id="g500_l" d="M368 1490V0H148V1490Z" /><path id="g500_i" d="M148 0V1118H368V0ZM259 1289Q202 1289 161.5 1327.0Q121 1365 121 1419Q121 1474 161.5 1512.0Q202 1550 259 1550Q316 1550 357.0 1512.0Q398 1474 398 1419Q398 1365 357.0 1327.0Q316 1289 259 1289Z" /><path id="g500_n" d="M368 662V0H148V1118H358L359 903Q411 1021 498.5 1076.5Q586 1132 704 1132Q875 1132 979.5 1024.5Q1084 917 1084 710V0H864V683Q864 804 801.0 872.0Q738 940 628 940Q516 940 442.0 867.5Q368 795 368 662Z" /><path id="g500_s" d="M549 -23Q367 -23 247.5 55.5Q128 134 98 283L305 326Q350 155 551 155Q658 155 720.5 199.5Q783 244 783 306Q783 412 626 447L438 490Q130 559 130 799Q130 899 185.5 974.0Q241 1049 338.5 1090.5Q436 1132 563 1132Q744 1132 847.0 1054.5Q950 977 986 853L789 810Q768 869 716.0 913.5Q664 958 565 958Q474 958 413.0 917.0Q352 876 352 813Q352 757 392.5 722.5Q433 688 525 667L705 627Q1010 558 1010 325Q1010 223 951.5 144.5Q893 66 789.0 21.5Q685 -23 549 -23Z" /><path id="g500_b" d="M703 -22Q601 -22 537.0 12.5Q473 47 436.5 93.0Q400 139 380 175H362V0H148V1490H368V936H380Q399 970 434.5 1016.5Q470 1063 534.0 1097.5Q598 1132 703 1132Q837 1132 942.5 1064.0Q1048 996 1109.0 867.0Q1170 738 1170 556Q1170 376 1110.0 246.0Q1050 116 944.5 47.0Q839 -22 703 -22ZM654 165Q750 165 814.5 217.0Q879 269 912.0 358.0Q945 447 945 558Q945 668 912.5 755.5Q880 843 815.5 894.0Q751 945 654 945Q512 945 438.0 838.5Q364 732 364 558Q364 383 439.0 274.0Q514 165 654 165Z" /><path id="g500_y" d="M133 -402 187 -223 212 -229Q297 -252 356.5 -223.5Q416 -195 447 -87L471 -5L46 1118H284L505 483Q530 409 549.0 337.0Q568 265 586 193Q605 265 625.0 337.5Q645 410 671 483L896 1118H1132L646 -155Q595 -289 508.5 -357.5Q422 -426 287 -426Q235 -426 194.5 -418.5Q154 -411 133 -402Z" /><path id="g500_e" d="M630 -23Q465 -23 345.0 48.0Q225 119 160.5 248.0Q96 377 96 551Q96 723 159.5 854.0Q223 985 339.0 1058.5Q455 1132 611 1132Q738 1132 852.5 1075.5Q967 1019 1038.5 895.5Q1110 772 1110 570V492H317Q323 330 409.0 244.5Q495 159 632 159Q724 159 790.5 199.0Q857 239 886 317L1093 268Q1053 137 931.0 57.0Q809 -23 630 -23ZM318 656H892Q880 788 809.5 869.0Q739 950 612 950Q480 950 403.5 863.5Q327 777 318 656Z" /><path id="g500_q" d="M1118 -418H898V175H886Q866 139 829.5 93.0Q793 47 729.0 12.5Q665 -22 564 -22Q428 -22 322.5 47.0Q217 116 156.5 246.0Q96 376 96 556Q96 738 157.0 867.0Q218 996 323.5 1064.0Q429 1132 564 1132Q668 1132 732.0 1097.5Q796 1063 831.5 1016.5Q867 970 886 936H904V1118H1118ZM612 165Q752 165 827.0 274.0Q902 383 902 558Q902 732 828.0 838.5Q754 945 612 945Q515 945 450.5 894.0Q386 843 353.5 755.5Q321 668 321 558Q321 447 354.0 358.0Q387 269 452.0 217.0Q517 165 612 165Z" /><path id="g500_u" d="M529 -14Q358 -14 253.0 93.5Q148 201 148 408V1118H368V435Q368 314 431.5 246.0Q495 178 604 178Q716 178 790.0 250.5Q864 323 864 456V1118H1085V0H874L873 217Q820 95 732.5 40.5Q645 -14 529 -14Z" /><path id="g500_d" d="M564 -22Q428 -22 322.5 47.0Q217 116 156.5 246.0Q96 376 96 556Q96 738 157.0 867.0Q218 996 323.5 1064.0Q429 1132 564 1132Q668 1132 732.0 1097.5Q796 1063 831.5 1016.5Q867 970 886 936H898V1490H1118V0H904V175H886Q866 139 829.5 93.0Q793 47 729.0 12.5Q665 -22 564 -22ZM612 165Q752 165 827.0 274.0Q902 383 902 558Q902 732 828.0 838.5Q754 945 612 945Q515 945 450.5 894.0Q386 843 353.5 755.5Q321 668 321 558Q321 447 354.0 358.0Q387 269 452.0 217.0Q517 165 612 165Z" /><path id="g500_f" d="M702 1118V939H452V0H232V939H20V1118H232V1246Q232 1350 278.5 1420.0Q325 1490 400.5 1525.0Q476 1560 565 1560Q631 1560 678.5 1549.5Q726 1539 749 1530L698 1352Q682 1356 658.0 1362.0Q634 1368 600 1368Q521 1368 486.5 1329.0Q452 1290 452 1216V1118Z" /><path id="g500_g" d="M616 -442Q422 -442 305.0 -371.0Q188 -300 141 -199L325 -112Q345 -144 378.5 -179.5Q412 -215 468.5 -240.0Q525 -265 615 -265Q742 -265 822.0 -204.5Q902 -144 902 -15V203H883Q863 166 827.5 123.0Q792 80 728.5 48.5Q665 17 563 17Q431 17 325.5 79.0Q220 141 158.0 262.5Q96 384 96 563Q96 741 157.5 868.5Q219 996 325.0 1064.0Q431 1132 566 1132Q669 1132 733.5 1097.5Q798 1063 834.5 1017.0Q871 971 890 936H906V1118H1121V-16Q1121 -163 1054.0 -257.0Q987 -351 873.0 -396.5Q759 -442 616 -442ZM614 200Q754 200 828.5 297.0Q903 394 903 566Q903 734 829.5 839.5Q756 945 614 945Q517 945 451.5 894.5Q386 844 353.5 758.5Q321 673 321 566Q321 402 395.5 301.0Q470 200 614 200Z" /><path id="g500_quotedblright" d="M162 905 250 1490H487L322 905ZM558 905 646 1490H883L718 905Z" /><path id="g500_W" d="M455 0 51 1490H291L506 636Q530 538 551.0 431.5Q572 325 591 217Q612 325 633.5 431.5Q655 538 681 636L902 1490H1152L1371 636Q1396 539 1418.0 434.0Q1440 329 1461 223Q1480 329 1501.5 434.0Q1523 539 1546 636L1761 1490H2003L1597 0H1334L1097 883Q1077 958 1059.5 1043.0Q1042 1128 1026 1225Q1010 1133 993.5 1049.5Q977 966 955 883L719 0Z" /><path id="g500_hyphen_tf" d="M992 724V533H330V724Z" /><path id="g500_R" d="M165 0V1490H699Q871 1490 986.0 1430.0Q1101 1370 1158.0 1264.5Q1215 1159 1215 1022Q1215 872 1147.0 762.5Q1079 653 943 602L1271 0H1012L710 563Q704 563 697 563H393V0ZM393 758H675Q839 758 911.5 827.5Q984 897 984 1022Q984 1148 911.0 1221.5Q838 1295 673 1295H393Z" /><path id="g500_v" d="M468 0 46 1118H284L505 483Q531 409 551.0 335.5Q571 262 590 188Q608 261 628.0 335.0Q648 409 673 483L894 1118H1130L708 0Z" /><path id="g500_D" d="M650 0H165V1490H664Q884 1490 1041.0 1400.5Q1198 1311 1282.0 1145.0Q1366 979 1366 747Q1366 514 1281.5 347.0Q1197 180 1036.5 90.0Q876 0 650 0ZM393 200H637Q890 200 1016.0 341.5Q1142 483 1142 747Q1142 1010 1017.5 1150.0Q893 1290 649 1290H393Z" /><path id="g600_T" d="M83 1265V1490H1269V1265H810V0H543V1265Z" /><path id="g600_h" d="M398 655V0H138V1490H394V911Q496 1132 733 1132Q906 1132 1011.0 1022.0Q1116 912 1116 711V0H855V671Q855 783 797.0 847.0Q739 911 637 911Q533 911 465.5 844.0Q398 777 398 655Z" /><path id="g600_i" d="M138 0V1118H398V0ZM268 1276Q206 1276 161.5 1317.5Q117 1359 117 1419Q117 1478 161.5 1519.5Q206 1561 268 1561Q331 1561 375.5 1519.5Q420 1478 420 1419Q420 1359 375.5 1317.5Q331 1276 268 1276Z" /><path id="g600_s" d="M561 -23Q368 -23 242.5 59.5Q117 142 88 294L331 340Q375 176 566 176Q662 176 718.5 214.5Q775 253 775 310Q775 405 624 438L433 479Q119 547 119 792Q119 896 176.0 972.0Q233 1048 334.5 1090.0Q436 1132 570 1132Q760 1132 870.5 1053.0Q981 974 1015 844L783 798Q763 856 713.0 897.0Q663 938 573 938Q491 938 435.0 901.5Q379 865 379 808Q379 759 415.5 727.5Q452 696 538 677L728 637Q1041 570 1041 335Q1041 229 980.0 148.5Q919 68 810.5 22.5Q702 -23 561 -23Z" /><path id="g600_q" d="M1141 -418H881V177H870Q849 137 811.0 91.0Q773 45 709.5 12.5Q646 -20 550 -20Q418 -20 313.5 47.5Q209 115 149.0 244.0Q89 373 89 557Q89 743 150.0 871.5Q211 1000 315.5 1066.0Q420 1132 549 1132Q649 1132 712.5 1098.5Q776 1065 813.0 1018.5Q850 972 870 933H886V1118H1141ZM621 194Q748 194 817.0 294.5Q886 395 886 558Q886 721 817.5 819.5Q749 918 621 918Q489 918 422.0 816.0Q355 714 355 558Q355 401 422.5 297.5Q490 194 621 194Z" /><path id="g600_u" d="M521 -14Q348 -14 243.0 96.0Q138 206 138 407V1118H398V447Q398 335 456.5 271.0Q515 207 617 207Q721 207 788.0 274.0Q855 341 855 463V1118H1116V0H869L867 224Q767 -14 521 -14Z" /><path id="g600_a" d="M450 -23Q344 -23 259.0 15.5Q174 54 125.0 129.0Q76 204 76 314Q76 440 137.5 509.5Q199 579 296.5 610.5Q394 642 502 653Q648 669 713.0 682.5Q778 696 778 754V759Q778 841 728.0 886.5Q678 932 583 932Q485 932 427.0 889.0Q369 846 349 791L108 840Q157 988 285.5 1060.0Q414 1132 582 1132Q661 1132 741.5 1113.5Q822 1095 889.0 1051.5Q956 1008 997.0 933.5Q1038 859 1038 747V0H789V154H779Q742 82 661.0 29.5Q580 -23 450 -23ZM517 170Q637 170 708.5 239.0Q780 308 780 401V533Q762 519 716.0 508.5Q670 498 618.5 490.5Q567 483 533 478Q445 466 386.5 430.0Q328 394 328 317Q328 245 381.0 207.5Q434 170 517 170Z" /><path id="g700_B" d="M135 0V1490H726Q971 1490 1094.5 1382.0Q1218 1274 1218 1107Q1218 975 1141.5 894.0Q1065 813 950 787V772Q1034 768 1108.5 724.0Q1183 680 1229.5 600.5Q1276 521 1276 411Q1276 293 1218.0 200.0Q1160 107 1046.0 53.5Q932 0 764 0ZM440 251H704Q839 251 900.5 303.0Q962 355 962 440Q962 533 894.5 594.0Q827 655 712 655H440ZM440 864H681Q779 864 844.0 916.0Q909 968 909 1058Q909 1139 851.5 1190.0Q794 1241 687 1241H440Z" /><path id="g700_a" d="M440 -22Q280 -22 174.0 62.5Q68 147 68 313Q68 438 128.0 509.0Q188 580 284.0 613.0Q380 646 490 656Q634 670 697.5 685.5Q761 701 761 756V761Q761 832 715.5 871.0Q670 910 586 910Q499 910 446.0 872.5Q393 835 375 781L100 827Q143 972 271.5 1052.0Q400 1132 587 1132Q707 1132 815.5 1094.0Q924 1056 992.5 972.5Q1061 889 1061 753V0H777V155H767Q726 77 645.0 27.5Q564 -22 440 -22ZM525 189Q630 189 696.5 250.0Q763 311 763 400V521Q745 508 704.5 498.5Q664 489 619.0 481.5Q574 474 541 470Q458 458 407.0 423.0Q356 388 356 321Q356 256 403.5 222.5Q451 189 525 189Z" /><path id="g700_y" d="M120 -396 189 -170 226 -179Q317 -204 375.0 -175.5Q433 -147 443 -63L451 -3L31 1118H350L538 538Q561 465 577.0 392.5Q593 320 609 246Q627 321 646.5 393.5Q666 466 690 538L886 1118H1201L726 -132Q675 -267 579.5 -346.5Q484 -426 316 -426Q256 -426 204.0 -417.5Q152 -409 120 -396Z" /><path id="g700_s" d="M572 -22Q370 -22 238.5 64.0Q107 150 78 306L357 354Q400 198 581 198Q667 198 716.5 230.5Q766 263 766 313Q766 398 622 428L429 468Q107 534 107 785Q107 946 236.0 1039.0Q365 1132 577 1132Q776 1132 894.0 1051.0Q1012 970 1043 834L777 787Q759 844 711.0 880.5Q663 917 581 917Q507 917 457.0 885.5Q407 854 407 804Q407 762 439.5 732.5Q472 703 551 687L752 647Q1072 582 1072 345Q1072 235 1008.0 152.5Q944 70 831.0 24.0Q718 -22 572 -22Z" /><path id="g700_i" d="M128 0V1118H428V0ZM278 1264Q210 1264 162.0 1309.0Q114 1354 114 1418Q114 1482 162.0 1527.0Q210 1572 278 1572Q346 1572 394.5 1527.0Q443 1482 443 1418Q443 1354 394.5 1309.0Q346 1264 278 1264Z" /><path id="g700_d" d="M537 -19Q408 -19 305.0 47.5Q202 114 141.5 242.5Q81 371 81 557Q81 748 143.0 876.0Q205 1004 308.0 1068.0Q411 1132 535 1132Q630 1132 693.0 1100.0Q756 1068 794.5 1021.0Q833 974 853 930H863V1490H1163V0H868V179H853Q832 134 793.0 88.5Q754 43 691.0 12.0Q628 -19 537 -19ZM629 222Q743 222 806.0 314.0Q869 406 869 558Q869 710 806.5 801.0Q744 892 629 892Q511 892 450.0 798.5Q389 705 389 558Q389 410 450.5 316.0Q512 222 629 222Z" /><path id="g700_e" d="M633 -22Q462 -22 338.0 48.0Q214 118 147.5 247.0Q81 376 81 553Q81 726 147.5 856.0Q214 986 334.5 1059.0Q455 1132 618 1132Q764 1132 883.0 1070.0Q1002 1008 1072.5 882.0Q1143 756 1143 565V481H378Q383 344 454.0 274.0Q525 204 638 204Q717 204 773.5 237.5Q830 271 854 336L1126 285Q1085 146 956.5 62.0Q828 -22 633 -22ZM380 669H854Q843 778 784.0 842.0Q725 906 621 906Q513 906 451.0 839.5Q389 773 380 669Z" /><path id="g800_three_tf" d="M654 -20Q485 -20 354.5 38.0Q224 96 149.0 198.5Q74 301 73 435H427Q429 360 494.0 314.0Q559 268 657 268Q754 268 815.5 318.0Q877 368 877 449Q877 530 809.0 581.0Q741 632 627 632H482V884H627Q726 884 789.0 933.5Q852 983 852 1062Q852 1138 798.0 1185.5Q744 1233 658 1233Q567 1233 504.5 1186.0Q442 1139 441 1061H102Q103 1193 175.5 1294.0Q248 1395 373.5 1452.5Q499 1510 659 1510Q817 1510 937.5 1454.0Q1058 1398 1125.5 1301.5Q1193 1205 1193 1084Q1193 959 1111.5 877.0Q1030 795 901 776V765Q1072 744 1159.5 652.0Q1247 560 1247 422Q1247 293 1171.5 193.5Q1096 94 962.0 37.0Q828 -20 654 -20Z" /><path id="g700_L" d="M135 0V1490H440V253H1083V0Z" /><path id="g700_k" d="M128 0V1490H428V688H445L811 1118H1158L740 633L1179 0H826L514 456L428 359V0Z" /><path id="g700_v" d="M443 0 31 1118H350L538 538Q561 463 580.5 387.0Q600 311 618 233Q635 311 653.5 386.5Q672 462 696 538L882 1118H1197L784 0Z" /><path id="g700_w" d="M361 0 31 1118H346L443 705Q463 612 487.0 505.0Q511 398 534 273Q557 395 582.5 502.5Q608 610 631 705L733 1118H1009L1109 705Q1130 610 1155.5 503.0Q1181 396 1205 272Q1226 396 1249.0 503.0Q1272 610 1294 705L1391 1118H1710L1378 0H1073L949 431Q928 503 908.5 593.0Q889 683 869 771Q850 683 830.0 592.5Q810 502 790 431L666 0Z" /><path id="g700_E" d="M135 0V1490H1132V1237H440V877H1080V628H440V253H1134V0Z" /><path id="g700_l" d="M428 1490V0H128V1490Z" /><path id="g700_m" d="M128 0V1118H406L418 901Q463 1023 550.0 1079.0Q637 1135 737 1135Q949 1135 1025 884Q1072 1013 1170.5 1074.0Q1269 1135 1384 1135Q1538 1135 1639.5 1035.5Q1741 936 1741 754V0H1441V697Q1441 791 1389.5 837.5Q1338 884 1263 884Q1178 884 1128.5 830.0Q1079 776 1079 688V0H789V705Q789 787 740.5 835.5Q692 884 615 884Q536 884 482.0 830.5Q428 777 428 676V0Z" /><path id="g700_o" d="M628 -22Q460 -22 337.0 50.5Q214 123 147.5 252.5Q81 382 81 554Q81 727 147.5 857.0Q214 987 337.0 1059.5Q460 1132 628 1132Q796 1132 919.0 1059.5Q1042 987 1108.5 857.0Q1175 727 1175 554Q1175 382 1108.5 252.5Q1042 123 919.0 50.5Q796 -22 628 -22ZM628 214Q748 214 809.0 311.0Q870 408 870 555Q870 703 809.0 799.5Q748 896 628 896Q508 896 447.5 799.5Q387 703 387 555Q387 408 447.5 311.0Q508 214 628 214Z" /><path id="g800_one_tf" d="M158 0V283H547V1183H537L203 952V1262L535 1490H899V283H1199V0Z" /><path id="g800_four_tf" d="M43 249V525L655 1490H1100V528H1279V249H1100V0H761V249ZM769 528V1114H757L394 540V528Z" /><path id="g700_O" d="M789 -20Q592 -20 434.5 70.0Q277 160 185.5 331.0Q94 502 94 744Q94 987 185.5 1158.5Q277 1330 434.5 1420.0Q592 1510 789 1510Q987 1510 1144.0 1420.0Q1301 1330 1392.5 1158.5Q1484 987 1484 744Q1484 501 1392.5 330.5Q1301 160 1144.0 70.0Q987 -20 789 -20ZM789 251Q963 251 1068.5 377.5Q1174 504 1174 744Q1174 985 1068.5 1112.0Q963 1239 789 1239Q616 1239 510.0 1111.5Q404 984 404 744Q404 505 510.0 378.0Q616 251 789 251Z" /><path id="g700_W" d="M449 0 49 1490H382L555 757Q578 654 597.5 537.0Q617 420 635 305Q655 420 676.0 537.0Q697 654 722 757L904 1490H1221L1402 757Q1427 655 1448.0 539.0Q1469 423 1489 309Q1507 423 1526.5 539.0Q1546 655 1569 757L1742 1490H2076L1675 0H1327L1129 762Q1109 843 1093.0 932.5Q1077 1022 1061 1118Q1047 1025 1032.0 935.5Q1017 846 995 762L798 0Z" /><path id="g700_t" d="M683 1118V889H474V327Q474 223 576 223Q593 223 623.5 227.5Q654 232 671 236L714 11Q664 -4 614.5 -10.0Q565 -16 520 -16Q352 -16 263.0 65.5Q174 147 174 301V889H20V1118H174V1384H474V1118Z" /><path id="g800_two_tf" d="M122 0V253L664 732Q756 816 807.5 882.5Q859 949 859 1034Q859 1127 799.0 1180.0Q739 1233 647 1233Q552 1233 495.0 1177.0Q438 1121 438 1019H102Q102 1170 170.5 1280.0Q239 1390 362.0 1450.0Q485 1510 648 1510Q816 1510 940.5 1453.5Q1065 1397 1133.0 1295.5Q1201 1194 1201 1061Q1201 976 1167.5 893.0Q1134 810 1046.0 708.5Q958 607 797 467L612 295V285H1220V0Z" /><path id="g500_A" d="M51 0 581 1490H861L1401 0H1154L1017 393H431L298 0ZM496 583H950L864 829Q834 918 799.0 1035.5Q764 1153 720 1311Q676 1151 641.5 1032.5Q607 914 579 829Z" /><path id="g500_four" d="M114 290V474L756 1490H1038V484H1234V290H1038V0H819V290ZM821 484V1219H809L352 496V484Z" /><path id="g600_B" d="M150 0V1490H720Q881 1490 987.5 1439.5Q1094 1389 1147.5 1301.5Q1201 1214 1201 1103Q1201 967 1125.5 889.0Q1050 811 941 786V771Q1020 767 1093.0 723.0Q1166 679 1212.5 599.0Q1259 519 1259 406Q1259 290 1203.0 198.0Q1147 106 1034.5 53.0Q922 0 751 0ZM417 223H709Q857 223 922.5 280.0Q988 337 988 426Q988 526 915.0 594.0Q842 662 718 662H417ZM417 855H686Q792 855 863.0 912.5Q934 970 934 1069Q934 1156 873.0 1212.0Q812 1268 692 1268H417Z" /><path id="g600_k" d="M138 0V1490H398V667H417L820 1118H1125L692 635L1151 0H839L494 479L398 376V0Z" /><path id="g600_c" d="M623 -23Q460 -23 340.0 49.5Q220 122 154.5 251.5Q89 381 89 553Q89 727 154.5 857.5Q220 988 340.0 1060.0Q460 1132 623 1132Q810 1132 939.5 1038.5Q1069 945 1105 781L862 730Q841 817 780.0 869.0Q719 921 625 921Q489 921 421.5 816.0Q354 711 354 554Q354 451 384.0 368.0Q414 285 474.0 236.5Q534 188 625 188Q721 188 782.5 242.5Q844 297 865 387L1108 336Q1072 169 942.0 73.0Q812 -23 623 -23Z" /><path id="g600_d" d="M550 -20Q418 -20 313.5 47.5Q209 115 149.0 244.0Q89 373 89 557Q89 743 150.0 871.5Q211 1000 315.5 1066.0Q420 1132 549 1132Q649 1132 712.5 1098.5Q776 1065 813.0 1018.5Q850 972 870 933H881V1490H1141V0H886V177H870Q849 137 811.0 91.0Q773 45 709.5 12.5Q646 -20 550 -20ZM621 194Q748 194 817.0 294.5Q886 395 886 558Q886 721 817.5 819.5Q749 918 621 918Q489 918 422.0 816.0Q355 714 355 558Q355 401 422.5 297.5Q490 194 621 194Z" /><path id="g600_l" d="M398 1490V0H138V1490Z" /><path id="g600_v" d="M455 0 39 1118H317L521 510Q546 436 565.5 361.0Q585 286 604 210Q622 286 641.0 361.0Q660 436 685 510L888 1118H1164L746 0Z" /><path id="g600_w" d="M377 0 44 1118H318L428 680Q449 588 474.5 480.5Q500 373 524 246Q548 370 574.0 477.5Q600 585 624 680L737 1118H985L1095 680Q1117 587 1143.0 479.5Q1169 372 1194 246Q1217 371 1241.5 478.5Q1266 586 1289 680L1399 1118H1675L1341 0H1078L947 456Q924 536 902.0 630.5Q880 725 859 819Q838 725 815.5 630.0Q793 535 771 456L640 0Z" /><path id="g600_f" d="M726 1118V914H484V0H225V914H20V1118H225V1225Q225 1336 272.0 1410.5Q319 1485 397.5 1522.5Q476 1560 572 1560Q641 1560 694.0 1549.0Q747 1538 772 1529L719 1327Q702 1332 677.5 1337.5Q653 1343 620 1343Q547 1343 515.5 1307.0Q484 1271 484 1205V1118Z" /><path id="g700_one_tf" d="M177 0V247H569V1221H559L218 980V1259L547 1490H874V247H1184V0Z" /><path id="g700_four_tf" d="M66 265V506L689 1490H1072V511H1258V265H1072V0H779V265ZM785 511V1154H773L374 523V511Z" /><path id="g700_c" d="M628 -22Q459 -22 336.5 50.5Q214 123 147.5 252.5Q81 382 81 554Q81 727 147.5 857.0Q214 987 336.5 1059.5Q459 1132 628 1132Q827 1132 960.0 1032.5Q1093 933 1125 760L846 708Q827 795 772.5 845.5Q718 896 631 896Q511 896 449.0 801.5Q387 707 387 555Q387 405 449.0 309.5Q511 214 631 214Q718 214 774.0 266.5Q830 319 848 409L1127 358Q1095 181 962.0 79.5Q829 -22 628 -22Z" /><path id="g700_p" d="M128 -418V1118H423V930H437Q457 974 495.5 1021.0Q534 1068 597.5 1100.0Q661 1132 756 1132Q880 1132 983.0 1068.0Q1086 1004 1147.5 876.0Q1209 748 1209 557Q1209 371 1149.0 242.5Q1089 114 986.0 47.5Q883 -19 754 -19Q663 -19 600.0 12.0Q537 43 497.5 88.5Q458 134 437 179H428V-418ZM662 222Q779 222 840.5 316.0Q902 410 902 558Q902 705 841.0 798.5Q780 892 662 892Q546 892 483.5 801.0Q421 710 421 558Q421 406 484.0 314.0Q547 222 662 222Z" /><path id="g700_n" d="M428 647V0H128V1118H411L415 887Q462 1004 548.0 1068.0Q634 1132 763 1132Q937 1132 1042.0 1020.0Q1147 908 1147 711V0H847V659Q847 763 793.5 822.0Q740 881 645 881Q549 881 488.5 819.5Q428 758 428 647Z" /><path id="g500_five_tf" d="M647 -20Q508 -20 399.0 33.0Q290 86 225.5 179.0Q161 272 156 390H378Q386 294 463.0 233.0Q540 172 647 172Q774 172 856.5 258.0Q939 344 939 478Q939 568 900.0 639.0Q861 710 793.0 750.5Q725 791 637 791Q569 791 501.0 767.5Q433 744 392 707L182 737L265 1490H1088V1295H456L409 879H417Q461 923 533.5 950.5Q606 978 690 978Q826 978 932.5 914.0Q1039 850 1100.5 738.0Q1162 626 1162 482Q1162 337 1096.0 223.5Q1030 110 913.5 45.0Q797 -20 647 -20Z" /><path id="g500_eight_tf" d="M662 -20Q505 -20 385.5 34.0Q266 88 198.5 182.0Q131 276 131 397Q131 491 170.0 571.0Q209 651 277.5 704.5Q346 758 432 773V781Q319 808 252.0 900.5Q185 993 185 1113Q185 1227 246.5 1316.5Q308 1406 416.0 1458.0Q524 1510 662 1510Q799 1510 906.5 1458.0Q1014 1406 1076.5 1316.5Q1139 1227 1139 1113Q1139 993 1071.0 900.5Q1003 808 894 781V773Q977 758 1045.5 704.5Q1114 651 1154.5 571.0Q1195 491 1195 397Q1195 276 1126.5 182.0Q1058 88 938.0 34.0Q818 -20 662 -20ZM662 165Q799 165 880.5 233.0Q962 301 962 412Q962 527 876.5 601.5Q791 676 662 676Q531 676 446.0 602.0Q361 528 361 412Q361 301 442.0 233.0Q523 165 662 165ZM662 857Q772 857 844.5 922.0Q917 987 917 1092Q917 1197 846.0 1260.0Q775 1323 662 1323Q547 1323 477.0 1260.0Q407 1197 407 1092Q407 987 478.0 922.0Q549 857 662 857Z" /><path id="g500_percent" d="M519 814Q420 814 352.5 856.5Q285 899 250.0 970.0Q215 1041 215 1125V1203Q215 1288 250.5 1358.5Q286 1429 354.0 1471.5Q422 1514 519 1514Q618 1514 685.5 1471.5Q753 1429 787.0 1358.0Q821 1287 821 1203V1125Q821 1040 786.5 969.5Q752 899 684.5 856.5Q617 814 519 814ZM1516 -28Q1417 -28 1349.5 14.5Q1282 57 1247.5 128.0Q1213 199 1213 283V361Q1213 446 1248.5 516.5Q1284 587 1351.5 629.5Q1419 672 1516 672Q1616 672 1683.0 629.5Q1750 587 1784.5 516.0Q1819 445 1819 361V283Q1819 199 1784.0 128.0Q1749 57 1681.5 14.5Q1614 -28 1516 -28ZM409 0 1433 1490H1615L591 0ZM1516 120Q1589 120 1618.0 170.5Q1647 221 1647 283V361Q1647 423 1619.0 474.0Q1591 525 1516 525Q1444 525 1414.0 474.0Q1384 423 1384 361V283Q1384 221 1413.5 170.5Q1443 120 1516 120ZM519 962Q592 962 621.0 1012.0Q650 1062 650 1125V1203Q650 1265 622.0 1316.0Q594 1367 519 1367Q447 1367 417.0 1316.0Q387 1265 387 1203V1125Q387 1062 416.0 1012.0Q445 962 519 962Z" /><path id="g600_R" d="M150 0V1490H707Q964 1490 1098.0 1358.0Q1232 1226 1232 1013Q1232 862 1164.0 753.0Q1096 644 964 592L1287 0H988L695 547H417V0ZM417 768H668Q819 768 889.0 831.5Q959 895 959 1013Q959 1133 889.0 1199.5Q819 1266 666 1266H417Z" /></defs>
<style>
.pulse{transform-box:fill-box;transform-origin:center;animation:pulse 2.4s cubic-bezier(.2,.7,.3,1) infinite}
@keyframes pulse{0%{transform:scale(1);opacity:.30}75%{transform:scale(2.1);opacity:0}100%{transform:scale(2.1);opacity:0}}
.caret{animation:blink 1.1s steps(1) infinite}
@keyframes blink{0%,55%{opacity:1}56%,100%{opacity:0}}
.press{transform-box:fill-box;transform-origin:0 0;animation:press 3.2s ease-in-out infinite}
@keyframes press{0%,58%,100%{transform:translate(0,0) scale(1)}66%{transform:translate(1.5px,2px) scale(.9)}74%{transform:translate(0,0) scale(1)}}
.ripple{transform-box:fill-box;transform-origin:center;opacity:0;animation:ripple 3.2s ease-out infinite}
@keyframes ripple{0%,62%{opacity:0;transform:scale(.4)}68%{opacity:.5}100%{opacity:0;transform:scale(2.4)}}
.sweep{animation:sweep 4.8s cubic-bezier(.45,0,.2,1) infinite}
@keyframes sweep{0%{transform:translateY(-470px);opacity:0}8%{opacity:1}72%{transform:translateY(0);opacity:1}100%{transform:translateY(0);opacity:1}}
.ring{transform-box:fill-box;transform-origin:50% 12%;animation:ring 4s ease-in-out infinite}
@keyframes ring{0%,70%,100%{transform:rotate(0)}74%{transform:rotate(14deg)}78%{transform:rotate(-12deg)}82%{transform:rotate(8deg)}86%{transform:rotate(-4deg)}90%{transform:rotate(0)}}
.glow{animation:glow 2.6s ease-in-out infinite}
@keyframes glow{0%,100%{opacity:1}50%{opacity:.45}}
.float{animation:float 6s ease-in-out infinite}
@keyframes float{0%,100%{transform:translateY(0)}50%{transform:translateY(-6px)}}
@media (prefers-reduced-motion: reduce){*{animation:none!important}}
</style><rect width="1200" height="800" fill="url(#bg)" /><rect width="1200" height="800" fill="url(#glowA)" /><rect width="1200" height="800" fill="url(#glowB)" /><rect width="1200" height="800" fill="url(#grid)" mask="url(#gridMask)" /><rect x="60" y="40" width="868" height="84" rx="18" fill="#fff" stroke="url(#gStroke)" stroke-width="1.5" filter="url(#e2)" /><circle cx="100" cy="82.0" r="21" fill="url(#gAcc)" /><g transform="translate(89 71.0) scale(0.9167)" fill="none" stroke="#fff" stroke-width="2" stroke-linecap="round" stroke-linejoin="round">
  <path d="M11.017 2.814a1 1 0 0 1 1.966 0l1.051 5.558a2 2 0 0 0 1.594 1.594l5.558 1.051a1 1 0 0 1 0 1.966l-5.558 1.051a2 2 0 0 0-1.594 1.594l-1.051 5.558a1 1 0 0 1-1.966 0l-1.051-5.558a2 2 0 0 0-1.594-1.594l-5.558-1.051a1 1 0 0 1 0-1.966l5.558-1.051a2 2 0 0 0 1.594-1.594z" />
  <path d="M20 2v4" />
  <path d="M22 4h-4" />
  <circle cx="4" cy="20" r="2" />
</g><g><use href="#g600_E" ns1:href="#g600_E" transform="translate(136.00 74.00) scale(0.00781 -0.00781)" fill="#5B21B6" /><use href="#g600_m" ns1:href="#g600_m" transform="translate(145.69 74.00) scale(0.00781 -0.00781)" fill="#5B21B6" /><use href="#g600_e" ns1:href="#g600_e" transform="translate(160.09 74.00) scale(0.00781 -0.00781)" fill="#5B21B6" /><use href="#g600_r" ns1:href="#g600_r" transform="translate(169.55 74.00) scale(0.00781 -0.00781)" fill="#5B21B6" /><use href="#g600_g" ns1:href="#g600_g" transform="translate(175.55 74.00) scale(0.00781 -0.00781)" fill="#5B21B6" /><use href="#g600_e" ns1:href="#g600_e" transform="translate(185.56 74.00) scale(0.00781 -0.00781)" fill="#5B21B6" /><use href="#g600_n" ns1:href="#g600_n" transform="translate(195.02 74.00) scale(0.00781 -0.00781)" fill="#5B21B6" /><use href="#g600_t" ns1:href="#g600_t" transform="translate(204.81 74.00) scale(0.00781 -0.00781)" fill="#5B21B6" /><use href="#g600_p" ns1:href="#g600_p" transform="translate(214.49 74.00) scale(0.00781 -0.00781)" fill="#5B21B6" /><use href="#g600_r" ns1:href="#g600_r" transform="translate(224.48 74.00) scale(0.00781 -0.00781)" fill="#5B21B6" /><use href="#g600_o" ns1:href="#g600_o" transform="translate(230.48 74.00) scale(0.00781 -0.00781)" fill="#5B21B6" /><use href="#g600_m" ns1:href="#g600_m" transform="translate(240.22 74.00) scale(0.00781 -0.00781)" fill="#5B21B6" /><use href="#g600_p" ns1:href="#g600_p" transform="translate(254.62 74.00) scale(0.00781 -0.00781)" fill="#5B21B6" /><use href="#g600_t" ns1:href="#g600_t" transform="translate(264.61 74.00) scale(0.00781 -0.00781)" fill="#5B21B6" /></g><g><use href="#g500_quotedblleft" ns1:href="#g500_quotedblleft" transform="translate(136.00 102.00) scale(0.00928 -0.00928)" fill="#0F172A" /><use href="#g500_C" ns1:href="#g500_C" transform="translate(145.00 102.00) scale(0.00928 -0.00928)" fill="#0F172A" /><use href="#g500_h" ns1:href="#g500_h" transform="translate(158.93 102.00) scale(0.00928 -0.00928)" fill="#0F172A" /><use href="#g500_a" ns1:href="#g500_a" transform="translate(170.36 102.00) scale(0.00928 -0.00928)" fill="#0F172A" /><use href="#g500_r" ns1:href="#g500_r" transform="translate(181.15 102.00) scale(0.00928 -0.00928)" fill="#0F172A" /><use href="#g500_t" ns1:href="#g500_t" transform="translate(188.83 102.00) scale(0.00928 -0.00928)" fill="#0F172A" /><use href="#g500_c" ns1:href="#g500_c" transform="translate(200.36 102.00) scale(0.00928 -0.00928)" fill="#0F172A" /><use href="#g500_o" ns1:href="#g500_o" transform="translate(211.32 102.00) scale(0.00928 -0.00928)" fill="#0F172A" /><use href="#g500_m" ns1:href="#g500_m" transform="translate(222.80 102.00) scale(0.00928 -0.00928)" fill="#0F172A" /><use href="#g500_p" ns1:href="#g500_p" transform="translate(239.67 102.00) scale(0.00928 -0.00928)" fill="#0F172A" /><use href="#g500_l" ns1:href="#g500_l" transform="translate(251.42 102.00) scale(0.00928 -0.00928)" fill="#0F172A" /><use href="#g500_a" ns1:href="#g500_a" transform="translate(256.21 102.00) scale(0.00928 -0.00928)" fill="#0F172A" /><use href="#g500_i" ns1:href="#g500_i" transform="translate(267.00 102.00) scale(0.00928 -0.00928)" fill="#0F172A" /><use href="#g500_n" ns1:href="#g500_n" transform="translate(271.78 102.00) scale(0.00928 -0.00928)" fill="#0F172A" /><use href="#g500_t" ns1:href="#g500_t" transform="translate(283.21 102.00) scale(0.00928 -0.00928)" fill="#0F172A" /><use href="#g500_s" ns1:href="#g500_s" transform="translate(289.51 102.00) scale(0.00928 -0.00928)" fill="#0F172A" /><use href="#g500_b" ns1:href="#g500_b" transform="translate(304.81 102.00) scale(0.00928 -0.00928)" fill="#0F172A" /><use href="#g500_y" ns1:href="#g500_y" transform="translate(316.19 102.00) scale(0.00928 -0.00928)" fill="#0F172A" /><use href="#g500_c" ns1:href="#g500_c" transform="translate(332.19 102.00) scale(0.00928 -0.00928)" fill="#0F172A" /><use href="#g500_l" ns1:href="#g500_l" transform="translate(343.15 102.00) scale(0.00928 -0.00928)" fill="#0F172A" /><use href="#g500_i" ns1:href="#g500_i" transform="translate(347.94 102.00) scale(0.00928 -0.00928)" fill="#0F172A" /><use href="#g500_n" ns1:href="#g500_n" transform="translate(352.73 102.00) scale(0.00928 -0.00928)" fill="#0F172A" /><use href="#g500_i" ns1:href="#g500_i" transform="translate(364.16 102.00) scale(0.00928 -0.00928)" fill="#0F172A" /><use href="#g500_c" ns1:href="#g500_c" transform="translate(368.94 102.00) scale(0.00928 -0.00928)" fill="#0F172A" /><use href="#g500_e" ns1:href="#g500_e" transform="translate(384.98 102.00) scale(0.00928 -0.00928)" fill="#0F172A" /><use href="#g500_a" ns1:href="#g500_a" transform="translate(396.32 102.00) scale(0.00928 -0.00928)" fill="#0F172A" /><use href="#g500_c" ns1:href="#g500_c" transform="translate(407.11 102.00) scale(0.00928 -0.00928)" fill="#0F172A" /><use href="#g500_h" ns1:href="#g500_h" transform="translate(418.08 102.00) scale(0.00928 -0.00928)" fill="#0F172A" /><use href="#g500_q" ns1:href="#g500_q" transform="translate(434.57 102.00) scale(0.00928 -0.00928)" fill="#0F172A" /><use href="#g500_u" ns1:href="#g500_u" transform="translate(446.32 102.00) scale(0.00928 -0.00928)" fill="#0F172A" /><use href="#g500_a" ns1:href="#g500_a" transform="translate(457.75 102.00) scale(0.00928 -0.00928)" fill="#0F172A" /><use href="#g500_r" ns1:href="#g500_r" transform="translate(468.54 102.00) scale(0.00928 -0.00928)" fill="#0F172A" /><use href="#g500_t" ns1:href="#g500_t" transform="translate(476.21 102.00) scale(0.00928 -0.00928)" fill="#0F172A" /><use href="#g500_e" ns1:href="#g500_e" transform="translate(482.49 102.00) scale(0.00928 -0.00928)" fill="#0F172A" /><use href="#g500_r" ns1:href="#g500_r" transform="translate(493.65 102.00) scale(0.00928 -0.00928)" fill="#0F172A" /><use href="#g500_a" ns1:href="#g500_a" transform="translate(506.06 102.00) scale(0.00928 -0.00928)" fill="#0F172A" /><use href="#g500_n" ns1:href="#g500_n" transform="translate(516.85 102.00) scale(0.00928 -0.00928)" fill="#0F172A" /><use href="#g500_d" ns1:href="#g500_d" transform="translate(528.28 102.00) scale(0.00928 -0.00928)" fill="#0F172A" /><use href="#g500_f" ns1:href="#g500_f" transform="translate(545.09 102.00) scale(0.00928 -0.00928)" fill="#0F172A" /><use href="#g500_l" ns1:href="#g500_l" transform="translate(552.30 102.00) scale(0.00928 -0.00928)" fill="#0F172A" /><use href="#g500_a" ns1:href="#g500_a" transform="translate(557.09 102.00) scale(0.00928 -0.00928)" fill="#0F172A" /><use href="#g500_g" ns1:href="#g500_g" transform="translate(567.88 102.00) scale(0.00928 -0.00928)" fill="#0F172A" /><use href="#g500_a" ns1:href="#g500_a" transform="translate(584.72 102.00) scale(0.00928 -0.00928)" fill="#0F172A" /><use href="#g500_n" ns1:href="#g500_n" transform="translate(595.51 102.00) scale(0.00928 -0.00928)" fill="#0F172A" /><use href="#g500_y" ns1:href="#g500_y" transform="translate(606.64 102.00) scale(0.00928 -0.00928)" fill="#0F172A" /><use href="#g500_c" ns1:href="#g500_c" transform="translate(622.63 102.00) scale(0.00928 -0.00928)" fill="#0F172A" /><use href="#g500_l" ns1:href="#g500_l" transform="translate(633.60 102.00) scale(0.00928 -0.00928)" fill="#0F172A" /><use href="#g500_i" ns1:href="#g500_i" transform="translate(638.39 102.00) scale(0.00928 -0.00928)" fill="#0F172A" /><use href="#g500_n" ns1:href="#g500_n" transform="translate(643.17 102.00) scale(0.00928 -0.00928)" fill="#0F172A" /><use href="#g500_i" ns1:href="#g500_i" transform="translate(654.60 102.00) scale(0.00928 -0.00928)" fill="#0F172A" /><use href="#g500_c" ns1:href="#g500_c" transform="translate(659.39 102.00) scale(0.00928 -0.00928)" fill="#0F172A" /><use href="#g500_o" ns1:href="#g500_o" transform="translate(675.42 102.00) scale(0.00928 -0.00928)" fill="#0F172A" /><use href="#g500_u" ns1:href="#g500_u" transform="translate(686.90 102.00) scale(0.00928 -0.00928)" fill="#0F172A" /><use href="#g500_t" ns1:href="#g500_t" transform="translate(698.33 102.00) scale(0.00928 -0.00928)" fill="#0F172A" /><use href="#g500_o" ns1:href="#g500_o" transform="translate(709.86 102.00) scale(0.00928 -0.00928)" fill="#0F172A" /><use href="#g500_f" ns1:href="#g500_f" transform="translate(721.34 102.00) scale(0.00928 -0.00928)" fill="#0F172A" /><use href="#g500_l" ns1:href="#g500_l" transform="translate(733.61 102.00) scale(0.00928 -0.00928)" fill="#0F172A" /><use href="#g500_i" ns1:href="#g500_i" transform="translate(738.40 102.00) scale(0.00928 -0.00928)" fill="#0F172A" /><use href="#g500_n" ns1:href="#g500_n" transform="translate(743.18 102.00) scale(0.00928 -0.00928)" fill="#0F172A" /><use href="#g500_e" ns1:href="#g500_e" transform="translate(754.61 102.00) scale(0.00928 -0.00928)" fill="#0F172A" /><use href="#g500_quotedblright" ns1:href="#g500_quotedblright" transform="translate(765.33 102.00) scale(0.00928 -0.00928)" fill="#0F172A" /></g><rect class="caret" x="778.9" y="84.0" width="2.5" height="24" rx="1.25" fill="#7C3AED" /><rect x="832" y="66.0" width="32" height="32" rx="8" fill="#F6F4FC" stroke="#E2DDF0" stroke-width="1.2" /><g transform="translate(839 73.0) scale(0.7500)" fill="none" stroke="#475569" stroke-width="2" stroke-linecap="round" stroke-linejoin="round">
  <path d="M15 6v12a3 3 0 1 0 3-3H6a3 3 0 1 0 3 3V6a3 3 0 1 0-3 3h12a3 3 0 1 0-3-3" />
</g><rect x="872" y="66.0" width="32" height="32" rx="8" fill="#F6F4FC" stroke="#E2DDF0" stroke-width="1.2" /><g transform="translate(879 73.0) scale(0.7500)" fill="none" stroke="#475569" stroke-width="2" stroke-linecap="round" stroke-linejoin="round">
  <path d="M20 4v7a4 4 0 0 1-4 4H4" />
  <path d="m9 10-5 5 5 5" />
</g><rect x="60" y="164" width="1080" height="300" rx="18" fill="#fff" stroke="#E4E4E7" stroke-width="1" filter="url(#e1)" /><g><use href="#g500_W" ns1:href="#g500_W" transform="translate(96.00 213.00) scale(0.00928 -0.00928)" fill="#475569" /><use href="#g500_a" ns1:href="#g500_a" transform="translate(114.04 213.00) scale(0.00928 -0.00928)" fill="#475569" /><use href="#g500_i" ns1:href="#g500_i" transform="translate(124.83 213.00) scale(0.00928 -0.00928)" fill="#475569" /><use href="#g500_t" ns1:href="#g500_t" transform="translate(129.62 213.00) scale(0.00928 -0.00928)" fill="#475569" /><use href="#g500_hyphen_tf" ns1:href="#g500_hyphen_tf" transform="translate(136.09 213.00) scale(0.00928 -0.00928)" fill="#475569" /><use href="#g500_t" ns1:href="#g500_t" transform="translate(148.40 213.00) scale(0.00928 -0.00928)" fill="#475569" /><use href="#g500_i" ns1:href="#g500_i" transform="translate(154.86 213.00) scale(0.00928 -0.00928)" fill="#475569" /><use href="#g500_m" ns1:href="#g500_m" transform="translate(159.65 213.00) scale(0.00928 -0.00928)" fill="#475569" /><use href="#g500_e" ns1:href="#g500_e" transform="translate(176.53 213.00) scale(0.00928 -0.00928)" fill="#475569" /><use href="#g500_c" ns1:href="#g500_c" transform="translate(192.79 213.00) scale(0.00928 -0.00928)" fill="#475569" /><use href="#g500_o" ns1:href="#g500_o" transform="translate(203.76 213.00) scale(0.00928 -0.00928)" fill="#475569" /><use href="#g500_m" ns1:href="#g500_m" transform="translate(215.23 213.00) scale(0.00928 -0.00928)" fill="#475569" /><use href="#g500_p" ns1:href="#g500_p" transform="translate(232.11 213.00) scale(0.00928 -0.00928)" fill="#475569" /><use href="#g500_l" ns1:href="#g500_l" transform="translate(243.85 213.00) scale(0.00928 -0.00928)" fill="#475569" /><use href="#g500_a" ns1:href="#g500_a" transform="translate(248.64 213.00) scale(0.00928 -0.00928)" fill="#475569" /><use href="#g500_i" ns1:href="#g500_i" transform="translate(259.43 213.00) scale(0.00928 -0.00928)" fill="#475569" /><use href="#g500_n" ns1:href="#g500_n" transform="translate(264.22 213.00) scale(0.00928 -0.00928)" fill="#475569" /><use href="#g500_t" ns1:href="#g500_t" transform="translate(275.65 213.00) scale(0.00928 -0.00928)" fill="#475569" /><use href="#g500_s" ns1:href="#g500_s" transform="translate(281.95 213.00) scale(0.00928 -0.00928)" fill="#475569" /></g><g><use href="#g500_R" ns1:href="#g500_R" transform="translate(96.00 249.00) scale(0.00781 -0.00781)" fill="#475569" /><use href="#g500_i" ns1:href="#g500_i" transform="translate(106.37 249.00) scale(0.00781 -0.00781)" fill="#475569" /><use href="#g500_v" ns1:href="#g500_v" transform="translate(110.40 249.00) scale(0.00781 -0.00781)" fill="#475569" /><use href="#g500_e" ns1:href="#g500_e" transform="translate(119.29 249.00) scale(0.00781 -0.00781)" fill="#475569" /><use href="#g500_r" ns1:href="#g500_r" transform="translate(128.69 249.00) scale(0.00781 -0.00781)" fill="#475569" /><use href="#g500_b" ns1:href="#g500_b" transform="translate(135.12 249.00) scale(0.00781 -0.00781)" fill="#475569" /><use href="#g500_e" ns1:href="#g500_e" transform="translate(145.02 249.00) scale(0.00781 -0.00781)" fill="#475569" /><use href="#g500_n" ns1:href="#g500_n" transform="translate(154.41 249.00) scale(0.00781 -0.00781)" fill="#475569" /><use href="#g500_d" ns1:href="#g500_d" transform="translate(164.04 249.00) scale(0.00781 -0.00781)" fill="#475569" /><use href="#g500_D" ns1:href="#g500_D" transform="translate(178.23 249.00) scale(0.00781 -0.00781)" fill="#475569" /><use href="#g500_e" ns1:href="#g500_e" transform="translate(189.77 249.00) scale(0.00781 -0.00781)" fill="#475569" /><use href="#g500_n" ns1:href="#g500_n" transform="translate(199.17 249.00) scale(0.00781 -0.00781)" fill="#475569" /><use href="#g500_t" ns1:href="#g500_t" transform="translate(208.80 249.00) scale(0.00781 -0.00781)" fill="#475569" /><use href="#g500_a" ns1:href="#g500_a" transform="translate(214.32 249.00) scale(0.00781 -0.00781)" fill="#475569" /><use href="#g500_l" ns1:href="#g500_l" transform="translate(223.41 249.00) scale(0.00781 -0.00781)" fill="#475569" /></g><rect x="96" y="269" width="150" height="36" rx="18.0" fill="#F1ECFF" /><circle cx="112" cy="287.0" r="4" fill="#5B21B6" /><g><use href="#g600_T" ns1:href="#g600_T" transform="translate(124.00 292.76) scale(0.00781 -0.00781)" fill="#5B21B6" /><use href="#g600_h" ns1:href="#g600_h" transform="translate(134.56 292.76) scale(0.00781 -0.00781)" fill="#5B21B6" /><use href="#g600_i" ns1:href="#g600_i" transform="translate(144.36 292.76) scale(0.00781 -0.00781)" fill="#5B21B6" /><use href="#g600_s" ns1:href="#g600_s" transform="translate(148.55 292.76) scale(0.00781 -0.00781)" fill="#5B21B6" /><use href="#g600_q" ns1:href="#g600_q" transform="translate(161.37 292.76) scale(0.00781 -0.00781)" fill="#5B21B6" /><use href="#g600_u" ns1:href="#g600_u" transform="translate(171.35 292.76) scale(0.00781 -0.00781)" fill="#5B21B6" /><use href="#g600_a" ns1:href="#g600_a" transform="translate(181.15 292.76) scale(0.00781 -0.00781)" fill="#5B21B6" /><use href="#g600_r" ns1:href="#g600_r" transform="translate(190.34 292.76) scale(0.00781 -0.00781)" fill="#5B21B6" /><use href="#g600_t" ns1:href="#g600_t" transform="translate(196.98 292.76) scale(0.00781 -0.00781)" fill="#5B21B6" /><use href="#g600_e" ns1:href="#g600_e" transform="translate(202.47 292.76) scale(0.00781 -0.00781)" fill="#5B21B6" /><use href="#g600_r" ns1:href="#g600_r" transform="translate(211.93 292.76) scale(0.00781 -0.00781)" fill="#5B21B6" /></g><g><use href="#g700_B" ns1:href="#g700_B" transform="translate(542.56 220.00) scale(0.00879 -0.00879)" fill="#0F172A" /><use href="#g700_a" ns1:href="#g700_a" transform="translate(554.47 220.00) scale(0.00879 -0.00879)" fill="#0F172A" /><use href="#g700_y" ns1:href="#g700_y" transform="translate(564.61 220.00) scale(0.00879 -0.00879)" fill="#0F172A" /><use href="#g700_s" ns1:href="#g700_s" transform="translate(575.45 220.00) scale(0.00879 -0.00879)" fill="#0F172A" /><use href="#g700_i" ns1:href="#g700_i" transform="translate(585.53 220.00) scale(0.00879 -0.00879)" fill="#0F172A" /><use href="#g700_d" ns1:href="#g700_d" transform="translate(590.41 220.00) scale(0.00879 -0.00879)" fill="#0F172A" /><use href="#g700_e" ns1:href="#g700_e" transform="translate(601.75 220.00) scale(0.00879 -0.00879)" fill="#0F172A" /></g><rect x="642.56" y="204" width="391.43999999999994" height="22" rx="11" fill="#F1ECFF" /><rect x="642.56" y="204" width="73.39499999999998" height="22" rx="11" fill="url(#gAcc)" /><g><use href="#g800_three_tf" ns1:href="#g800_three_tf" transform="translate(1091.74 222.00) scale(0.00928 -0.00928)" fill="#0F172A" /></g><g><use href="#g700_L" ns1:href="#g700_L" transform="translate(542.56 280.00) scale(0.00879 -0.00879)" fill="#0F172A" /><use href="#g700_a" ns1:href="#g700_a" transform="translate(552.74 280.00) scale(0.00879 -0.00879)" fill="#0F172A" /><use href="#g700_k" ns1:href="#g700_k" transform="translate(563.19 280.00) scale(0.00879 -0.00879)" fill="#0F172A" /><use href="#g700_e" ns1:href="#g700_e" transform="translate(573.23 280.00) scale(0.00879 -0.00879)" fill="#0F172A" /><use href="#g700_v" ns1:href="#g700_v" transform="translate(583.62 280.00) scale(0.00879 -0.00879)" fill="#0F172A" /><use href="#g700_i" ns1:href="#g700_i" transform="translate(594.42 280.00) scale(0.00879 -0.00879)" fill="#0F172A" /><use href="#g700_e" ns1:href="#g700_e" transform="translate(599.29 280.00) scale(0.00879 -0.00879)" fill="#0F172A" /><use href="#g700_w" ns1:href="#g700_w" transform="translate(609.77 280.00) scale(0.00879 -0.00879)" fill="#0F172A" /></g><rect x="642.56" y="264" width="391.43999999999994" height="22" rx="11" fill="#F1ECFF" /><rect x="642.56" y="264" width="73.39499999999998" height="22" rx="11" fill="url(#gAcc)" /><g><use href="#g800_three_tf" ns1:href="#g800_three_tf" transform="translate(1091.74 282.00) scale(0.00928 -0.00928)" fill="#0F172A" /></g><g><use href="#g700_E" ns1:href="#g700_E" transform="translate(542.56 340.00) scale(0.00879 -0.00879)" fill="#0F172A" /><use href="#g700_l" ns1:href="#g700_l" transform="translate(553.49 340.00) scale(0.00879 -0.00879)" fill="#0F172A" /><use href="#g700_m" ns1:href="#g700_m" transform="translate(558.37 340.00) scale(0.00879 -0.00879)" fill="#0F172A" /><use href="#g700_w" ns1:href="#g700_w" transform="translate(574.80 340.00) scale(0.00879 -0.00879)" fill="#0F172A" /><use href="#g700_o" ns1:href="#g700_o" transform="translate(589.85 340.00) scale(0.00879 -0.00879)" fill="#0F172A" /><use href="#g700_o" ns1:href="#g700_o" transform="translate(600.89 340.00) scale(0.00879 -0.00879)" fill="#0F172A" /><use href="#g700_d" ns1:href="#g700_d" transform="translate(611.93 340.00) scale(0.00879 -0.00879)" fill="#0F172A" /></g><rect x="642.56" y="324" width="391.43999999999994" height="22" rx="11" fill="#F1ECFF" /><rect x="642.56" y="324" width="342.50999999999993" height="22" rx="11" fill="#B91C1C" /><g><use href="#g800_one_tf" ns1:href="#g800_one_tf" transform="translate(1079.47 342.00) scale(0.00928 -0.00928)" fill="#B91C1C" /><use href="#g800_four_tf" ns1:href="#g800_four_tf" transform="translate(1091.74 342.00) scale(0.00928 -0.00928)" fill="#B91C1C" /></g><g><use href="#g700_O" ns1:href="#g700_O" transform="translate(542.56 400.00) scale(0.00879 -0.00879)" fill="#0F172A" /><use href="#g700_a" ns1:href="#g700_a" transform="translate(556.43 400.00) scale(0.00879 -0.00879)" fill="#0F172A" /><use href="#g700_k" ns1:href="#g700_k" transform="translate(566.88 400.00) scale(0.00879 -0.00879)" fill="#0F172A" /><use href="#g700_d" ns1:href="#g700_d" transform="translate(576.92 400.00) scale(0.00879 -0.00879)" fill="#0F172A" /><use href="#g700_a" ns1:href="#g700_a" transform="translate(588.26 400.00) scale(0.00879 -0.00879)" fill="#0F172A" /><use href="#g700_l" ns1:href="#g700_l" transform="translate(598.71 400.00) scale(0.00879 -0.00879)" fill="#0F172A" /><use href="#g700_e" ns1:href="#g700_e" transform="translate(603.59 400.00) scale(0.00879 -0.00879)" fill="#0F172A" /></g><rect x="642.56" y="384" width="391.43999999999994" height="22" rx="11" fill="#F1ECFF" /><rect x="642.56" y="384" width="97.85999999999999" height="22" rx="11" fill="url(#gAcc)" /><g><use href="#g800_four_tf" ns1:href="#g800_four_tf" transform="translate(1091.74 402.00) scale(0.00928 -0.00928)" fill="#0F172A" /></g><rect x="60" y="500" width="210" height="260" rx="18" fill="#fff" stroke="#E4E4E7" stroke-width="1" filter="url(#e1)" /><g transform="translate(88 528) scale(1.0000)" fill="none" stroke="#7C3AED" stroke-width="2" stroke-linecap="round" stroke-linejoin="round">
  <circle cx="12" cy="12" r="10" />
  <path d="M12 6v6l4 2" />
</g><g><use href="#g700_W" ns1:href="#g700_W" transform="translate(88.00 590.00) scale(0.00879 -0.00879)" fill="#0F172A" /><use href="#g700_a" ns1:href="#g700_a" transform="translate(105.64 590.00) scale(0.00879 -0.00879)" fill="#0F172A" /><use href="#g700_i" ns1:href="#g700_i" transform="translate(116.09 590.00) scale(0.00879 -0.00879)" fill="#0F172A" /><use href="#g700_t" ns1:href="#g700_t" transform="translate(120.97 590.00) scale(0.00879 -0.00879)" fill="#0F172A" /><use href="#g700_t" ns1:href="#g700_t" transform="translate(131.82 590.00) scale(0.00879 -0.00879)" fill="#0F172A" /><use href="#g700_i" ns1:href="#g700_i" transform="translate(138.41 590.00) scale(0.00879 -0.00879)" fill="#0F172A" /><use href="#g700_m" ns1:href="#g700_m" transform="translate(143.29 590.00) scale(0.00879 -0.00879)" fill="#0F172A" /><use href="#g700_e" ns1:href="#g700_e" transform="translate(159.72 590.00) scale(0.00879 -0.00879)" fill="#0F172A" /><use href="#g700_s" ns1:href="#g700_s" transform="translate(170.44 590.00) scale(0.00879 -0.00879)" fill="#0F172A" /></g><g><use href="#g800_two_tf" ns1:href="#g800_two_tf" transform="translate(88.00 648.00) scale(0.01953 -0.01953)" fill="#0F172A" /><use href="#g800_four_tf" ns1:href="#g800_four_tf" transform="translate(112.82 648.00) scale(0.01953 -0.01953)" fill="#0F172A" /></g><g><use href="#g500_A" ns1:href="#g500_A" transform="translate(88.00 680.00) scale(0.00781 -0.00781)" fill="#64748B" /><use href="#g500_c" ns1:href="#g500_c" transform="translate(99.22 680.00) scale(0.00781 -0.00781)" fill="#64748B" /><use href="#g500_r" ns1:href="#g500_r" transform="translate(108.45 680.00) scale(0.00781 -0.00781)" fill="#64748B" /><use href="#g500_o" ns1:href="#g500_o" transform="translate(114.34 680.00) scale(0.00781 -0.00781)" fill="#64748B" /><use href="#g500_s" ns1:href="#g500_s" transform="translate(124.00 680.00) scale(0.00781 -0.00781)" fill="#64748B" /><use href="#g500_s" ns1:href="#g500_s" transform="translate(132.62 680.00) scale(0.00781 -0.00781)" fill="#64748B" /><use href="#g500_four" ns1:href="#g500_four" transform="translate(145.50 680.00) scale(0.00781 -0.00781)" fill="#64748B" /><use href="#g500_c" ns1:href="#g500_c" transform="translate(160.27 680.00) scale(0.00781 -0.00781)" fill="#64748B" /><use href="#g500_l" ns1:href="#g500_l" transform="translate(169.50 680.00) scale(0.00781 -0.00781)" fill="#64748B" /><use href="#g500_i" ns1:href="#g500_i" transform="translate(173.53 680.00) scale(0.00781 -0.00781)" fill="#64748B" /><use href="#g500_n" ns1:href="#g500_n" transform="translate(177.56 680.00) scale(0.00781 -0.00781)" fill="#64748B" /><use href="#g500_i" ns1:href="#g500_i" transform="translate(187.19 680.00) scale(0.00781 -0.00781)" fill="#64748B" /><use href="#g500_c" ns1:href="#g500_c" transform="translate(191.22 680.00) scale(0.00781 -0.00781)" fill="#64748B" /><use href="#g500_s" ns1:href="#g500_s" transform="translate(200.45 680.00) scale(0.00781 -0.00781)" fill="#64748B" /></g><g class="float"><ellipse cx="720.0" cy="630.0" rx="655.2" ry="247.0" fill="url(#spot)" /><rect x="300" y="500" width="840" height="260" rx="20" fill="#fff" stroke="#E4E4E7" stroke-width="1" filter="url(#e2)" /><rect x="848" y="686" width="268" height="50" rx="12" fill="url(#gAcc)" /><g><use href="#g600_B" ns1:href="#g600_B" transform="translate(877.28 717.00) scale(0.00830 -0.00830)" fill="#fff" /><use href="#g600_o" ns1:href="#g600_o" transform="translate(888.49 717.00) scale(0.00830 -0.00830)" fill="#fff" /><use href="#g600_o" ns1:href="#g600_o" transform="translate(898.84 717.00) scale(0.00830 -0.00830)" fill="#fff" /><use href="#g600_k" ns1:href="#g600_k" transform="translate(909.19 717.00) scale(0.00830 -0.00830)" fill="#fff" /><use href="#g600_s" ns1:href="#g600_s" transform="translate(923.15 717.00) scale(0.00830 -0.00830)" fill="#fff" /><use href="#g600_c" ns1:href="#g600_c" transform="translate(932.49 717.00) scale(0.00830 -0.00830)" fill="#fff" /><use href="#g600_h" ns1:href="#g600_h" transform="translate(942.39 717.00) scale(0.00830 -0.00830)" fill="#fff" /><use href="#g600_e" ns1:href="#g600_e" transform="translate(952.80 717.00) scale(0.00830 -0.00830)" fill="#fff" /><use href="#g600_d" ns1:href="#g600_d" transform="translate(962.85 717.00) scale(0.00830 -0.00830)" fill="#fff" /><use href="#g600_u" ns1:href="#g600_u" transform="translate(973.46 717.00) scale(0.00830 -0.00830)" fill="#fff" /><use href="#g600_l" ns1:href="#g600_l" transform="translate(983.87 717.00) scale(0.00830 -0.00830)" fill="#fff" /><use href="#g600_i" ns1:href="#g600_i" transform="translate(988.32 717.00) scale(0.00830 -0.00830)" fill="#fff" /><use href="#g600_n" ns1:href="#g600_n" transform="translate(992.77 717.00) scale(0.00830 -0.00830)" fill="#fff" /><use href="#g600_g" ns1:href="#g600_g" transform="translate(1003.17 717.00) scale(0.00830 -0.00830)" fill="#fff" /><use href="#g600_r" ns1:href="#g600_r" transform="translate(1018.09 717.00) scale(0.00830 -0.00830)" fill="#fff" /><use href="#g600_e" ns1:href="#g600_e" transform="translate(1024.46 717.00) scale(0.00830 -0.00830)" fill="#fff" /><use href="#g600_v" ns1:href="#g600_v" transform="translate(1034.20 717.00) scale(0.00830 -0.00830)" fill="#fff" /><use href="#g600_i" ns1:href="#g600_i" transform="translate(1044.18 717.00) scale(0.00830 -0.00830)" fill="#fff" /><use href="#g600_e" ns1:href="#g600_e" transform="translate(1048.62 717.00) scale(0.00830 -0.00830)" fill="#fff" /><use href="#g600_w" ns1:href="#g600_w" transform="translate(1058.42 717.00) scale(0.00830 -0.00830)" fill="#fff" /></g><circle class="ripple" cx="1098" cy="724" r="14" fill="#7C3AED" /><g class="press"><g filter="url(#e1)"><path d="M1098 724 l0 30 l8 -7 l6 13 l6 -3 l-6 -13 l11 -1 z" fill="#0F172A" stroke="#fff" stroke-width="2" stroke-linejoin="round" /></g></g><rect x="324" y="524" width="190" height="36" rx="18.0" fill="#FEE2E2" /><circle cx="340" cy="542.0" r="4" fill="#B91C1C" /><g><use href="#g600_E" ns1:href="#g600_E" transform="translate(352.00 547.76) scale(0.00781 -0.00781)" fill="#B91C1C" /><use href="#g600_l" ns1:href="#g600_l" transform="translate(361.69 547.76) scale(0.00781 -0.00781)" fill="#B91C1C" /><use href="#g600_m" ns1:href="#g600_m" transform="translate(365.88 547.76) scale(0.00781 -0.00781)" fill="#B91C1C" /><use href="#g600_w" ns1:href="#g600_w" transform="translate(380.28 547.76) scale(0.00781 -0.00781)" fill="#B91C1C" /><use href="#g600_o" ns1:href="#g600_o" transform="translate(393.47 547.76) scale(0.00781 -0.00781)" fill="#B91C1C" /><use href="#g600_o" ns1:href="#g600_o" transform="translate(403.21 547.76) scale(0.00781 -0.00781)" fill="#B91C1C" /><use href="#g600_d" ns1:href="#g600_d" transform="translate(412.95 547.76) scale(0.00781 -0.00781)" fill="#B91C1C" /><use href="#g600_f" ns1:href="#g600_f" transform="translate(426.97 547.76) scale(0.00781 -0.00781)" fill="#B91C1C" /><use href="#g600_l" ns1:href="#g600_l" transform="translate(433.19 547.76) scale(0.00781 -0.00781)" fill="#B91C1C" /><use href="#g600_a" ns1:href="#g600_a" transform="translate(437.38 547.76) scale(0.00781 -0.00781)" fill="#B91C1C" /><use href="#g600_g" ns1:href="#g600_g" transform="translate(446.56 547.76) scale(0.00781 -0.00781)" fill="#B91C1C" /><use href="#g600_g" ns1:href="#g600_g" transform="translate(456.57 547.76) scale(0.00781 -0.00781)" fill="#B91C1C" /><use href="#g600_e" ns1:href="#g600_e" transform="translate(466.58 547.76) scale(0.00781 -0.00781)" fill="#B91C1C" /><use href="#g600_d" ns1:href="#g600_d" transform="translate(476.04 547.76) scale(0.00781 -0.00781)" fill="#B91C1C" /></g><g><use href="#g700_one_tf" ns1:href="#g700_one_tf" transform="translate(324.00 610.00) scale(0.01074 -0.01074)" fill="#0F172A" /><use href="#g700_four_tf" ns1:href="#g700_four_tf" transform="translate(337.92 610.00) scale(0.01074 -0.01074)" fill="#0F172A" /><use href="#g700_c" ns1:href="#g700_c" transform="translate(357.45 610.00) scale(0.01074 -0.01074)" fill="#0F172A" /><use href="#g700_o" ns1:href="#g700_o" transform="translate(370.10 610.00) scale(0.01074 -0.01074)" fill="#0F172A" /><use href="#g700_m" ns1:href="#g700_m" transform="translate(383.29 610.00) scale(0.01074 -0.01074)" fill="#0F172A" /><use href="#g700_p" ns1:href="#g700_p" transform="translate(403.07 610.00) scale(0.01074 -0.01074)" fill="#0F172A" /><use href="#g700_l" ns1:href="#g700_l" transform="translate(416.64 610.00) scale(0.01074 -0.01074)" fill="#0F172A" /><use href="#g700_a" ns1:href="#g700_a" transform="translate(422.30 610.00) scale(0.01074 -0.01074)" fill="#0F172A" /><use href="#g700_i" ns1:href="#g700_i" transform="translate(434.77 610.00) scale(0.01074 -0.01074)" fill="#0F172A" /><use href="#g700_n" ns1:href="#g700_n" transform="translate(440.43 610.00) scale(0.01074 -0.01074)" fill="#0F172A" /><use href="#g700_t" ns1:href="#g700_t" transform="translate(453.83 610.00) scale(0.01074 -0.01074)" fill="#0F172A" /><use href="#g700_s" ns1:href="#g700_s" transform="translate(461.42 610.00) scale(0.01074 -0.01074)" fill="#0F172A" /><use href="#g700_a" ns1:href="#g700_a" transform="translate(479.05 610.00) scale(0.01074 -0.01074)" fill="#0F172A" /><use href="#g700_t" ns1:href="#g700_t" transform="translate(491.53 610.00) scale(0.01074 -0.01074)" fill="#0F172A" /><use href="#g700_E" ns1:href="#g700_E" transform="translate(504.89 610.00) scale(0.01074 -0.01074)" fill="#0F172A" /><use href="#g700_l" ns1:href="#g700_l" transform="translate(517.95 610.00) scale(0.01074 -0.01074)" fill="#0F172A" /><use href="#g700_m" ns1:href="#g700_m" transform="translate(523.62 610.00) scale(0.01074 -0.01074)" fill="#0F172A" /><use href="#g700_w" ns1:href="#g700_w" transform="translate(543.39 610.00) scale(0.01074 -0.01074)" fill="#0F172A" /><use href="#g700_o" ns1:href="#g700_o" transform="translate(561.49 610.00) scale(0.01074 -0.01074)" fill="#0F172A" /><use href="#g700_o" ns1:href="#g700_o" transform="translate(574.69 610.00) scale(0.01074 -0.01074)" fill="#0F172A" /><use href="#g700_d" ns1:href="#g700_d" transform="translate(587.88 610.00) scale(0.01074 -0.01074)" fill="#0F172A" /></g><g><use href="#g500_five_tf" ns1:href="#g500_five_tf" transform="translate(324.00 638.00) scale(0.00830 -0.00830)" fill="#475569" /><use href="#g500_eight_tf" ns1:href="#g500_eight_tf" transform="translate(335.02 638.00) scale(0.00830 -0.00830)" fill="#475569" /><use href="#g500_percent" ns1:href="#g500_percent" transform="translate(346.03 638.00) scale(0.00830 -0.00830)" fill="#475569" /><use href="#g500_o" ns1:href="#g500_o" transform="translate(367.48 638.00) scale(0.00830 -0.00830)" fill="#475569" /><use href="#g500_f" ns1:href="#g500_f" transform="translate(377.75 638.00) scale(0.00830 -0.00830)" fill="#475569" /><use href="#g500_t" ns1:href="#g500_t" transform="translate(388.76 638.00) scale(0.00830 -0.00830)" fill="#475569" /><use href="#g500_h" ns1:href="#g500_h" transform="translate(394.56 638.00) scale(0.00830 -0.00830)" fill="#475569" /><use href="#g500_e" ns1:href="#g500_e" transform="translate(404.79 638.00) scale(0.00830 -0.00830)" fill="#475569" /><use href="#g500_g" ns1:href="#g500_g" transform="translate(419.34 638.00) scale(0.00830 -0.00830)" fill="#475569" /><use href="#g500_r" ns1:href="#g500_r" transform="translate(429.88 638.00) scale(0.00830 -0.00830)" fill="#475569" /><use href="#g500_o" ns1:href="#g500_o" transform="translate(436.13 638.00) scale(0.00830 -0.00830)" fill="#475569" /><use href="#g500_u" ns1:href="#g500_u" transform="translate(446.40 638.00) scale(0.00830 -0.00830)" fill="#475569" /><use href="#g500_p" ns1:href="#g500_p" transform="translate(456.62 638.00) scale(0.00830 -0.00830)" fill="#475569" /><use href="#g500_t" ns1:href="#g500_t" transform="translate(471.70 638.00) scale(0.00830 -0.00830)" fill="#475569" /><use href="#g500_o" ns1:href="#g500_o" transform="translate(477.32 638.00) scale(0.00830 -0.00830)" fill="#475569" /><use href="#g500_t" ns1:href="#g500_t" transform="translate(487.58 638.00) scale(0.00830 -0.00830)" fill="#475569" /><use href="#g500_a" ns1:href="#g500_a" transform="translate(493.45 638.00) scale(0.00830 -0.00830)" fill="#475569" /><use href="#g500_l" ns1:href="#g500_l" transform="translate(503.11 638.00) scale(0.00830 -0.00830)" fill="#475569" /></g><g transform="translate(324 672) scale(0.8333)" fill="none" stroke="#64748B" stroke-width="2" stroke-linecap="round" stroke-linejoin="round">
  <path d="M8 2v3" />
  <path d="M16 2v3" />
  <rect x="3" y="3" width="18" height="18" rx="2" />
  <path d="M3 9h18" />
</g><g><use href="#g600_R" ns1:href="#g600_R" transform="translate(352.00 688.00) scale(0.00781 -0.00781)" fill="#475569" /><use href="#g600_e" ns1:href="#g600_e" transform="translate(362.23 688.00) scale(0.00781 -0.00781)" fill="#475569" /><use href="#g600_v" ns1:href="#g600_v" transform="translate(371.40 688.00) scale(0.00781 -0.00781)" fill="#475569" /><use href="#g600_i" ns1:href="#g600_i" transform="translate(380.79 688.00) scale(0.00781 -0.00781)" fill="#475569" /><use href="#g600_e" ns1:href="#g600_e" transform="translate(384.98 688.00) scale(0.00781 -0.00781)" fill="#475569" /><use href="#g600_w" ns1:href="#g600_w" transform="translate(394.20 688.00) scale(0.00781 -0.00781)" fill="#475569" /><use href="#g600_w" ns1:href="#g600_w" transform="translate(411.66 688.00) scale(0.00781 -0.00781)" fill="#475569" /><use href="#g600_i" ns1:href="#g600_i" transform="translate(425.09 688.00) scale(0.00781 -0.00781)" fill="#475569" /><use href="#g600_t" ns1:href="#g600_t" transform="translate(429.27 688.00) scale(0.00781 -0.00781)" fill="#475569" /><use href="#g600_h" ns1:href="#g600_h" transform="translate(434.95 688.00) scale(0.00781 -0.00781)" fill="#475569" /><use href="#g600_t" ns1:href="#g600_t" transform="translate(448.78 688.00) scale(0.00781 -0.00781)" fill="#475569" /><use href="#g600_h" ns1:href="#g600_h" transform="translate(454.46 688.00) scale(0.00781 -0.00781)" fill="#475569" /><use href="#g600_e" ns1:href="#g600_e" transform="translate(464.26 688.00) scale(0.00781 -0.00781)" fill="#475569" /><use href="#g600_f" ns1:href="#g600_f" transform="translate(477.75 688.00) scale(0.00781 -0.00781)" fill="#475569" /><use href="#g600_r" ns1:href="#g600_r" transform="translate(483.97 688.00) scale(0.00781 -0.00781)" fill="#475569" /><use href="#g600_o" ns1:href="#g600_o" transform="translate(489.97 688.00) scale(0.00781 -0.00781)" fill="#475569" /><use href="#g600_n" ns1:href="#g600_n" transform="translate(499.71 688.00) scale(0.00781 -0.00781)" fill="#475569" /><use href="#g600_t" ns1:href="#g600_t" transform="translate(509.50 688.00) scale(0.00781 -0.00781)" fill="#475569" /><use href="#g600_d" ns1:href="#g600_d" transform="translate(519.18 688.00) scale(0.00781 -0.00781)" fill="#475569" /><use href="#g600_e" ns1:href="#g600_e" transform="translate(529.16 688.00) scale(0.00781 -0.00781)" fill="#475569" /><use href="#g600_s" ns1:href="#g600_s" transform="translate(538.62 688.00) scale(0.00781 -0.00781)" fill="#475569" /><use href="#g600_k" ns1:href="#g600_k" transform="translate(547.41 688.00) scale(0.00781 -0.00781)" fill="#475569" /></g></g></svg>