<svg xmlns:xlink="http://www.w3.org/1999/xlink" xmlns="http://www.w3.org/2000/svg" xmlns:ns1="http://www.w3.org/1999/xlink" viewBox="0 0 1200 800" width="1200" height="800" role="img"><title>Festival food vendor documents</title><desc>Emergent reads Smoke Point BBQ's certificate of insurance, finds it expired June 30, before the July 18 Harbor Lights festival, emails the owner for a renewed copy and holds the booth offer.</desc><defs>
<linearGradient id="bg" x1="0" y1="0" x2="1" y2="1"><stop offset="0" stop-color="#FAFAFA" /><stop offset="1" stop-color="#EEEEF0" /></linearGradient>
<radialGradient id="glowA" cx="0.12" cy="0.08" r="0.55"><stop offset="0" stop-color="#FFFFFF" stop-opacity="0.95" /><stop offset="1" stop-color="#FFFFFF" stop-opacity="0" /></radialGradient>
<radialGradient id="glowB" cx="0.92" cy="0.96" r="0.5"><stop offset="0" stop-color="#FFFFFF" stop-opacity="0.85" /><stop offset="1" stop-color="#FFFFFF" stop-opacity="0" /></radialGradient>
<linearGradient id="gAcc" x1="0" y1="0" x2="1" y2="1"><stop offset="0" stop-color="#C2410C" /><stop offset="1" stop-color="#9A3412" /></linearGradient>
<linearGradient id="gStroke" x1="0" y1="0" x2="1" y2="0"><stop offset="0" stop-color="#FDBA74" /><stop offset="1" stop-color="#FB923C" /></linearGradient>
<pattern id="grid" width="40" height="40" patternUnits="userSpaceOnUse"><path d="M40 0H0V40" fill="none" stroke="#52525B" stroke-opacity="0.07" stroke-width="1" /></pattern>
<radialGradient id="fade" cx="0.5" cy="0.45" r="0.65"><stop offset="0" stop-color="#fff" stop-opacity="1" /><stop offset="1" stop-color="#fff" stop-opacity="0" /></radialGradient>
<mask id="gridMask"><rect width="1200" height="800" fill="url(#fade)" /></mask>
<filter id="e1" x="-10%" y="-10%" width="120%" height="140%"><feDropShadow dx="0" dy="1" stdDeviation="1.2" flood-color="#0F172A" flood-opacity="0.07" /><feDropShadow dx="0" dy="12" stdDeviation="18" flood-color="#18181B" flood-opacity="0.08" /></filter>
<filter id="e2" x="-15%" y="-15%" width="130%" height="160%"><feDropShadow dx="0" dy="2" stdDeviation="3" flood-color="#0F172A" flood-opacity="0.10" /><feDropShadow dx="0" dy="28" stdDeviation="34" flood-color="#18181B" flood-opacity="0.20" /></filter>
<radialGradient id="spot" cx="0.5" cy="0.5" r="0.5"><stop offset="0" stop-color="#71717A" stop-opacity="0.24" /><stop offset="1" stop-color="#71717A" stop-opacity="0" /></radialGradient>
<path id="g600_E" d="M150 0V1490H1118V1265H417V863H1066V641H417V225H1122V0Z" /><path id="g600_m" d="M138 0V1118H382L390 905Q434 1024 520.5 1080.0Q607 1136 707 1136Q921 1136 994 893Q1039 1014 1136.0 1075.0Q1233 1136 1351 1136Q1502 1136 1604.0 1038.0Q1706 940 1706 754V0H1446V714Q1446 818 1389.0 866.0Q1332 914 1252 914Q1157 914 1103.0 855.0Q1049 796 1049 702V0H795V726Q795 811 742.0 862.5Q689 914 606 914Q520 914 459.0 855.5Q398 797 398 685V0Z" /><path id="g600_e" d="M632 -23Q463 -23 341.5 48.0Q220 119 154.5 248.0Q89 377 89 552Q89 724 153.5 854.5Q218 985 336.5 1058.5Q455 1132 615 1132Q751 1132 867.5 1072.5Q984 1013 1055.0 888.5Q1126 764 1126 568V486H348Q353 337 431.5 259.0Q510 181 635 181Q721 181 782.5 218.0Q844 255 870 326L1109 277Q1069 142 943.5 59.5Q818 -23 632 -23ZM349 663H873Q861 783 796.5 855.5Q732 928 616 928Q497 928 427.5 851.5Q358 775 349 663Z" /><path id="g600_r" d="M138 0V1118H390V931H402Q432 1028 507.0 1080.5Q582 1133 678 1133Q728 1133 773 1126V887Q757 891 721.0 895.5Q685 900 650 900Q541 900 469.5 832.5Q398 765 398 658V0Z" /><path id="g600_g" d="M620 -442Q418 -442 296.0 -368.0Q174 -294 132 -183L352 -104Q378 -152 437.5 -198.0Q497 -244 619 -244Q740 -244 813.0 -187.5Q886 -131 886 -11V200H864Q844 160 807.0 117.0Q770 74 708.0 45.5Q646 17 549 17Q421 17 316.5 77.5Q212 138 150.5 259.0Q89 380 89 562Q89 745 150.5 872.5Q212 1000 317.0 1066.0Q422 1132 551 1132Q650 1132 714.0 1099.0Q778 1066 816.0 1019.5Q854 973 874 933H888V1118H1143V-3Q1143 -153 1075.0 -250.0Q1007 -347 889.0 -394.5Q771 -442 620 -442ZM622 222Q749 222 818.0 313.0Q887 404 887 564Q887 723 819.0 820.5Q751 918 622 918Q490 918 422.5 817.0Q355 716 355 564Q355 409 423.0 315.5Q491 222 622 222Z" /><path id="g600_n" d="M398 655V0H138V1118H384L387 895Q487 1132 733 1132Q906 1132 1010.5 1022.0Q1115 912 1115 711V0H855V671Q855 783 797.0 847.0Q739 911 637 911Q533 911 465.5 844.0Q398 777 398 655Z" /><path id="g600_t" d="M655 1118V914H439V315Q439 254 464.5 225.5Q490 197 550 197Q568 197 597.0 201.5Q626 206 645 210L686 9Q643 -4 598.0 -9.5Q553 -15 512 -15Q351 -15 265.0 65.0Q179 145 179 293V914H20V1118H179V1384H439V1118Z" /><path id="g600_p" d="M138 -418V1118H392V933H409Q428 972 465.0 1018.5Q502 1065 566.0 1098.5Q630 1132 729 1132Q858 1132 962.5 1066.0Q1067 1000 1128.5 871.5Q1190 743 1190 557Q1190 373 1129.5 244.0Q1069 115 965.0 47.5Q861 -20 728 -20Q632 -20 568.5 12.5Q505 45 467.0 91.0Q429 137 409 177H398V-418ZM658 194Q788 194 855.5 297.5Q923 401 923 558Q923 714 856.5 816.0Q790 918 658 918Q529 918 461.0 819.5Q393 721 393 558Q393 395 462.0 294.5Q531 194 658 194Z" /><path id="g600_o" d="M623 -23Q460 -23 340.0 49.5Q220 122 154.5 251.5Q89 381 89 553Q89 727 154.5 857.5Q220 988 340.0 1060.0Q460 1132 623 1132Q786 1132 906.0 1060.0Q1026 988 1092.0 857.5Q1158 727 1158 553Q1158 381 1092.0 251.5Q1026 122 906.0 49.5Q786 -23 623 -23ZM623 188Q714 188 774.0 237.0Q834 286 864.0 369.0Q894 452 894 554Q894 657 864.0 740.0Q834 823 774.0 872.0Q714 921 623 921Q533 921 473.0 872.0Q413 823 383.5 740.0Q354 657 354 554Q354 452 383.5 369.0Q413 286 473.0 237.0Q533 188 623 188Z" /><path id="g500_quotedblleft" d="M162 905 327 1490H487L399 905ZM564 905 729 1490H889L801 905Z" /><path id="g500_R" d="M165 0V1490H699Q871 1490 986.0 1430.0Q1101 1370 1158.0 1264.5Q1215 1159 1215 1022Q1215 872 1147.0 762.5Q1079 653 943 602L1271 0H1012L710 563Q704 563 697 563H393V0ZM393 758H675Q839 758 911.5 827.5Q984 897 984 1022Q984 1148 911.0 1221.5Q838 1295 673 1295H393Z" /><path id="g500_e" d="M630 -23Q465 -23 345.0 48.0Q225 119 160.5 248.0Q96 377 96 551Q96 723 159.5 854.0Q223 985 339.0 1058.5Q455 1132 611 1132Q738 1132 852.5 1075.5Q967 1019 1038.5 895.5Q1110 772 1110 570V492H317Q323 330 409.0 244.5Q495 159 632 159Q724 159 790.5 199.0Q857 239 886 317L1093 268Q1053 137 931.0 57.0Q809 -23 630 -23ZM318 656H892Q880 788 809.5 869.0Q739 950 612 950Q480 950 403.5 863.5Q327 777 318 656Z" /><path id="g500_a" d="M461 -25Q354 -25 268.5 14.5Q183 54 133.0 130.0Q83 206 83 316Q83 411 120.0 472.5Q157 534 219.0 569.5Q281 605 357.5 623.0Q434 641 513 650Q661 667 728.0 679.5Q795 692 795 751V757Q795 850 740.5 901.5Q686 953 581 953Q471 953 408.0 905.0Q345 857 322 800L115 854Q153 954 224.0 1015.0Q295 1076 386.5 1104.0Q478 1132 578 1132Q645 1132 721.0 1116.0Q797 1100 864.0 1058.5Q931 1017 973.0 940.0Q1015 863 1015 742V0H802V153H791Q758 87 677.5 31.0Q597 -25 461 -25ZM510 152Q599 152 663.0 187.5Q727 223 761.5 280.0Q796 337 796 403V546Q780 530 727.5 518.5Q675 507 617.0 499.0Q559 491 525 487Q432 474 365.5 436.5Q299 399 299 313Q299 233 358.5 192.5Q418 152 510 152Z" /><path id="g500_d" d="M564 -22Q428 -22 322.5 47.0Q217 116 156.5 246.0Q96 376 96 556Q96 738 157.0 867.0Q218 996 323.5 1064.0Q429 1132 564 1132Q668 1132 732.0 1097.5Q796 1063 831.5 1016.5Q867 970 886 936H898V1490H1118V0H904V175H886Q866 139 829.5 93.0Q793 47 729.0 12.5Q665 -22 564 -22ZM612 165Q752 165 827.0 274.0Q902 383 902 558Q902 732 828.0 838.5Q754 945 612 945Q515 945 450.5 894.0Q386 843 353.5 755.5Q321 668 321 558Q321 447 354.0 358.0Q387 269 452.0 217.0Q517 165 612 165Z" /><path id="g500_c" d="M618 -23Q460 -23 343.0 49.0Q226 121 161.0 250.5Q96 380 96 553Q96 727 161.0 857.5Q226 988 343.0 1060.0Q460 1132 618 1132Q792 1132 918.5 1044.5Q1045 957 1086 802L877 752Q854 839 787.5 892.5Q721 946 619 946Q518 946 451.5 893.0Q385 840 352.5 750.5Q320 661 320 553Q320 446 352.5 357.5Q385 269 451.5 216.0Q518 163 619 163Q723 163 791.0 218.5Q859 274 881 365L1089 315Q1048 157 921.0 67.0Q794 -23 618 -23Z" /><path id="g500_h" d="M368 662V0H148V1490H366V917Q419 1028 504.0 1080.0Q589 1132 704 1132Q875 1132 980.0 1024.5Q1085 917 1085 710V0H864V683Q864 804 801.0 872.0Q738 940 628 940Q516 940 442.0 867.5Q368 795 368 662Z" /><path id="g500_f" d="M702 1118V939H452V0H232V939H20V1118H232V1246Q232 1350 278.5 1420.0Q325 1490 400.5 1525.0Q476 1560 565 1560Q631 1560 678.5 1549.5Q726 1539 749 1530L698 1352Q682 1356 658.0 1362.0Q634 1368 600 1368Q521 1368 486.5 1329.0Q452 1290 452 1216V1118Z" /><path id="g500_o" d="M618 -23Q461 -23 343.5 49.0Q226 121 161.0 250.5Q96 380 96 553Q96 727 161.0 857.5Q226 988 343.5 1060.0Q461 1132 618 1132Q776 1132 893.5 1060.0Q1011 988 1076.0 857.5Q1141 727 1141 553Q1141 380 1076.0 250.5Q1011 121 893.5 49.0Q776 -23 618 -23ZM618 163Q720 163 786.5 216.5Q853 270 885.5 358.5Q918 447 918 553Q918 660 885.5 749.5Q853 839 786.5 892.5Q720 946 618 946Q517 946 451.0 892.5Q385 839 352.5 749.5Q320 660 320 553Q320 447 352.5 358.5Q385 270 451.0 216.5Q517 163 618 163Z" /><path id="g500_t" d="M626 1118V939H403V302Q403 235 431.5 203.5Q460 172 525 172Q543 172 570.5 176.0Q598 180 618 184L657 8Q622 -4 581.5 -9.5Q541 -15 503 -15Q351 -15 267.0 63.5Q183 142 183 284V939H20V1118H183V1384H403V1118Z" /><path id="g500_r" d="M148 0V1118H361V938H373Q403 1029 480.5 1081.5Q558 1134 656 1134Q677 1134 704.5 1132.0Q732 1130 749 1128V918Q737 921 703.0 925.5Q669 930 634 930Q519 930 443.5 859.5Q368 789 368 679V0Z" /><path id="g500_u" d="M529 -14Q358 -14 253.0 93.5Q148 201 148 408V1118H368V435Q368 314 431.5 246.0Q495 178 604 178Q716 178 790.0 250.5Q864 323 864 456V1118H1085V0H874L873 217Q820 95 732.5 40.5Q645 -14 529 -14Z" /><path id="g500_k" d="M148 0V1490H368V646H388L829 1118H1093L643 636L1124 0H852L475 501L368 394V0Z" /><path id="g500_quotesingle" d="M232 905 207 1490H433L408 905Z" /><path id="g500_s" d="M549 -23Q367 -23 247.5 55.5Q128 134 98 283L305 326Q350 155 551 155Q658 155 720.5 199.5Q783 244 783 306Q783 412 626 447L438 490Q130 559 130 799Q130 899 185.5 974.0Q241 1049 338.5 1090.5Q436 1132 563 1132Q744 1132 847.0 1054.5Q950 977 986 853L789 810Q768 869 716.0 913.5Q664 958 565 958Q474 958 413.0 917.0Q352 876 352 813Q352 757 392.5 722.5Q433 688 525 667L705 627Q1010 558 1010 325Q1010 223 951.5 144.5Q893 66 789.0 21.5Q685 -23 549 -23Z" /><path id="g500_i" d="M148 0V1118H368V0ZM259 1289Q202 1289 161.5 1327.0Q121 1365 121 1419Q121 1474 161.5 1512.0Q202 1550 259 1550Q316 1550 357.0 1512.0Q398 1474 398 1419Q398 1365 357.0 1327.0Q316 1289 259 1289Z" /><path id="g500_n" d="M368 662V0H148V1118H358L359 903Q411 1021 498.5 1076.5Q586 1132 704 1132Q875 1132 979.5 1024.5Q1084 917 1084 710V0H864V683Q864 804 801.0 872.0Q738 940 628 940Q516 940 442.0 867.5Q368 795 368 662Z" /><path id="g500_l" d="M368 1490V0H148V1490Z" /><path id="g500_g" d="M616 -442Q422 -442 305.0 -371.0Q188 -300 141 -199L325 -112Q345 -144 378.5 -179.5Q412 -215 468.5 -240.0Q525 -265 615 -265Q742 -265 822.0 -204.5Q902 -144 902 -15V203H883Q863 166 827.5 123.0Q792 80 728.5 48.5Q665 17 563 17Q431 17 325.5 79.0Q220 141 158.0 262.5Q96 384 96 563Q96 741 157.5 868.5Q219 996 325.0 1064.0Q431 1132 566 1132Q669 1132 733.5 1097.5Q798 1063 834.5 1017.0Q871 971 890 936H906V1118H1121V-16Q1121 -163 1054.0 -257.0Q987 -351 873.0 -396.5Q759 -442 616 -442ZM614 200Q754 200 828.5 297.0Q903 394 903 566Q903 734 829.5 839.5Q756 945 614 945Q517 945 451.5 894.5Q386 844 353.5 758.5Q321 673 321 566Q321 402 395.5 301.0Q470 200 614 200Z" /><path id="g500_y" d="M133 -402 187 -223 212 -229Q297 -252 356.5 -223.5Q416 -195 447 -87L471 -5L46 1118H284L505 483Q530 409 549.0 337.0Q568 265 586 193Q605 265 625.0 337.5Q645 410 671 483L896 1118H1132L646 -155Q595 -289 508.5 -357.5Q422 -426 287 -426Q235 -426 194.5 -418.5Q154 -411 133 -402Z" /><path id="g500_p" d="M148 -418V1118H362V936H380Q399 970 434.5 1016.5Q470 1063 534.0 1097.5Q598 1132 703 1132Q837 1132 942.5 1064.0Q1048 996 1109.0 867.0Q1170 738 1170 556Q1170 376 1110.0 246.0Q1050 116 944.5 47.0Q839 -22 703 -22Q601 -22 537.0 12.5Q473 47 436.5 93.0Q400 139 380 175H368V-418ZM654 165Q750 165 814.5 217.0Q879 269 912.0 358.0Q945 447 945 558Q945 668 912.5 755.5Q880 843 815.5 894.0Q751 945 654 945Q512 945 438.0 838.5Q364 732 364 558Q364 383 439.0 274.0Q514 165 654 165Z" /><path id="g500_b" d="M703 -22Q601 -22 537.0 12.5Q473 47 436.5 93.0Q400 139 380 175H362V0H148V1490H368V936H380Q399 970 434.5 1016.5Q470 1063 534.0 1097.5Q598 1132 703 1132Q837 1132 942.5 1064.0Q1048 996 1109.0 867.0Q1170 738 1170 556Q1170 376 1110.0 246.0Q1050 116 944.5 47.0Q839 -22 703 -22ZM654 165Q750 165 814.5 217.0Q879 269 912.0 358.0Q945 447 945 558Q945 668 912.5 755.5Q880 843 815.5 894.0Q751 945 654 945Q512 945 438.0 838.5Q364 732 364 558Q364 383 439.0 274.0Q514 165 654 165Z" /><path id="g500_J" d="M552 -20Q343 -20 216.0 97.5Q89 215 89 433V516H318V432Q318 305 382.0 239.0Q446 173 552 173Q658 173 722.0 239.0Q786 305 786 432V1490H1013V434Q1013 215 887.0 97.5Q761 -20 552 -20Z" /><path id="g500_one" d="M685 1490V0H459V1283H449L95 1025V1254L421 1490Z" /><path id="g500_eight" d="M644 -20Q487 -20 367.5 34.0Q248 88 180.5 182.0Q113 276 113 397Q113 491 152.0 571.0Q191 651 259.5 704.5Q328 758 414 773V781Q301 808 234.0 900.5Q167 993 167 1113Q167 1227 228.5 1316.5Q290 1406 398.0 1458.0Q506 1510 644 1510Q781 1510 888.5 1458.0Q996 1406 1058.5 1316.5Q1121 1227 1121 1113Q1121 993 1053.0 900.5Q985 808 876 781V773Q959 758 1027.5 704.5Q1096 651 1136.5 571.0Q1177 491 1177 397Q1177 276 1108.5 182.0Q1040 88 920.0 34.0Q800 -20 644 -20ZM644 165Q781 165 862.5 233.0Q944 301 944 412Q944 527 858.5 601.5Q773 676 644 676Q513 676 428.0 602.0Q343 528 343 412Q343 301 424.0 233.0Q505 165 644 165ZM644 857Q754 857 826.5 922.0Q899 987 899 1092Q899 1197 828.0 1260.0Q757 1323 644 1323Q529 1323 459.0 1260.0Q389 1197 389 1092Q389 987 460.0 922.0Q531 857 644 857Z" /><path id="g500_quotedblright" d="M162 905 250 1490H487L322 905ZM558 905 646 1490H883L718 905Z" /><path id="g800_S" d="M691 -20Q411 -20 243.5 107.0Q76 234 72 492H411Q417 383 491.5 328.0Q566 273 687 273Q797 273 860.0 317.5Q923 362 923 433Q923 497 863.5 534.5Q804 572 682 600L524 637Q331 681 221.0 781.0Q111 881 111 1049Q111 1187 185.5 1290.5Q260 1394 391.0 1452.0Q522 1510 691 1510Q864 1510 991.0 1451.5Q1118 1393 1188.0 1288.5Q1258 1184 1260 1046H921Q914 1127 855.0 1172.0Q796 1217 690 1217Q584 1217 530.0 1176.0Q476 1135 476 1073Q476 1004 536.0 966.5Q596 929 696 907L825 877Q1041 829 1160.5 720.0Q1280 611 1280 432Q1280 220 1124.0 100.0Q968 -20 691 -20Z" /><path id="g800_P" d="M116 0V1490H726Q894 1490 1016.0 1425.0Q1138 1360 1203.5 1244.0Q1269 1128 1269 975Q1269 821 1202.0 706.5Q1135 592 1011.0 528.5Q887 465 716 465H469V0ZM469 744H652Q776 744 839.5 807.5Q903 871 903 975Q903 1080 839.0 1142.0Q775 1204 651 1204H469Z" /><path id="g700_S" d="M681 -22Q412 -22 251.5 101.5Q91 225 85 462H382Q390 349 472.5 292.5Q555 236 678 236Q800 236 874.5 288.5Q949 341 949 426Q949 503 881.5 544.0Q814 585 692 615L528 656Q339 702 232.0 800.5Q125 899 125 1061Q125 1196 197.5 1297.0Q270 1398 396.5 1454.0Q523 1510 685 1510Q850 1510 973.0 1453.5Q1096 1397 1165.0 1296.5Q1234 1196 1236 1065H941Q933 1155 864.5 1204.0Q796 1253 682 1253Q565 1253 501.5 1204.5Q438 1156 438 1081Q438 998 509.5 957.0Q581 916 676 893L811 860Q936 831 1037.0 776.5Q1138 722 1197.0 635.5Q1256 549 1256 424Q1256 221 1104.5 99.5Q953 -22 681 -22Z" /><path id="g700_m" d="M128 0V1118H406L418 901Q463 1023 550.0 1079.0Q637 1135 737 1135Q949 1135 1025 884Q1072 1013 1170.5 1074.0Q1269 1135 1384 1135Q1538 1135 1639.5 1035.5Q1741 936 1741 754V0H1441V697Q1441 791 1389.5 837.5Q1338 884 1263 884Q1178 884 1128.5 830.0Q1079 776 1079 688V0H789V705Q789 787 740.5 835.5Q692 884 615 884Q536 884 482.0 830.5Q428 777 428 676V0Z" /><path id="g700_o" d="M628 -22Q460 -22 337.0 50.5Q214 123 147.5 252.5Q81 382 81 554Q81 727 147.5 857.0Q214 987 337.0 1059.5Q460 1132 628 1132Q796 1132 919.0 1059.5Q1042 987 1108.5 857.0Q1175 727 1175 554Q1175 382 1108.5 252.5Q1042 123 919.0 50.5Q796 -22 628 -22ZM628 214Q748 214 809.0 311.0Q870 408 870 555Q870 703 809.0 799.5Q748 896 628 896Q508 896 447.5 799.5Q387 703 387 555Q387 408 447.5 311.0Q508 214 628 214Z" /><path id="g700_k" d="M128 0V1490H428V688H445L811 1118H1158L740 633L1179 0H826L514 456L428 359V0Z" /><path id="g700_e" d="M633 -22Q462 -22 338.0 48.0Q214 118 147.5 247.0Q81 376 81 553Q81 726 147.5 856.0Q214 986 334.5 1059.0Q455 1132 618 1132Q764 1132 883.0 1070.0Q1002 1008 1072.5 882.0Q1143 756 1143 565V481H378Q383 344 454.0 274.0Q525 204 638 204Q717 204 773.5 237.5Q830 271 854 336L1126 285Q1085 146 956.5 62.0Q828 -22 633 -22ZM380 669H854Q843 778 784.0 842.0Q725 906 621 906Q513 906 451.0 839.5Q389 773 380 669Z" /><path id="g700_P" d="M135 0V1490H716Q886 1490 1005.0 1425.5Q1124 1361 1186.5 1247.5Q1249 1134 1249 987Q1249 839 1185.5 726.5Q1122 614 1001.0 550.5Q880 487 709 487H440V0ZM440 733H660Q800 733 867.0 804.0Q934 875 934 987Q934 1100 867.0 1169.0Q800 1238 659 1238H440Z" /><path id="g700_i" d="M128 0V1118H428V0ZM278 1264Q210 1264 162.0 1309.0Q114 1354 114 1418Q114 1482 162.0 1527.0Q210 1572 278 1572Q346 1572 394.5 1527.0Q443 1482 443 1418Q443 1354 394.5 1309.0Q346 1264 278 1264Z" /><path id="g700_n" d="M428 647V0H128V1118H411L415 887Q462 1004 548.0 1068.0Q634 1132 763 1132Q937 1132 1042.0 1020.0Q1147 908 1147 711V0H847V659Q847 763 793.5 822.0Q740 881 645 881Q549 881 488.5 819.5Q428 758 428 647Z" /><path id="g700_t" d="M683 1118V889H474V327Q474 223 576 223Q593 223 623.5 227.5Q654 232 671 236L714 11Q664 -4 614.5 -10.0Q565 -16 520 -16Q352 -16 263.0 65.5Q174 147 174 301V889H20V1118H174V1384H474V1118Z" /><path id="g700_B" d="M135 0V1490H726Q971 1490 1094.5 1382.0Q1218 1274 1218 1107Q1218 975 1141.5 894.0Q1065 813 950 787V772Q1034 768 1108.5 724.0Q1183 680 1229.5 600.5Q1276 521 1276 411Q1276 293 1218.0 200.0Q1160 107 1046.0 53.5Q932 0 764 0ZM440 251H704Q839 251 900.5 303.0Q962 355 962 440Q962 533 894.5 594.0Q827 655 712 655H440ZM440 864H681Q779 864 844.0 916.0Q909 968 909 1058Q909 1139 851.5 1190.0Q794 1241 687 1241H440Z" /><path id="g700_Q" d="M789 -20Q592 -20 434.5 70.0Q277 160 185.5 331.0Q94 502 94 744Q94 987 185.5 1158.5Q277 1330 434.5 1420.0Q592 1510 789 1510Q987 1510 1144.0 1420.0Q1301 1330 1392.5 1158.5Q1484 987 1484 744Q1484 546 1421.5 395.5Q1359 245 1251 147L1466 -124H1181L1058 29Q934 -20 789 -20ZM695 512H956L1064 373Q1117 435 1145.5 528.5Q1174 622 1174 744Q1174 985 1068.5 1112.0Q963 1239 789 1239Q616 1239 510.0 1111.5Q404 984 404 744Q404 505 510.0 378.0Q616 251 789 251Q840 251 885 262Z" /><path id="g500_C" d="M784 -20Q590 -20 438.5 72.0Q287 164 200.0 335.0Q113 506 113 744Q113 983 200.5 1154.5Q288 1326 439.5 1418.0Q591 1510 784 1510Q941 1510 1071.0 1450.5Q1201 1391 1287.0 1278.5Q1373 1166 1398 1008H1169Q1141 1150 1033.5 1226.0Q926 1302 786 1302Q658 1302 557.0 1237.5Q456 1173 397.5 1048.5Q339 924 339 744Q339 563 397.5 439.0Q456 315 557.0 251.5Q658 188 786 188Q926 188 1033.5 264.5Q1141 341 1169 483H1399Q1376 335 1292.5 222.0Q1209 109 1078.5 44.5Q948 -20 784 -20Z" /><path id="g700_C" d="M786 -20Q587 -20 431.0 70.0Q275 160 184.5 331.0Q94 502 94 744Q94 987 185.0 1158.5Q276 1330 433.0 1420.0Q590 1510 786 1510Q955 1510 1092.0 1447.5Q1229 1385 1317.0 1266.5Q1405 1148 1427 981H1118Q1097 1102 1008.5 1170.5Q920 1239 792 1239Q618 1239 511.0 1110.0Q404 981 404 744Q404 502 511.5 376.5Q619 251 791 251Q918 251 1007.5 319.5Q1097 388 1119 510H1428Q1411 371 1330.0 250.5Q1249 130 1111.5 55.0Q974 -20 786 -20Z" /><path id="g700_O" d="M789 -20Q592 -20 434.5 70.0Q277 160 185.5 331.0Q94 502 94 744Q94 987 185.5 1158.5Q277 1330 434.5 1420.0Q592 1510 789 1510Q987 1510 1144.0 1420.0Q1301 1330 1392.5 1158.5Q1484 987 1484 744Q1484 501 1392.5 330.5Q1301 160 1144.0 70.0Q987 -20 789 -20ZM789 251Q963 251 1068.5 377.5Q1174 504 1174 744Q1174 985 1068.5 1112.0Q963 1239 789 1239Q616 1239 510.0 1111.5Q404 984 404 744Q404 505 510.0 378.0Q616 251 789 251Z" /><path id="g700_I" d="M440 1490V0H135V1490Z" /><path id="g500_I" d="M393 1490V0H165V1490Z" /><path id="g500_v" d="M468 0 46 1118H284L505 483Q531 409 551.0 335.5Q571 262 590 188Q608 261 628.0 335.0Q648 409 673 483L894 1118H1130L708 0Z" /><path id="g700_G" d="M795 -20Q586 -20 428.0 72.5Q270 165 182.0 336.0Q94 507 94 743Q94 984 185.5 1156.0Q277 1328 434.5 1419.0Q592 1510 788 1510Q956 1510 1092.0 1446.0Q1228 1382 1315.0 1269.5Q1402 1157 1423 1010H1113Q1081 1117 999.0 1178.0Q917 1239 793 1239Q621 1239 512.5 1111.0Q404 983 404 746Q404 509 511.0 380.0Q618 251 797 251Q956 251 1047.0 335.0Q1138 419 1142 562H818V794H1438V608Q1438 412 1355.0 271.5Q1272 131 1127.0 55.5Q982 -20 795 -20Z" /><path id="g700_r" d="M128 0V1118H418V923H430Q461 1026 533.5 1079.5Q606 1133 700 1133Q751 1133 797 1123V855Q777 861 738.5 865.5Q700 870 667 870Q563 870 495.5 805.0Q428 740 428 636V0Z" /><path id="g700_a" d="M440 -22Q280 -22 174.0 62.5Q68 147 68 313Q68 438 128.0 509.0Q188 580 284.0 613.0Q380 646 490 656Q634 670 697.5 685.5Q761 701 761 756V761Q761 832 715.5 871.0Q670 910 586 910Q499 910 446.0 872.5Q393 835 375 781L100 827Q143 972 271.5 1052.0Q400 1132 587 1132Q707 1132 815.5 1094.0Q924 1056 992.5 972.5Q1061 889 1061 753V0H777V155H767Q726 77 645.0 27.5Q564 -22 440 -22ZM525 189Q630 189 696.5 250.0Q763 311 763 400V521Q745 508 704.5 498.5Q664 489 619.0 481.5Q574 474 541 470Q458 458 407.0 423.0Q356 388 356 321Q356 256 403.5 222.5Q451 189 525 189Z" /><path id="g700_l" d="M428 1490V0H128V1490Z" /><path id="g700_b" d="M754 -19Q663 -19 600.0 12.0Q537 43 497.5 88.5Q458 134 437 179H423V0H128V1490H428V930H437Q457 974 495.5 1021.0Q534 1068 597.5 1100.0Q661 1132 756 1132Q880 1132 983.0 1068.0Q1086 1004 1147.5 876.0Q1209 748 1209 557Q1209 371 1149.0 242.5Q1089 114 986.0 47.5Q883 -19 754 -19ZM662 222Q779 222 840.5 316.0Q902 410 902 558Q902 705 841.0 798.5Q780 892 662 892Q546 892 483.5 801.0Q421 710 421 558Q421 406 484.0 314.0Q547 222 662 222Z" /><path id="g700_y" d="M120 -396 189 -170 226 -179Q317 -204 375.0 -175.5Q433 -147 443 -63L451 -3L31 1118H350L538 538Q561 465 577.0 392.5Q593 320 609 246Q627 321 646.5 393.5Q666 466 690 538L886 1118H1201L726 -132Q675 -267 579.5 -346.5Q484 -426 316 -426Q256 -426 204.0 -417.5Q152 -409 120 -396Z" /><path id="g500_E" d="M165 0V1490H1103V1294H393V850H1053V655H393V196H1109V0Z" /><path id="g700_J" d="M567 -20Q335 -20 201.5 101.5Q68 223 68 448V535H373V443Q373 336 425.5 281.0Q478 226 567 226Q656 226 708.0 281.0Q760 336 760 444V1490H1062V449Q1062 223 930.0 101.5Q798 -20 567 -20Z" /><path id="g700_u" d="M513 -14Q339 -14 233.5 98.0Q128 210 128 407V1118H428V459Q428 355 482.0 296.0Q536 237 630 237Q726 237 786.5 298.5Q847 360 847 471V1118H1148V0H864L860 232Q813 113 726.5 49.5Q640 -14 513 -14Z" /><path id="g700_one_tf" d="M177 0V247H569V1221H559L218 980V1259L547 1490H874V247H1184V0Z" /><path id="g500_x" d="M57 0 439 574 80 1118H328L454 915Q490 856 519.0 801.5Q548 747 575 696Q602 747 629.5 801.5Q657 856 694 915L823 1118H1067L703 566L1084 0H837L687 238Q652 294 623.5 346.0Q595 398 568 448Q543 398 516.0 346.0Q489 294 454 238L302 0Z" /><path id="g700_three_tf" d="M655 -20Q493 -20 367.5 35.5Q242 91 169.5 190.0Q97 289 95 418H402Q406 334 478.0 283.5Q550 233 656 233Q766 233 836.0 289.5Q906 346 906 437Q906 529 832.0 587.5Q758 646 628 646H490V873H628Q737 873 805.5 928.0Q874 983 874 1073Q874 1159 814.5 1212.5Q755 1266 658 1266Q561 1266 490.5 1215.0Q420 1164 418 1077H124Q126 1204 197.0 1302.0Q268 1400 388.5 1455.0Q509 1510 660 1510Q813 1510 928.0 1454.0Q1043 1398 1106.5 1303.0Q1170 1208 1170 1092Q1170 966 1092.5 882.5Q1015 799 891 775V764Q1054 743 1139.0 649.5Q1224 556 1224 417Q1224 290 1151.0 191.5Q1078 93 949.5 36.5Q821 -20 655 -20Z" /><path id="g700_zero_tf" d="M662 -20Q379 -20 235.5 181.0Q92 382 92 744Q92 1106 236.0 1308.0Q380 1510 662 1510Q943 1510 1087.0 1307.5Q1231 1105 1231 744Q1231 382 1088.0 181.0Q945 -20 662 -20ZM662 233Q929 233 929 744Q929 1258 662 1258Q394 1258 394 744Q394 233 662 233Z" /><path id="g700_H" d="M135 0V1490H440V888H1089V1490H1395V0H1089V635H440V0Z" /><path id="g700_L" d="M135 0V1490H440V253H1083V0Z" /><path id="g700_g" d="M625 -442Q415 -442 287.0 -365.0Q159 -288 122 -168L380 -96Q401 -143 457.5 -183.5Q514 -224 623 -224Q737 -224 803.0 -171.5Q869 -119 869 -8V198H846Q815 130 743.5 73.0Q672 16 536 16Q410 16 307.0 75.0Q204 134 142.5 255.0Q81 376 81 561Q81 750 143.5 877.0Q206 1004 309.5 1068.0Q413 1132 537 1132Q631 1132 695.0 1100.0Q759 1068 798.5 1021.0Q838 974 858 930H871V1118H1166V9Q1166 -142 1096.5 -242.5Q1027 -343 904.5 -392.5Q782 -442 625 -442ZM630 244Q745 244 807.5 328.5Q870 413 870 563Q870 712 808.0 802.0Q746 892 630 892Q512 892 450.5 799.5Q389 707 389 563Q389 416 451.0 330.0Q513 244 630 244Z" /><path id="g700_h" d="M428 647V0H128V1490H422V904Q471 1013 555.0 1072.5Q639 1132 763 1132Q937 1132 1042.5 1020.0Q1148 908 1148 711V0H847V659Q847 763 793.5 822.0Q740 881 645 881Q549 881 488.5 819.5Q428 758 428 647Z" /><path id="g700_s" d="M572 -22Q370 -22 238.5 64.0Q107 150 78 306L357 354Q400 198 581 198Q667 198 716.5 230.5Q766 263 766 313Q766 398 622 428L429 468Q107 534 107 785Q107 946 236.0 1039.0Q365 1132 577 1132Q776 1132 894.0 1051.0Q1012 970 1043 834L777 787Q759 844 711.0 880.5Q663 917 581 917Q507 917 457.0 885.5Q407 854 407 804Q407 762 439.5 732.5Q472 703 551 687L752 647Q1072 582 1072 345Q1072 235 1008.0 152.5Q944 70 831.0 24.0Q718 -22 572 -22Z" /><path id="g700_f" d="M750 1118V889H516V0H217V889H20V1118H217V1204Q217 1382 321.0 1471.0Q425 1560 580 1560Q651 1560 709.0 1549.0Q767 1538 795 1529L741 1303Q723 1308 696.5 1313.0Q670 1318 641 1318Q572 1318 544.0 1285.5Q516 1253 516 1194V1118Z" /><path id="g700_v" d="M443 0 31 1118H350L538 538Q561 463 580.5 387.0Q600 311 618 233Q635 311 653.5 386.5Q672 462 696 538L882 1118H1197L784 0Z" /><path id="g600_one" d="M717 1490V0H452V1252H442L94 1002V1256L421 1490Z" /><path id="g600_f" d="M726 1118V914H484V0H225V914H20V1118H225V1225Q225 1336 272.0 1410.5Q319 1485 397.5 1522.5Q476 1560 572 1560Q641 1560 694.0 1549.0Q747 1538 772 1529L719 1327Q702 1332 677.5 1337.5Q653 1343 620 1343Q547 1343 515.5 1307.0Q484 1271 484 1205V1118Z" /><path id="g600_two" d="M134 0V192L651 701Q760 812 817.0 891.0Q874 970 874 1065Q874 1170 803.5 1231.0Q733 1292 627 1292Q515 1292 448.0 1225.5Q381 1159 381 1044H126Q126 1185 190.5 1290.0Q255 1395 369.0 1452.5Q483 1510 630 1510Q779 1510 892.0 1454.0Q1005 1398 1068.0 1300.5Q1131 1203 1131 1078Q1131 996 1099.5 916.0Q1068 836 988.0 737.0Q908 638 763 498L504 234V223H1153V0Z" /><path id="g600_v" d="M455 0 39 1118H317L521 510Q546 436 565.5 361.0Q585 286 604 210Q622 286 641.0 361.0Q660 436 685 510L888 1118H1164L746 0Z" /><path id="g600_a" d="M450 -23Q344 -23 259.0 15.5Q174 54 125.0 129.0Q76 204 76 314Q76 440 137.5 509.5Q199 579 296.5 610.5Q394 642 502 653Q648 669 713.0 682.5Q778 696 778 754V759Q778 841 728.0 886.5Q678 932 583 932Q485 932 427.0 889.0Q369 846 349 791L108 840Q157 988 285.5 1060.0Q414 1132 582 1132Q661 1132 741.5 1113.5Q822 1095 889.0 1051.5Q956 1008 997.0 933.5Q1038 859 1038 747V0H789V154H779Q742 82 661.0 29.5Q580 -23 450 -23ZM517 170Q637 170 708.5 239.0Q780 308 780 401V533Q762 519 716.0 508.5Q670 498 618.5 490.5Q567 483 533 478Q445 466 386.5 430.0Q328 394 328 317Q328 245 381.0 207.5Q434 170 517 170Z" /><path id="g600_l" d="M398 1490V0H138V1490Z" /><path id="g600_i" d="M138 0V1118H398V0ZM268 1276Q206 1276 161.5 1317.5Q117 1359 117 1419Q117 1478 161.5 1519.5Q206 1561 268 1561Q331 1561 375.5 1519.5Q420 1478 420 1419Q420 1359 375.5 1317.5Q331 1276 268 1276Z" /><path id="g600_d" d="M550 -20Q418 -20 313.5 47.5Q209 115 149.0 244.0Q89 373 89 557Q89 743 150.0 871.5Q211 1000 315.5 1066.0Q420 1132 549 1132Q649 1132 712.5 1098.5Q776 1065 813.0 1018.5Q850 972 870 933H881V1490H1141V0H886V177H870Q849 137 811.0 91.0Q773 45 709.5 12.5Q646 -20 550 -20ZM621 194Q748 194 817.0 294.5Q886 395 886 558Q886 721 817.5 819.5Q749 918 621 918Q489 918 422.0 816.0Q355 714 355 558Q355 401 422.5 297.5Q490 194 621 194Z" /><path id="g500_F" d="M165 0V1490H1092V1294H393V815H1025V620H393V0Z" /><path id="g500_colon" d="M311 -15Q249 -15 206.0 27.5Q163 70 163 132Q163 194 206.0 237.0Q249 280 311 280Q373 280 415.5 237.0Q458 194 458 132Q458 70 415.5 27.5Q373 -15 311 -15ZM311 772Q249 772 206.0 814.5Q163 857 163 919Q163 981 206.0 1024.0Q249 1067 311 1067Q373 1067 415.5 1024.0Q458 981 458 919Q458 857 415.5 814.5Q373 772 311 772Z" /><path id="g700_p" d="M128 -418V1118H423V930H437Q457 974 495.5 1021.0Q534 1068 597.5 1100.0Q661 1132 756 1132Q880 1132 983.0 1068.0Q1086 1004 1147.5 876.0Q1209 748 1209 557Q1209 371 1149.0 242.5Q1089 114 986.0 47.5Q883 -19 754 -19Q663 -19 600.0 12.0Q537 43 497.5 88.5Q458 134 437 179H428V-418ZM662 222Q779 222 840.5 316.0Q902 410 902 558Q902 705 841.0 798.5Q780 892 662 892Q546 892 483.5 801.0Q421 710 421 558Q421 406 484.0 314.0Q547 222 662 222Z" /><path id="g500_comma" d="M125 -371 213 214H450L285 -371Z" /><path id="g500_O" d="M786 -20Q593 -20 440.5 72.0Q288 164 200.5 335.0Q113 506 113 744Q113 983 200.5 1154.5Q288 1326 440.5 1418.0Q593 1510 786 1510Q979 1510 1130.5 1418.0Q1282 1326 1369.5 1154.5Q1457 983 1457 744Q1457 506 1369.5 334.5Q1282 163 1130.5 71.5Q979 -20 786 -20ZM786 188Q913 188 1013.5 252.0Q1114 316 1172.5 440.0Q1231 564 1231 744Q1231 925 1172.5 1049.5Q1114 1174 1013.5 1238.0Q913 1302 786 1302Q658 1302 557.0 1238.0Q456 1174 397.5 1049.5Q339 925 339 744Q339 564 397.5 440.0Q456 316 557.0 252.0Q658 188 786 188Z" /><path id="g500_three" d="M643 -20Q492 -20 374.5 32.0Q257 84 188.5 176.0Q120 268 116 390H347Q353 291 437.0 233.5Q521 176 641 176Q771 176 855.5 242.5Q940 309 940 417Q940 528 855.0 598.5Q770 669 617 669H490V855H617Q740 855 817.5 919.5Q895 984 895 1091Q895 1194 827.0 1256.5Q759 1319 645 1319Q537 1319 454.0 1261.5Q371 1204 367 1102H147Q151 1223 218.5 1315.0Q286 1407 398.5 1458.5Q511 1510 649 1510Q792 1510 897.5 1454.0Q1003 1398 1060.0 1305.5Q1117 1213 1117 1104Q1117 978 1047.0 891.5Q977 805 860 774V763Q1009 740 1090.0 644.5Q1171 549 1171 409Q1171 285 1102.5 188.0Q1034 91 915.0 35.5Q796 -20 643 -20Z" /><path id="g600_V" d="M581 0 50 1490H343L607 716Q639 617 674.5 492.0Q710 367 752 213Q831 519 893 716L1149 1490H1441L919 0Z" /><path id="g700_c" d="M628 -22Q459 -22 336.5 50.5Q214 123 147.5 252.5Q81 382 81 554Q81 727 147.5 857.0Q214 987 336.5 1059.5Q459 1132 628 1132Q827 1132 960.0 1032.5Q1093 933 1125 760L846 708Q827 795 772.5 845.5Q718 896 631 896Q511 896 449.0 801.5Q387 707 387 555Q387 405 449.0 309.5Q511 214 631 214Q718 214 774.0 266.5Q830 319 848 409L1127 358Q1095 181 962.0 79.5Q829 -22 628 -22Z" /><path id="g500_zero" d="M661 -20Q401 -20 257.0 180.0Q113 380 113 744Q113 1106 257.5 1308.0Q402 1510 661 1510Q920 1510 1064.5 1308.0Q1209 1106 1209 744Q1209 381 1065.5 180.5Q922 -20 661 -20ZM661 175Q816 175 899.5 324.0Q983 473 983 744Q983 1016 899.5 1166.0Q816 1316 661 1316Q506 1316 422.0 1165.5Q338 1015 338 744Q338 473 422.0 324.0Q506 175 661 175Z" /><path id="g600_x" d="M50 0 420 574 72 1118H358L472 928Q505 871 532.5 816.5Q560 762 586 710Q612 762 639.0 817.0Q666 872 700 928L818 1118H1098L744 568L1115 0H831L693 224Q660 279 632.5 332.5Q605 386 579 437Q554 386 528.0 332.5Q502 279 469 224L331 0Z" /><path id="g600_M" d="M150 0V1490H552L835 721Q850 677 869.5 606.5Q889 536 909.0 455.5Q929 375 946 301Q963 374 983.0 454.5Q1003 535 1022.5 605.5Q1042 676 1056 721L1336 1490H1739V0H1473V752Q1473 808 1474.5 890.5Q1476 973 1478.5 1066.0Q1481 1159 1482 1248Q1457 1152 1429.0 1057.0Q1401 962 1376.0 882.0Q1351 802 1333 752L1058 0H831L552 752Q534 800 509.5 878.0Q485 956 457.5 1050.0Q430 1144 402 1240Q404 1156 406.5 1064.5Q409 973 410.5 891.0Q412 809 412 752V0Z" /><path id="g600_u" d="M521 -14Q348 -14 243.0 96.0Q138 206 138 407V1118H398V447Q398 335 456.5 271.0Q515 207 617 207Q721 207 788.0 274.0Q855 341 855 463V1118H1116V0H869L867 224Q767 -14 521 -14Z" /><path id="g600_c" d="M623 -23Q460 -23 340.0 49.5Q220 122 154.5 251.5Q89 381 89 553Q89 727 154.5 857.5Q220 988 340.0 1060.0Q460 1132 623 1132Q810 1132 939.5 1038.5Q1069 945 1105 781L862 730Q841 817 780.0 869.0Q719 921 625 921Q489 921 421.5 816.0Q354 711 354 554Q354 451 384.0 368.0Q414 285 474.0 236.5Q534 188 625 188Q721 188 782.5 242.5Q844 297 865 387L1108 336Q1072 169 942.0 73.0Q812 -23 623 -23Z" /><path id="g600_colon" d="M326 -17Q259 -17 212.5 29.0Q166 75 166 143Q166 210 212.5 256.0Q259 302 326 302Q394 302 440.5 256.0Q487 210 487 143Q487 75 440.5 29.0Q394 -17 326 -17ZM326 747Q259 747 212.5 793.0Q166 839 166 907Q166 974 212.5 1020.0Q259 1066 326 1066Q394 1066 440.5 1020.0Q487 974 487 907Q487 839 440.5 793.0Q394 747 326 747Z" /><path id="g600_b" d="M728 -20Q632 -20 568.5 12.5Q505 45 467.0 91.0Q429 137 409 177H392V0H138V1490H398V933H409Q428 972 465.0 1018.5Q502 1065 566.0 1098.5Q630 1132 729 1132Q858 1132 962.5 1066.0Q1067 1000 1128.5 871.5Q1190 743 1190 557Q1190 373 1129.5 244.0Q1069 115 965.0 47.5Q861 -20 728 -20ZM658 194Q788 194 855.5 297.5Q923 401 923 558Q923 714 856.5 816.0Q790 918 658 918Q529 918 461.0 819.5Q393 721 393 558Q393 395 462.0 294.5Q531 194 658 194Z" /><path id="g600_s" d="M561 -23Q368 -23 242.5 59.5Q117 142 88 294L331 340Q375 176 566 176Q662 176 718.5 214.5Q775 253 775 310Q775 405 624 438L433 479Q119 547 119 792Q119 896 176.0 972.0Q233 1048 334.5 1090.0Q436 1132 570 1132Q760 1132 870.5 1053.0Q981 974 1015 844L783 798Q763 856 713.0 897.0Q663 938 573 938Q491 938 435.0 901.5Q379 865 379 808Q379 759 415.5 727.5Q452 696 538 677L728 637Q1041 570 1041 335Q1041 229 980.0 148.5Q919 68 810.5 22.5Q702 -23 561 -23Z" /><path id="g600_k" d="M138 0V1490H398V667H417L820 1118H1125L692 635L1151 0H839L494 479L398 376V0Z" /><path id="g600_comma" d="M123 -383 211 220H479L305 -383Z" /><path id="g700_R" d="M135 0V1490H716Q970 1490 1109.5 1357.5Q1249 1225 1249 1005Q1249 852 1181.0 743.5Q1113 635 985 581L1302 0H964L680 532H440V0ZM440 779H660Q934 779 934 1005Q934 1118 866.5 1178.0Q799 1238 659 1238H440Z" /><path id="g700_w" d="M361 0 31 1118H346L443 705Q463 612 487.0 505.0Q511 398 534 273Q557 395 582.5 502.5Q608 610 631 705L733 1118H1009L1109 705Q1130 610 1155.5 503.0Q1181 396 1205 272Q1226 396 1249.0 503.0Q1272 610 1294 705L1391 1118H1710L1378 0H1073L949 431Q928 503 908.5 593.0Q889 683 869 771Q850 683 830.0 592.5Q810 502 790 431L666 0Z" /><path id="g700_d" d="M537 -19Q408 -19 305.0 47.5Q202 114 141.5 242.5Q81 371 81 557Q81 748 143.0 876.0Q205 1004 308.0 1068.0Q411 1132 535 1132Q630 1132 693.0 1100.0Q756 1068 794.5 1021.0Q833 974 853 930H863V1490H1163V0H868V179H853Q832 134 793.0 88.5Q754 43 691.0 12.0Q628 -19 537 -19ZM629 222Q743 222 806.0 314.0Q869 406 869 558Q869 710 806.5 801.0Q744 892 629 892Q511 892 450.0 798.5Q389 705 389 558Q389 410 450.5 316.0Q512 222 629 222Z" /><path id="g700_q" d="M1163 -418H863V179H853Q832 134 793.0 88.5Q754 43 691.0 12.0Q628 -19 537 -19Q408 -19 305.0 47.5Q202 114 141.5 242.5Q81 371 81 557Q81 748 143.0 876.0Q205 1004 308.0 1068.0Q411 1132 535 1132Q630 1132 693.0 1100.0Q756 1068 794.5 1021.0Q833 974 853 930H868V1118H1163ZM629 222Q743 222 806.0 314.0Q869 406 869 558Q869 710 806.5 801.0Q744 892 629 892Q511 892 450.0 798.5Q389 705 389 558Q389 410 450.5 316.0Q512 222 629 222Z" /><path id="g500_S" d="M665 -25Q414 -25 265.0 92.5Q116 210 106 414H335Q345 292 440.0 233.5Q535 175 664 175Q806 175 899.0 241.0Q992 307 992 415Q992 512 910.5 559.5Q829 607 709 639L535 687Q352 736 249.5 832.0Q147 928 147 1081Q147 1210 216.5 1306.5Q286 1403 405.5 1456.5Q525 1510 675 1510Q828 1510 944.5 1456.5Q1061 1403 1127.5 1309.5Q1194 1216 1197 1098H975Q964 1200 880.5 1256.0Q797 1312 670 1312Q535 1312 455.0 1250.5Q375 1189 375 1094Q375 1023 418.0 979.5Q461 936 523.5 910.5Q586 885 643 870L788 832Q859 814 934.5 783.5Q1010 753 1074.0 704.5Q1138 656 1177.5 584.5Q1217 513 1217 412Q1217 286 1152.0 187.0Q1087 88 963.5 31.5Q840 -25 665 -25Z" /><path id="g500_m" d="M148 0V1118H357L362 909Q405 1025 491.0 1081.0Q577 1137 677 1137Q786 1137 858.0 1075.0Q930 1013 963 902Q1005 1015 1101.5 1076.0Q1198 1137 1317 1137Q1416 1137 1496.0 1094.0Q1576 1051 1623.5 966.0Q1671 881 1671 754V0H1451V732Q1451 844 1388.5 894.0Q1326 944 1241 944Q1137 944 1077.5 880.0Q1018 816 1018 716V0H801V746Q801 836 743.5 890.0Q686 944 597 944Q505 944 436.5 880.5Q368 817 368 695V0Z" /><path id="g500_P" d="M165 0V1490H699Q871 1490 986.0 1426.5Q1101 1363 1158.0 1253.5Q1215 1144 1215 1006Q1215 868 1157.5 758.5Q1100 649 985.0 585.5Q870 522 697 522H393V0ZM393 715H675Q839 715 911.5 797.5Q984 880 984 1006Q984 1132 911.5 1213.5Q839 1295 673 1295H393Z" /><path id="g500_B" d="M165 0V1490H714Q872 1490 976.0 1438.0Q1080 1386 1131.5 1297.5Q1183 1209 1183 1099Q1183 959 1109.0 884.5Q1035 810 931 784V769Q1006 765 1077.0 721.5Q1148 678 1194.5 597.0Q1241 516 1241 402Q1241 287 1187.5 196.0Q1134 105 1022.5 52.5Q911 0 738 0ZM393 196H715Q876 196 945.5 258.0Q1015 320 1015 413Q1015 518 936.5 593.5Q858 669 724 669H393ZM393 845H692Q805 845 882.0 909.0Q959 973 959 1080Q959 1172 894.5 1233.5Q830 1295 698 1295H393Z" /><path id="g500_Q" d="M786 -20Q593 -20 440.5 72.0Q288 164 200.5 335.0Q113 506 113 744Q113 983 200.5 1154.5Q288 1326 440.5 1418.0Q593 1510 786 1510Q979 1510 1130.5 1418.0Q1282 1326 1369.5 1154.5Q1457 983 1457 744Q1457 537 1390.0 380.5Q1323 224 1207 126L1406 -135H1179L1052 32Q929 -20 786 -20ZM713 481H932L1073 298Q1146 368 1188.5 480.0Q1231 592 1231 744Q1231 925 1172.5 1049.5Q1114 1174 1013.5 1238.0Q913 1302 786 1302Q658 1302 557.0 1238.0Q456 1174 397.5 1049.5Q339 925 339 744Q339 564 397.5 440.0Q456 316 557.0 252.0Q658 188 786 188Q857 188 921 208Z" /><path id="g600_J" d="M560 -20Q339 -20 208.5 99.5Q78 219 78 440V525H345V438Q345 320 403.5 260.0Q462 200 560 200Q657 200 715.0 260.5Q773 321 773 438V1490H1038V441Q1038 219 908.5 99.5Q779 -20 560 -20Z" /><path id="g600_three" d="M651 -20Q494 -20 372.5 33.5Q251 87 181.0 183.0Q111 279 107 404H376Q382 312 460.0 258.0Q538 204 651 204Q771 204 848.0 266.0Q925 328 925 427Q925 529 845.5 593.5Q766 658 624 658H492V864H624Q740 864 813.0 924.0Q886 984 886 1082Q886 1177 822.5 1234.5Q759 1292 654 1292Q551 1292 474.5 1238.0Q398 1184 395 1089H138Q140 1213 209.5 1308.0Q279 1403 395.5 1456.5Q512 1510 656 1510Q805 1510 915.0 1454.0Q1025 1398 1085.5 1304.5Q1146 1211 1146 1098Q1146 972 1072.0 887.0Q998 802 877 775V763Q1033 741 1116.5 647.0Q1200 553 1200 413Q1200 288 1129.0 190.0Q1058 92 934.0 36.0Q810 -20 651 -20Z" /><path id="g600_zero" d="M676 -20Q404 -20 253.5 180.5Q103 381 103 744Q103 1106 254.0 1308.0Q405 1510 676 1510Q946 1510 1097.0 1308.0Q1248 1106 1248 744Q1248 381 1097.5 180.5Q947 -20 676 -20ZM676 204Q822 204 900.5 345.0Q979 486 979 744Q979 1003 900.5 1145.0Q822 1287 676 1287Q530 1287 451.0 1144.5Q372 1002 372 744Q372 486 450.5 345.0Q529 204 676 204Z" /><path id="g600_h" d="M398 655V0H138V1490H394V911Q496 1132 733 1132Q906 1132 1011.0 1022.0Q1116 912 1116 711V0H855V671Q855 783 797.0 847.0Q739 911 637 911Q533 911 465.5 844.0Q398 777 398 655Z" /><path id="g600_B" d="M150 0V1490H720Q881 1490 987.5 1439.5Q1094 1389 1147.5 1301.5Q1201 1214 1201 1103Q1201 967 1125.5 889.0Q1050 811 941 786V771Q1020 767 1093.0 723.0Q1166 679 1212.5 599.0Q1259 519 1259 406Q1259 290 1203.0 198.0Q1147 106 1034.5 53.0Q922 0 751 0ZM417 223H709Q857 223 922.5 280.0Q988 337 988 426Q988 526 915.0 594.0Q842 662 718 662H417ZM417 855H686Q792 855 863.0 912.5Q934 970 934 1069Q934 1156 873.0 1212.0Q812 1268 692 1268H417Z" /></defs>
<style>
.pulse{transform-box:fill-box;transform-origin:center;animation:pulse 2.4s cubic-bezier(.2,.7,.3,1) infinite}
@keyframes pulse{0%{transform:scale(1);opacity:.30}75%{transform:scale(2.1);opacity:0}100%{transform:scale(2.1);opacity:0}}
.caret{animation:blink 1.1s steps(1) infinite}
@keyframes blink{0%,55%{opacity:1}56%,100%{opacity:0}}
.press{transform-box:fill-box;transform-origin:0 0;animation:press 3.2s ease-in-out infinite}
@keyframes press{0%,58%,100%{transform:translate(0,0) scale(1)}66%{transform:translate(1.5px,2px) scale(.9)}74%{transform:translate(0,0) scale(1)}}
.ripple{transform-box:fill-box;transform-origin:center;opacity:0;animation:ripple 3.2s ease-out infinite}
@keyframes ripple{0%,62%{opacity:0;transform:scale(.4)}68%{opacity:.5}100%{opacity:0;transform:scale(2.4)}}
.sweep{animation:sweep 4.8s cubic-bezier(.45,0,.2,1) infinite}
@keyframes sweep{0%{transform:translateY(-470px);opacity:0}8%{opacity:1}72%{transform:translateY(0);opacity:1}100%{transform:translateY(0);opacity:1}}
.ring{transform-box:fill-box;transform-origin:50% 12%;animation:ring 4s ease-in-out infinite}
@keyframes ring{0%,70%,100%{transform:rotate(0)}74%{transform:rotate(14deg)}78%{transform:rotate(-12deg)}82%{transform:rotate(8deg)}86%{transform:rotate(-4deg)}90%{transform:rotate(0)}}
.glow{animation:glow 2.6s ease-in-out infinite}
@keyframes glow{0%,100%{opacity:1}50%{opacity:.45}}
.float{animation:float 6s ease-in-out infinite}
@keyframes float{0%,100%{transform:translateY(0)}50%{transform:translateY(-6px)}}
@media (prefers-reduced-motion: reduce){*{animation:none!important}}
</style><rect width="1200" height="800" fill="url(#bg)" /><rect width="1200" height="800" fill="url(#glowA)" /><rect width="1200" height="800" fill="url(#glowB)" /><rect width="1200" height="800" fill="url(#grid)" mask="url(#gridMask)" /><rect x="60" y="40" width="942" height="84" rx="18" fill="#fff" stroke="url(#gStroke)" stroke-width="1.5" filter="url(#e2)" /><circle cx="100" cy="82.0" r="21" fill="url(#gAcc)" /><g transform="translate(89 71.0) scale(0.9167)" fill="none" stroke="#fff" stroke-width="2" stroke-linecap="round" stroke-linejoin="round">
  <path d="M11.017 2.814a1 1 0 0 1 1.966 0l1.051 5.558a2 2 0 0 0 1.594 1.594l5.558 1.051a1 1 0 0 1 0 1.966l-5.558 1.051a2 2 0 0 0-1.594 1.594l-1.051 5.558a1 1 0 0 1-1.966 0l-1.051-5.558a2 2 0 0 0-1.594-1.594l-5.558-1.051a1 1 0 0 1 0-1.966l5.558-1.051a2 2 0 0 0 1.594-1.594z" />
  <path d="M20 2v4" />
  <path d="M22 4h-4" />
  <circle cx="4" cy="20" r="2" />
</g><g><use href="#g600_E" ns1:href="#g600_E" transform="translate(136.00 74.00) scale(0.00781 -0.00781)" fill="#9A3412" /><use href="#g600_m" ns1:href="#g600_m" transform="translate(145.69 74.00) scale(0.00781 -0.00781)" fill="#9A3412" /><use href="#g600_e" ns1:href="#g600_e" transform="translate(160.09 74.00) scale(0.00781 -0.00781)" fill="#9A3412" /><use href="#g600_r" ns1:href="#g600_r" transform="translate(169.55 74.00) scale(0.00781 -0.00781)" fill="#9A3412" /><use href="#g600_g" ns1:href="#g600_g" transform="translate(175.55 74.00) scale(0.00781 -0.00781)" fill="#9A3412" /><use href="#g600_e" ns1:href="#g600_e" transform="translate(185.56 74.00) scale(0.00781 -0.00781)" fill="#9A3412" /><use href="#g600_n" ns1:href="#g600_n" transform="translate(195.02 74.00) scale(0.00781 -0.00781)" fill="#9A3412" /><use href="#g600_t" ns1:href="#g600_t" transform="translate(204.81 74.00) scale(0.00781 -0.00781)" fill="#9A3412" /><use href="#g600_p" ns1:href="#g600_p" transform="translate(214.49 74.00) scale(0.00781 -0.00781)" fill="#9A3412" /><use href="#g600_r" ns1:href="#g600_r" transform="translate(224.48 74.00) scale(0.00781 -0.00781)" fill="#9A3412" /><use href="#g600_o" ns1:href="#g600_o" transform="translate(230.48 74.00) scale(0.00781 -0.00781)" fill="#9A3412" /><use href="#g600_m" ns1:href="#g600_m" transform="translate(240.22 74.00) scale(0.00781 -0.00781)" fill="#9A3412" /><use href="#g600_p" ns1:href="#g600_p" transform="translate(254.62 74.00) scale(0.00781 -0.00781)" fill="#9A3412" /><use href="#g600_t" ns1:href="#g600_t" transform="translate(264.61 74.00) scale(0.00781 -0.00781)" fill="#9A3412" /></g><g><use href="#g500_quotedblleft" ns1:href="#g500_quotedblleft" transform="translate(136.00 102.00) scale(0.00928 -0.00928)" fill="#0F172A" /><use href="#g500_R" ns1:href="#g500_R" transform="translate(145.00 102.00) scale(0.00928 -0.00928)" fill="#0F172A" /><use href="#g500_e" ns1:href="#g500_e" transform="translate(157.05 102.00) scale(0.00928 -0.00928)" fill="#0F172A" /><use href="#g500_a" ns1:href="#g500_a" transform="translate(168.40 102.00) scale(0.00928 -0.00928)" fill="#0F172A" /><use href="#g500_d" ns1:href="#g500_d" transform="translate(179.19 102.00) scale(0.00928 -0.00928)" fill="#0F172A" /><use href="#g500_e" ns1:href="#g500_e" transform="translate(196.00 102.00) scale(0.00928 -0.00928)" fill="#0F172A" /><use href="#g500_a" ns1:href="#g500_a" transform="translate(207.34 102.00) scale(0.00928 -0.00928)" fill="#0F172A" /><use href="#g500_c" ns1:href="#g500_c" transform="translate(218.13 102.00) scale(0.00928 -0.00928)" fill="#0F172A" /><use href="#g500_h" ns1:href="#g500_h" transform="translate(229.10 102.00) scale(0.00928 -0.00928)" fill="#0F172A" /><use href="#g500_f" ns1:href="#g500_f" transform="translate(245.59 102.00) scale(0.00928 -0.00928)" fill="#0F172A" /><use href="#g500_o" ns1:href="#g500_o" transform="translate(252.29 102.00) scale(0.00928 -0.00928)" fill="#0F172A" /><use href="#g500_o" ns1:href="#g500_o" transform="translate(263.77 102.00) scale(0.00928 -0.00928)" fill="#0F172A" /><use href="#g500_d" ns1:href="#g500_d" transform="translate(275.24 102.00) scale(0.00928 -0.00928)" fill="#0F172A" /><use href="#g500_t" ns1:href="#g500_t" transform="translate(292.05 102.00) scale(0.00928 -0.00928)" fill="#0F172A" /><use href="#g500_r" ns1:href="#g500_r" transform="translate(298.52 102.00) scale(0.00928 -0.00928)" fill="#0F172A" /><use href="#g500_u" ns1:href="#g500_u" transform="translate(305.87 102.00) scale(0.00928 -0.00928)" fill="#0F172A" /><use href="#g500_c" ns1:href="#g500_c" transform="translate(317.30 102.00) scale(0.00928 -0.00928)" fill="#0F172A" /><use href="#g500_k" ns1:href="#g500_k" transform="translate(328.26 102.00) scale(0.00928 -0.00928)" fill="#0F172A" /><use href="#g500_quotesingle" ns1:href="#g500_quotesingle" transform="translate(338.89 102.00) scale(0.00928 -0.00928)" fill="#0F172A" /><use href="#g500_s" ns1:href="#g500_s" transform="translate(344.79 102.00) scale(0.00928 -0.00928)" fill="#0F172A" /><use href="#g500_i" ns1:href="#g500_i" transform="translate(360.08 102.00) scale(0.00928 -0.00928)" fill="#0F172A" /><use href="#g500_n" ns1:href="#g500_n" transform="translate(364.87 102.00) scale(0.00928 -0.00928)" fill="#0F172A" /><use href="#g500_s" ns1:href="#g500_s" transform="translate(376.30 102.00) scale(0.00928 -0.00928)" fill="#0F172A" /><use href="#g500_u" ns1:href="#g500_u" transform="translate(386.53 102.00) scale(0.00928 -0.00928)" fill="#0F172A" /><use href="#g500_r" ns1:href="#g500_r" transform="translate(397.96 102.00) scale(0.00928 -0.00928)" fill="#0F172A" /><use href="#g500_a" ns1:href="#g500_a" transform="translate(405.23 102.00) scale(0.00928 -0.00928)" fill="#0F172A" /><use href="#g500_n" ns1:href="#g500_n" transform="translate(416.02 102.00) scale(0.00928 -0.00928)" fill="#0F172A" /><use href="#g500_c" ns1:href="#g500_c" transform="translate(427.45 102.00) scale(0.00928 -0.00928)" fill="#0F172A" /><use href="#g500_e" ns1:href="#g500_e" transform="translate(438.41 102.00) scale(0.00928 -0.00928)" fill="#0F172A" /><use href="#g500_d" ns1:href="#g500_d" transform="translate(454.64 102.00) scale(0.00928 -0.00928)" fill="#0F172A" /><use href="#g500_a" ns1:href="#g500_a" transform="translate(466.38 102.00) scale(0.00928 -0.00928)" fill="#0F172A" /><use href="#g500_t" ns1:href="#g500_t" transform="translate(477.17 102.00) scale(0.00928 -0.00928)" fill="#0F172A" /><use href="#g500_e" ns1:href="#g500_e" transform="translate(483.46 102.00) scale(0.00928 -0.00928)" fill="#0F172A" /><use href="#g500_a" ns1:href="#g500_a" transform="translate(499.68 102.00) scale(0.00928 -0.00928)" fill="#0F172A" /><use href="#g500_n" ns1:href="#g500_n" transform="translate(510.47 102.00) scale(0.00928 -0.00928)" fill="#0F172A" /><use href="#g500_d" ns1:href="#g500_d" transform="translate(521.90 102.00) scale(0.00928 -0.00928)" fill="#0F172A" /><use href="#g500_f" ns1:href="#g500_f" transform="translate(538.71 102.00) scale(0.00928 -0.00928)" fill="#0F172A" /><use href="#g500_l" ns1:href="#g500_l" transform="translate(545.92 102.00) scale(0.00928 -0.00928)" fill="#0F172A" /><use href="#g500_a" ns1:href="#g500_a" transform="translate(550.71 102.00) scale(0.00928 -0.00928)" fill="#0F172A" /><use href="#g500_g" ns1:href="#g500_g" transform="translate(561.50 102.00) scale(0.00928 -0.00928)" fill="#0F172A" /><use href="#g500_a" ns1:href="#g500_a" transform="translate(578.33 102.00) scale(0.00928 -0.00928)" fill="#0F172A" /><use href="#g500_n" ns1:href="#g500_n" transform="translate(589.12 102.00) scale(0.00928 -0.00928)" fill="#0F172A" /><use href="#g500_y" ns1:href="#g500_y" transform="translate(600.26 102.00) scale(0.00928 -0.00928)" fill="#0F172A" /><use href="#g500_t" ns1:href="#g500_t" transform="translate(616.25 102.00) scale(0.00928 -0.00928)" fill="#0F172A" /><use href="#g500_h" ns1:href="#g500_h" transform="translate(622.74 102.00) scale(0.00928 -0.00928)" fill="#0F172A" /><use href="#g500_a" ns1:href="#g500_a" transform="translate(634.17 102.00) scale(0.00928 -0.00928)" fill="#0F172A" /><use href="#g500_t" ns1:href="#g500_t" transform="translate(644.96 102.00) scale(0.00928 -0.00928)" fill="#0F172A" /><use href="#g500_l" ns1:href="#g500_l" transform="translate(656.49 102.00) scale(0.00928 -0.00928)" fill="#0F172A" /><use href="#g500_a" ns1:href="#g500_a" transform="translate(661.27 102.00) scale(0.00928 -0.00928)" fill="#0F172A" /><use href="#g500_p" ns1:href="#g500_p" transform="translate(672.06 102.00) scale(0.00928 -0.00928)" fill="#0F172A" /><use href="#g500_s" ns1:href="#g500_s" transform="translate(683.81 102.00) scale(0.00928 -0.00928)" fill="#0F172A" /><use href="#g500_e" ns1:href="#g500_e" transform="translate(694.04 102.00) scale(0.00928 -0.00928)" fill="#0F172A" /><use href="#g500_b" ns1:href="#g500_b" transform="translate(710.27 102.00) scale(0.00928 -0.00928)" fill="#0F172A" /><use href="#g500_e" ns1:href="#g500_e" transform="translate(722.01 102.00) scale(0.00928 -0.00928)" fill="#0F172A" /><use href="#g500_f" ns1:href="#g500_f" transform="translate(733.17 102.00) scale(0.00928 -0.00928)" fill="#0F172A" /><use href="#g500_o" ns1:href="#g500_o" transform="translate(739.87 102.00) scale(0.00928 -0.00928)" fill="#0F172A" /><use href="#g500_r" ns1:href="#g500_r" transform="translate(751.35 102.00) scale(0.00928 -0.00928)" fill="#0F172A" /><use href="#g500_e" ns1:href="#g500_e" transform="translate(758.33 102.00) scale(0.00928 -0.00928)" fill="#0F172A" /><use href="#g500_J" ns1:href="#g500_J" transform="translate(774.56 102.00) scale(0.00928 -0.00928)" fill="#0F172A" /><use href="#g500_u" ns1:href="#g500_u" transform="translate(785.49 102.00) scale(0.00928 -0.00928)" fill="#0F172A" /><use href="#g500_l" ns1:href="#g500_l" transform="translate(796.92 102.00) scale(0.00928 -0.00928)" fill="#0F172A" /><use href="#g500_y" ns1:href="#g500_y" transform="translate(801.83 102.00) scale(0.00928 -0.00928)" fill="#0F172A" /><use href="#g500_one" ns1:href="#g500_one" transform="translate(817.83 102.00) scale(0.00928 -0.00928)" fill="#0F172A" /><use href="#g500_eight" ns1:href="#g500_eight" transform="translate(825.71 102.00) scale(0.00928 -0.00928)" fill="#0F172A" /><use href="#g500_quotedblright" ns1:href="#g500_quotedblright" transform="translate(837.67 102.00) scale(0.00928 -0.00928)" fill="#0F172A" /></g><rect class="caret" x="852.4" y="84.0" width="2.5" height="24" rx="1.25" fill="#C2410C" /><rect x="906" y="66.0" width="32" height="32" rx="8" fill="#F6F4FC" stroke="#E2DDF0" stroke-width="1.2" /><g transform="translate(913 73.0) scale(0.7500)" fill="none" stroke="#475569" stroke-width="2" stroke-linecap="round" stroke-linejoin="round">
  <path d="M15 6v12a3 3 0 1 0 3-3H6a3 3 0 1 0 3 3V6a3 3 0 1 0-3 3h12a3 3 0 1 0-3-3" />
</g><rect x="946" y="66.0" width="32" height="32" rx="8" fill="#F6F4FC" stroke="#E2DDF0" stroke-width="1.2" /><g transform="translate(953 73.0) scale(0.7500)" fill="none" stroke="#475569" stroke-width="2" stroke-linecap="round" stroke-linejoin="round">
  <path d="M20 4v7a4 4 0 0 1-4 4H4" />
  <path d="m9 10-5 5 5 5" />
</g><rect x="60" y="164" width="440" height="596" rx="14" fill="#fff" stroke="#E4E4E7" stroke-width="1" filter="url(#e1)" /><rect x="92" y="198" width="52" height="52" rx="14" fill="url(#gAcc)" /><g><use href="#g800_S" ns1:href="#g800_S" transform="translate(106.19 231.00) scale(0.00879 -0.00879)" fill="#fff" /><use href="#g800_P" ns1:href="#g800_P" transform="translate(118.07 231.00) scale(0.00879 -0.00879)" fill="#fff" /></g><g><use href="#g700_S" ns1:href="#g700_S" transform="translate(160.00 220.00) scale(0.00977 -0.00977)" fill="#0F172A" /><use href="#g700_m" ns1:href="#g700_m" transform="translate(173.10 220.00) scale(0.00977 -0.00977)" fill="#0F172A" /><use href="#g700_o" ns1:href="#g700_o" transform="translate(191.35 220.00) scale(0.00977 -0.00977)" fill="#0F172A" /><use href="#g700_k" ns1:href="#g700_k" transform="translate(203.61 220.00) scale(0.00977 -0.00977)" fill="#0F172A" /><use href="#g700_e" ns1:href="#g700_e" transform="translate(214.77 220.00) scale(0.00977 -0.00977)" fill="#0F172A" /><use href="#g700_P" ns1:href="#g700_P" transform="translate(231.42 220.00) scale(0.00977 -0.00977)" fill="#0F172A" /><use href="#g700_o" ns1:href="#g700_o" transform="translate(244.21 220.00) scale(0.00977 -0.00977)" fill="#0F172A" /><use href="#g700_i" ns1:href="#g700_i" transform="translate(256.47 220.00) scale(0.00977 -0.00977)" fill="#0F172A" /><use href="#g700_n" ns1:href="#g700_n" transform="translate(261.89 220.00) scale(0.00977 -0.00977)" fill="#0F172A" /><use href="#g700_t" ns1:href="#g700_t" transform="translate(274.35 220.00) scale(0.00977 -0.00977)" fill="#0F172A" /><use href="#g700_B" ns1:href="#g700_B" transform="translate(286.41 220.00) scale(0.00977 -0.00977)" fill="#0F172A" /><use href="#g700_B" ns1:href="#g700_B" transform="translate(299.64 220.00) scale(0.00977 -0.00977)" fill="#0F172A" /><use href="#g700_Q" ns1:href="#g700_Q" transform="translate(312.87 220.00) scale(0.00977 -0.00977)" fill="#0F172A" /></g><g><use href="#g500_C" ns1:href="#g500_C" transform="translate(160.00 244.00) scale(0.00781 -0.00781)" fill="#64748B" /><use href="#g500_e" ns1:href="#g500_e" transform="translate(171.73 244.00) scale(0.00781 -0.00781)" fill="#64748B" /><use href="#g500_r" ns1:href="#g500_r" transform="translate(181.13 244.00) scale(0.00781 -0.00781)" fill="#64748B" /><use href="#g500_t" ns1:href="#g500_t" transform="translate(187.59 244.00) scale(0.00781 -0.00781)" fill="#64748B" /><use href="#g500_i" ns1:href="#g500_i" transform="translate(193.04 244.00) scale(0.00781 -0.00781)" fill="#64748B" /><use href="#g500_f" ns1:href="#g500_f" transform="translate(197.07 244.00) scale(0.00781 -0.00781)" fill="#64748B" /><use href="#g500_i" ns1:href="#g500_i" transform="translate(203.19 244.00) scale(0.00781 -0.00781)" fill="#64748B" /><use href="#g500_c" ns1:href="#g500_c" transform="translate(207.22 244.00) scale(0.00781 -0.00781)" fill="#64748B" /><use href="#g500_a" ns1:href="#g500_a" transform="translate(216.61 244.00) scale(0.00781 -0.00781)" fill="#64748B" /><use href="#g500_t" ns1:href="#g500_t" transform="translate(225.70 244.00) scale(0.00781 -0.00781)" fill="#64748B" /><use href="#g500_e" ns1:href="#g500_e" transform="translate(230.98 244.00) scale(0.00781 -0.00781)" fill="#64748B" /><use href="#g500_o" ns1:href="#g500_o" transform="translate(244.65 244.00) scale(0.00781 -0.00781)" fill="#64748B" /><use href="#g500_f" ns1:href="#g500_f" transform="translate(254.31 244.00) scale(0.00781 -0.00781)" fill="#64748B" /><use href="#g500_i" ns1:href="#g500_i" transform="translate(264.65 244.00) scale(0.00781 -0.00781)" fill="#64748B" /><use href="#g500_n" ns1:href="#g500_n" transform="translate(268.68 244.00) scale(0.00781 -0.00781)" fill="#64748B" /><use href="#g500_s" ns1:href="#g500_s" transform="translate(278.30 244.00) scale(0.00781 -0.00781)" fill="#64748B" /><use href="#g500_u" ns1:href="#g500_u" transform="translate(286.92 244.00) scale(0.00781 -0.00781)" fill="#64748B" /><use href="#g500_r" ns1:href="#g500_r" transform="translate(296.55 244.00) scale(0.00781 -0.00781)" fill="#64748B" /><use href="#g500_a" ns1:href="#g500_a" transform="translate(302.66 244.00) scale(0.00781 -0.00781)" fill="#64748B" /><use href="#g500_n" ns1:href="#g500_n" transform="translate(311.75 244.00) scale(0.00781 -0.00781)" fill="#64748B" /><use href="#g500_c" ns1:href="#g500_c" transform="translate(321.38 244.00) scale(0.00781 -0.00781)" fill="#64748B" /><use href="#g500_e" ns1:href="#g500_e" transform="translate(330.61 244.00) scale(0.00781 -0.00781)" fill="#64748B" /></g><g><use href="#g700_C" ns1:href="#g700_C" transform="translate(434.34 220.00) scale(0.00781 -0.00781)" fill="#64748B" /><use href="#g700_O" ns1:href="#g700_O" transform="translate(448.68 220.00) scale(0.00781 -0.00781)" fill="#64748B" /><use href="#g700_I" ns1:href="#g700_I" transform="translate(463.51 220.00) scale(0.00781 -0.00781)" fill="#64748B" /></g><g><use href="#g500_I" ns1:href="#g500_I" transform="translate(92.00 314.00) scale(0.00781 -0.00781)" fill="#64748B" /><use href="#g500_n" ns1:href="#g500_n" transform="translate(96.36 314.00) scale(0.00781 -0.00781)" fill="#64748B" /><use href="#g500_s" ns1:href="#g500_s" transform="translate(105.98 314.00) scale(0.00781 -0.00781)" fill="#64748B" /><use href="#g500_u" ns1:href="#g500_u" transform="translate(114.60 314.00) scale(0.00781 -0.00781)" fill="#64748B" /><use href="#g500_r" ns1:href="#g500_r" transform="translate(124.23 314.00) scale(0.00781 -0.00781)" fill="#64748B" /><use href="#g500_e" ns1:href="#g500_e" transform="translate(130.11 314.00) scale(0.00781 -0.00781)" fill="#64748B" /><use href="#g500_d" ns1:href="#g500_d" transform="translate(139.51 314.00) scale(0.00781 -0.00781)" fill="#64748B" /></g><g><use href="#g700_S" ns1:href="#g700_S" transform="translate(92.00 338.00) scale(0.00928 -0.00928)" fill="#0F172A" /><use href="#g700_m" ns1:href="#g700_m" transform="translate(104.44 338.00) scale(0.00928 -0.00928)" fill="#0F172A" /><use href="#g700_o" ns1:href="#g700_o" transform="translate(121.78 338.00) scale(0.00928 -0.00928)" fill="#0F172A" /><use href="#g700_k" ns1:href="#g700_k" transform="translate(133.43 338.00) scale(0.00928 -0.00928)" fill="#0F172A" /><use href="#g700_e" ns1:href="#g700_e" transform="translate(144.03 338.00) scale(0.00928 -0.00928)" fill="#0F172A" /><use href="#g700_P" ns1:href="#g700_P" transform="translate(160.45 338.00) scale(0.00928 -0.00928)" fill="#0F172A" /><use href="#g700_o" ns1:href="#g700_o" transform="translate(172.60 338.00) scale(0.00928 -0.00928)" fill="#0F172A" /><use href="#g700_i" ns1:href="#g700_i" transform="translate(184.25 338.00) scale(0.00928 -0.00928)" fill="#0F172A" /><use href="#g700_n" ns1:href="#g700_n" transform="translate(189.40 338.00) scale(0.00928 -0.00928)" fill="#0F172A" /><use href="#g700_t" ns1:href="#g700_t" transform="translate(201.23 338.00) scale(0.00928 -0.00928)" fill="#0F172A" /><use href="#g700_B" ns1:href="#g700_B" transform="translate(213.29 338.00) scale(0.00928 -0.00928)" fill="#0F172A" /><use href="#g700_B" ns1:href="#g700_B" transform="translate(225.86 338.00) scale(0.00928 -0.00928)" fill="#0F172A" /><use href="#g700_Q" ns1:href="#g700_Q" transform="translate(238.43 338.00) scale(0.00928 -0.00928)" fill="#0F172A" /></g><g><use href="#g500_C" ns1:href="#g500_C" transform="translate(92.00 376.00) scale(0.00781 -0.00781)" fill="#64748B" /><use href="#g500_o" ns1:href="#g500_o" transform="translate(103.73 376.00) scale(0.00781 -0.00781)" fill="#64748B" /><use href="#g500_v" ns1:href="#g500_v" transform="translate(113.09 376.00) scale(0.00781 -0.00781)" fill="#64748B" /><use href="#g500_e" ns1:href="#g500_e" transform="translate(121.98 376.00) scale(0.00781 -0.00781)" fill="#64748B" /><use href="#g500_r" ns1:href="#g500_r" transform="translate(131.38 376.00) scale(0.00781 -0.00781)" fill="#64748B" /><use href="#g500_a" ns1:href="#g500_a" transform="translate(137.50 376.00) scale(0.00781 -0.00781)" fill="#64748B" /><use href="#g500_g" ns1:href="#g500_g" transform="translate(146.59 376.00) scale(0.00781 -0.00781)" fill="#64748B" /><use href="#g500_e" ns1:href="#g500_e" transform="translate(156.50 376.00) scale(0.00781 -0.00781)" fill="#64748B" /></g><g><use href="#g700_G" ns1:href="#g700_G" transform="translate(92.00 400.00) scale(0.00928 -0.00928)" fill="#0F172A" /><use href="#g700_e" ns1:href="#g700_e" transform="translate(106.26 400.00) scale(0.00928 -0.00928)" fill="#0F172A" /><use href="#g700_n" ns1:href="#g700_n" transform="translate(117.58 400.00) scale(0.00928 -0.00928)" fill="#0F172A" /><use href="#g700_e" ns1:href="#g700_e" transform="translate(129.41 400.00) scale(0.00928 -0.00928)" fill="#0F172A" /><use href="#g700_r" ns1:href="#g700_r" transform="translate(140.72 400.00) scale(0.00928 -0.00928)" fill="#0F172A" /><use href="#g700_a" ns1:href="#g700_a" transform="translate(148.20 400.00) scale(0.00928 -0.00928)" fill="#0F172A" /><use href="#g700_l" ns1:href="#g700_l" transform="translate(159.23 400.00) scale(0.00928 -0.00928)" fill="#0F172A" /><use href="#g700_l" ns1:href="#g700_l" transform="translate(169.48 400.00) scale(0.00928 -0.00928)" fill="#0F172A" /><use href="#g700_i" ns1:href="#g700_i" transform="translate(174.63 400.00) scale(0.00928 -0.00928)" fill="#0F172A" /><use href="#g700_a" ns1:href="#g700_a" transform="translate(179.78 400.00) scale(0.00928 -0.00928)" fill="#0F172A" /><use href="#g700_b" ns1:href="#g700_b" transform="translate(190.81 400.00) scale(0.00928 -0.00928)" fill="#0F172A" /><use href="#g700_i" ns1:href="#g700_i" transform="translate(202.79 400.00) scale(0.00928 -0.00928)" fill="#0F172A" /><use href="#g700_l" ns1:href="#g700_l" transform="translate(207.94 400.00) scale(0.00928 -0.00928)" fill="#0F172A" /><use href="#g700_i" ns1:href="#g700_i" transform="translate(213.09 400.00) scale(0.00928 -0.00928)" fill="#0F172A" /><use href="#g700_t" ns1:href="#g700_t" transform="translate(218.24 400.00) scale(0.00928 -0.00928)" fill="#0F172A" /><use href="#g700_y" ns1:href="#g700_y" transform="translate(225.61 400.00) scale(0.00928 -0.00928)" fill="#0F172A" /></g><g><use href="#g500_E" ns1:href="#g500_E" transform="translate(92.00 438.00) scale(0.00781 -0.00781)" fill="#64748B" /><use href="#g500_f" ns1:href="#g500_f" transform="translate(101.65 438.00) scale(0.00781 -0.00781)" fill="#64748B" /><use href="#g500_f" ns1:href="#g500_f" transform="translate(107.08 438.00) scale(0.00781 -0.00781)" fill="#64748B" /><use href="#g500_e" ns1:href="#g500_e" transform="translate(112.72 438.00) scale(0.00781 -0.00781)" fill="#64748B" /><use href="#g500_c" ns1:href="#g500_c" transform="translate(122.12 438.00) scale(0.00781 -0.00781)" fill="#64748B" /><use href="#g500_t" ns1:href="#g500_t" transform="translate(131.35 438.00) scale(0.00781 -0.00781)" fill="#64748B" /><use href="#g500_i" ns1:href="#g500_i" transform="translate(136.80 438.00) scale(0.00781 -0.00781)" fill="#64748B" /><use href="#g500_v" ns1:href="#g500_v" transform="translate(140.83 438.00) scale(0.00781 -0.00781)" fill="#64748B" /><use href="#g500_e" ns1:href="#g500_e" transform="translate(149.72 438.00) scale(0.00781 -0.00781)" fill="#64748B" /></g><g><use href="#g700_J" ns1:href="#g700_J" transform="translate(92.00 462.00) scale(0.00928 -0.00928)" fill="#0F172A" /><use href="#g700_u" ns1:href="#g700_u" transform="translate(103.10 462.00) scale(0.00928 -0.00928)" fill="#0F172A" /><use href="#g700_l" ns1:href="#g700_l" transform="translate(114.93 462.00) scale(0.00928 -0.00928)" fill="#0F172A" /><use href="#g700_one_tf" ns1:href="#g700_one_tf" transform="translate(125.19 462.00) scale(0.00928 -0.00928)" fill="#0F172A" /></g><rect x="76" y="476" width="408" height="56" rx="12" fill="#FFF1E6" stroke="#C2410C" stroke-width="2" /><g><use href="#g500_E" ns1:href="#g500_E" transform="translate(92.00 500.00) scale(0.00781 -0.00781)" fill="#475569" /><use href="#g500_x" ns1:href="#g500_x" transform="translate(101.65 500.00) scale(0.00781 -0.00781)" fill="#475569" /><use href="#g500_p" ns1:href="#g500_p" transform="translate(110.56 500.00) scale(0.00781 -0.00781)" fill="#475569" /><use href="#g500_i" ns1:href="#g500_i" transform="translate(120.45 500.00) scale(0.00781 -0.00781)" fill="#475569" /><use href="#g500_r" ns1:href="#g500_r" transform="translate(124.48 500.00) scale(0.00781 -0.00781)" fill="#475569" /><use href="#g500_e" ns1:href="#g500_e" transform="translate(130.37 500.00) scale(0.00781 -0.00781)" fill="#475569" /><use href="#g500_s" ns1:href="#g500_s" transform="translate(139.77 500.00) scale(0.00781 -0.00781)" fill="#475569" /></g><g><use href="#g700_J" ns1:href="#g700_J" transform="translate(92.00 524.00) scale(0.00928 -0.00928)" fill="#0F172A" /><use href="#g700_u" ns1:href="#g700_u" transform="translate(103.10 524.00) scale(0.00928 -0.00928)" fill="#0F172A" /><use href="#g700_n" ns1:href="#g700_n" transform="translate(114.93 524.00) scale(0.00928 -0.00928)" fill="#0F172A" /><use href="#g700_three_tf" ns1:href="#g700_three_tf" transform="translate(131.86 524.00) scale(0.00928 -0.00928)" fill="#0F172A" /><use href="#g700_zero_tf" ns1:href="#g700_zero_tf" transform="translate(144.15 524.00) scale(0.00928 -0.00928)" fill="#0F172A" /></g><rect x="92" y="572" width="353.44" height="9" rx="4.5" fill="#EEF0F5" /><rect x="92" y="594" width="327.12" height="9" rx="4.5" fill="#EEF0F5" /><rect x="92" y="616" width="338.40000000000003" height="9" rx="4.5" fill="#EEF0F5" /><rect x="92" y="638" width="251.92000000000002" height="9" rx="4.5" fill="#EEF0F5" /><path d="M500 330 C 534 330, 526 300, 560 300" stroke="#C2410C" stroke-opacity="0.55" stroke-width="2" fill="none" stroke-dasharray="4 5" /><circle cx="560" cy="300" r="4" fill="#C2410C" /><rect x="560" y="164" width="580" height="330" rx="18" fill="#fff" stroke="#E4E4E7" stroke-width="1" filter="url(#e1)" /><g><use href="#g700_H" ns1:href="#g700_H" transform="translate(588.00 211.00) scale(0.00928 -0.00928)" fill="#0F172A" /><use href="#g700_a" ns1:href="#g700_a" transform="translate(601.89 211.00) scale(0.00928 -0.00928)" fill="#0F172A" /><use href="#g700_r" ns1:href="#g700_r" transform="translate(612.63 211.00) scale(0.00928 -0.00928)" fill="#0F172A" /><use href="#g700_b" ns1:href="#g700_b" transform="translate(620.36 211.00) scale(0.00928 -0.00928)" fill="#0F172A" /><use href="#g700_o" ns1:href="#g700_o" transform="translate(632.04 211.00) scale(0.00928 -0.00928)" fill="#0F172A" /><use href="#g700_r" ns1:href="#g700_r" transform="translate(643.39 211.00) scale(0.00928 -0.00928)" fill="#0F172A" /><use href="#g700_L" ns1:href="#g700_L" transform="translate(655.03 211.00) scale(0.00928 -0.00928)" fill="#0F172A" /><use href="#g700_i" ns1:href="#g700_i" transform="translate(665.47 211.00) scale(0.00928 -0.00928)" fill="#0F172A" /><use href="#g700_g" ns1:href="#g700_g" transform="translate(670.32 211.00) scale(0.00928 -0.00928)" fill="#0F172A" /><use href="#g700_h" ns1:href="#g700_h" transform="translate(682.02 211.00) scale(0.00928 -0.00928)" fill="#0F172A" /><use href="#g700_t" ns1:href="#g700_t" transform="translate(693.55 211.00) scale(0.00928 -0.00928)" fill="#0F172A" /><use href="#g700_s" ns1:href="#g700_s" transform="translate(700.07 211.00) scale(0.00928 -0.00928)" fill="#0F172A" /><use href="#g700_f" ns1:href="#g700_f" transform="translate(714.61 211.00) scale(0.00928 -0.00928)" fill="#0F172A" /><use href="#g700_e" ns1:href="#g700_e" transform="translate(721.46 211.00) scale(0.00928 -0.00928)" fill="#0F172A" /><use href="#g700_s" ns1:href="#g700_s" transform="translate(732.48 211.00) scale(0.00928 -0.00928)" fill="#0F172A" /><use href="#g700_t" ns1:href="#g700_t" transform="translate(742.82 211.00) scale(0.00928 -0.00928)" fill="#0F172A" /><use href="#g700_i" ns1:href="#g700_i" transform="translate(749.48 211.00) scale(0.00928 -0.00928)" fill="#0F172A" /><use href="#g700_v" ns1:href="#g700_v" transform="translate(754.33 211.00) scale(0.00928 -0.00928)" fill="#0F172A" /><use href="#g700_a" ns1:href="#g700_a" transform="translate(765.24 211.00) scale(0.00928 -0.00928)" fill="#0F172A" /><use href="#g700_l" ns1:href="#g700_l" transform="translate(775.97 211.00) scale(0.00928 -0.00928)" fill="#0F172A" /></g><rect x="975" y="185" width="137" height="36" rx="18.0" fill="#FEF3C7" /><circle cx="991" cy="203.0" r="4" fill="#B45309" /><g><use href="#g600_one" ns1:href="#g600_one" transform="translate(1003.00 208.76) scale(0.00781 -0.00781)" fill="#B45309" /><use href="#g600_o" ns1:href="#g600_o" transform="translate(1013.80 208.76) scale(0.00781 -0.00781)" fill="#B45309" /><use href="#g600_f" ns1:href="#g600_f" transform="translate(1023.54 208.76) scale(0.00781 -0.00781)" fill="#B45309" /><use href="#g600_two" ns1:href="#g600_two" transform="translate(1033.79 208.76) scale(0.00781 -0.00781)" fill="#B45309" /><use href="#g600_v" ns1:href="#g600_v" transform="translate(1047.79 208.76) scale(0.00781 -0.00781)" fill="#B45309" /><use href="#g600_a" ns1:href="#g600_a" transform="translate(1057.05 208.76) scale(0.00781 -0.00781)" fill="#B45309" /><use href="#g600_l" ns1:href="#g600_l" transform="translate(1066.23 208.76) scale(0.00781 -0.00781)" fill="#B45309" /><use href="#g600_i" ns1:href="#g600_i" transform="translate(1070.42 208.76) scale(0.00781 -0.00781)" fill="#B45309" /><use href="#g600_d" ns1:href="#g600_d" transform="translate(1074.61 208.76) scale(0.00781 -0.00781)" fill="#B45309" /></g><g><use href="#g500_F" ns1:href="#g500_F" transform="translate(588.00 237.00) scale(0.00781 -0.00781)" fill="#64748B" /><use href="#g500_e" ns1:href="#g500_e" transform="translate(596.85 237.00) scale(0.00781 -0.00781)" fill="#64748B" /><use href="#g500_s" ns1:href="#g500_s" transform="translate(606.25 237.00) scale(0.00781 -0.00781)" fill="#64748B" /><use href="#g500_t" ns1:href="#g500_t" transform="translate(614.87 237.00) scale(0.00781 -0.00781)" fill="#64748B" /><use href="#g500_i" ns1:href="#g500_i" transform="translate(620.31 237.00) scale(0.00781 -0.00781)" fill="#64748B" /><use href="#g500_v" ns1:href="#g500_v" transform="translate(624.34 237.00) scale(0.00781 -0.00781)" fill="#64748B" /><use href="#g500_a" ns1:href="#g500_a" transform="translate(633.44 237.00) scale(0.00781 -0.00781)" fill="#64748B" /><use href="#g500_l" ns1:href="#g500_l" transform="translate(642.52 237.00) scale(0.00781 -0.00781)" fill="#64748B" /><use href="#g500_d" ns1:href="#g500_d" transform="translate(650.82 237.00) scale(0.00781 -0.00781)" fill="#64748B" /><use href="#g500_a" ns1:href="#g500_a" transform="translate(660.71 237.00) scale(0.00781 -0.00781)" fill="#64748B" /><use href="#g500_y" ns1:href="#g500_y" transform="translate(669.55 237.00) scale(0.00781 -0.00781)" fill="#64748B" /><use href="#g500_colon" ns1:href="#g500_colon" transform="translate(678.75 237.00) scale(0.00781 -0.00781)" fill="#64748B" /><use href="#g500_J" ns1:href="#g500_J" transform="translate(687.87 237.00) scale(0.00781 -0.00781)" fill="#64748B" /><use href="#g500_u" ns1:href="#g500_u" transform="translate(697.07 237.00) scale(0.00781 -0.00781)" fill="#64748B" /><use href="#g500_l" ns1:href="#g500_l" transform="translate(706.70 237.00) scale(0.00781 -0.00781)" fill="#64748B" /><use href="#g500_one" ns1:href="#g500_one" transform="translate(714.99 237.00) scale(0.00781 -0.00781)" fill="#64748B" /><use href="#g500_eight" ns1:href="#g500_eight" transform="translate(721.63 237.00) scale(0.00781 -0.00781)" fill="#64748B" /></g><defs><linearGradient id="eav1" x1="0" y1="0" x2="1" y2="1"><stop offset="0" stop-color="#C2410C" /><stop offset="1" stop-color="#9F1239" /></linearGradient></defs><circle cx="612" cy="316.5" r="24" fill="#fff" /><circle cx="612" cy="316.5" r="22" fill="url(#eav1)" /><g><use href="#g700_H" ns1:href="#g700_H" transform="translate(600.14 323.10) scale(0.00830 -0.00830)" fill="#fff" /><use href="#g700_P" ns1:href="#g700_P" transform="translate(612.84 323.10) scale(0.00830 -0.00830)" fill="#fff" /></g><g><use href="#g700_H" ns1:href="#g700_H" transform="translate(648.00 312.50) scale(0.00928 -0.00928)" fill="#0F172A" /><use href="#g700_e" ns1:href="#g700_e" transform="translate(662.19 312.50) scale(0.00928 -0.00928)" fill="#0F172A" /><use href="#g700_a" ns1:href="#g700_a" transform="translate(673.70 312.50) scale(0.00928 -0.00928)" fill="#0F172A" /><use href="#g700_l" ns1:href="#g700_l" transform="translate(684.73 312.50) scale(0.00928 -0.00928)" fill="#0F172A" /><use href="#g700_t" ns1:href="#g700_t" transform="translate(690.16 312.50) scale(0.00928 -0.00928)" fill="#0F172A" /><use href="#g700_h" ns1:href="#g700_h" transform="translate(697.16 312.50) scale(0.00928 -0.00928)" fill="#0F172A" /><use href="#g700_p" ns1:href="#g700_p" transform="translate(713.49 312.50) scale(0.00928 -0.00928)" fill="#0F172A" /><use href="#g700_e" ns1:href="#g700_e" transform="translate(725.47 312.50) scale(0.00928 -0.00928)" fill="#0F172A" /><use href="#g700_r" ns1:href="#g700_r" transform="translate(736.78 312.50) scale(0.00928 -0.00928)" fill="#0F172A" /><use href="#g700_m" ns1:href="#g700_m" transform="translate(744.66 312.50) scale(0.00928 -0.00928)" fill="#0F172A" /><use href="#g700_i" ns1:href="#g700_i" transform="translate(762.00 312.50) scale(0.00928 -0.00928)" fill="#0F172A" /><use href="#g700_t" ns1:href="#g700_t" transform="translate(767.15 312.50) scale(0.00928 -0.00928)" fill="#0F172A" /></g><g><use href="#g500_C" ns1:href="#g500_C" transform="translate(648.00 338.50) scale(0.00781 -0.00781)" fill="#64748B" /><use href="#g500_o" ns1:href="#g500_o" transform="translate(659.73 338.50) scale(0.00781 -0.00781)" fill="#64748B" /><use href="#g500_u" ns1:href="#g500_u" transform="translate(669.40 338.50) scale(0.00781 -0.00781)" fill="#64748B" /><use href="#g500_n" ns1:href="#g500_n" transform="translate(679.02 338.50) scale(0.00781 -0.00781)" fill="#64748B" /><use href="#g500_t" ns1:href="#g500_t" transform="translate(688.65 338.50) scale(0.00781 -0.00781)" fill="#64748B" /><use href="#g500_y" ns1:href="#g500_y" transform="translate(694.42 338.50) scale(0.00781 -0.00781)" fill="#64748B" /><use href="#g500_comma" ns1:href="#g500_comma" transform="translate(702.95 338.50) scale(0.00781 -0.00781)" fill="#64748B" /><use href="#g500_v" ns1:href="#g500_v" transform="translate(711.91 338.50) scale(0.00781 -0.00781)" fill="#64748B" /><use href="#g500_a" ns1:href="#g500_a" transform="translate(721.00 338.50) scale(0.00781 -0.00781)" fill="#64748B" /><use href="#g500_l" ns1:href="#g500_l" transform="translate(730.09 338.50) scale(0.00781 -0.00781)" fill="#64748B" /><use href="#g500_i" ns1:href="#g500_i" transform="translate(734.12 338.50) scale(0.00781 -0.00781)" fill="#64748B" /><use href="#g500_d" ns1:href="#g500_d" transform="translate(738.15 338.50) scale(0.00781 -0.00781)" fill="#64748B" /><use href="#g500_t" ns1:href="#g500_t" transform="translate(752.30 338.50) scale(0.00781 -0.00781)" fill="#64748B" /><use href="#g500_h" ns1:href="#g500_h" transform="translate(757.77 338.50) scale(0.00781 -0.00781)" fill="#64748B" /><use href="#g500_r" ns1:href="#g500_r" transform="translate(767.39 338.50) scale(0.00781 -0.00781)" fill="#64748B" /><use href="#g500_o" ns1:href="#g500_o" transform="translate(773.27 338.50) scale(0.00781 -0.00781)" fill="#64748B" /><use href="#g500_u" ns1:href="#g500_u" transform="translate(782.94 338.50) scale(0.00781 -0.00781)" fill="#64748B" /><use href="#g500_g" ns1:href="#g500_g" transform="translate(792.56 338.50) scale(0.00781 -0.00781)" fill="#64748B" /><use href="#g500_h" ns1:href="#g500_h" transform="translate(802.48 338.50) scale(0.00781 -0.00781)" fill="#64748B" /><use href="#g500_O" ns1:href="#g500_O" transform="translate(816.37 338.50) scale(0.00781 -0.00781)" fill="#64748B" /><use href="#g500_c" ns1:href="#g500_c" transform="translate(828.63 338.50) scale(0.00781 -0.00781)" fill="#64748B" /><use href="#g500_t" ns1:href="#g500_t" transform="translate(837.87 338.50) scale(0.00781 -0.00781)" fill="#64748B" /><use href="#g500_three" ns1:href="#g500_three" transform="translate(847.58 338.50) scale(0.00781 -0.00781)" fill="#64748B" /><use href="#g500_one" ns1:href="#g500_one" transform="translate(857.61 338.50) scale(0.00781 -0.00781)" fill="#64748B" /></g><rect x="1017" y="298.5" width="95" height="36" rx="18.0" fill="#DCFCE7" /><circle cx="1033" cy="316.5" r="4" fill="#15803D" /><g><use href="#g600_V" ns1:href="#g600_V" transform="translate(1045.00 322.26) scale(0.00781 -0.00781)" fill="#15803D" /><use href="#g600_a" ns1:href="#g600_a" transform="translate(1055.73 322.26) scale(0.00781 -0.00781)" fill="#15803D" /><use href="#g600_l" ns1:href="#g600_l" transform="translate(1064.92 322.26) scale(0.00781 -0.00781)" fill="#15803D" /><use href="#g600_i" ns1:href="#g600_i" transform="translate(1069.11 322.26) scale(0.00781 -0.00781)" fill="#15803D" /><use href="#g600_d" ns1:href="#g600_d" transform="translate(1073.30 322.26) scale(0.00781 -0.00781)" fill="#15803D" /></g><defs><linearGradient id="eav2" x1="0" y1="0" x2="1" y2="1"><stop offset="0" stop-color="#2563EB" /><stop offset="1" stop-color="#4338CA" /></linearGradient></defs><circle cx="612" cy="376.5" r="24" fill="#fff" /><circle cx="612" cy="376.5" r="22" fill="url(#eav2)" /><g><use href="#g700_C" ns1:href="#g700_C" transform="translate(603.33 383.10) scale(0.00830 -0.00830)" fill="#fff" /><use href="#g700_I" ns1:href="#g700_I" transform="translate(615.90 383.10) scale(0.00830 -0.00830)" fill="#fff" /></g><g><use href="#g700_I" ns1:href="#g700_I" transform="translate(648.00 372.50) scale(0.00928 -0.00928)" fill="#0F172A" /><use href="#g700_n" ns1:href="#g700_n" transform="translate(653.33 372.50) scale(0.00928 -0.00928)" fill="#0F172A" /><use href="#g700_s" ns1:href="#g700_s" transform="translate(665.16 372.50) scale(0.00928 -0.00928)" fill="#0F172A" /><use href="#g700_u" ns1:href="#g700_u" transform="translate(675.80 372.50) scale(0.00928 -0.00928)" fill="#0F172A" /><use href="#g700_r" ns1:href="#g700_r" transform="translate(687.63 372.50) scale(0.00928 -0.00928)" fill="#0F172A" /><use href="#g700_a" ns1:href="#g700_a" transform="translate(695.11 372.50) scale(0.00928 -0.00928)" fill="#0F172A" /><use href="#g700_n" ns1:href="#g700_n" transform="translate(706.14 372.50) scale(0.00928 -0.00928)" fill="#0F172A" /><use href="#g700_c" ns1:href="#g700_c" transform="translate(717.97 372.50) scale(0.00928 -0.00928)" fill="#0F172A" /><use href="#g700_e" ns1:href="#g700_e" transform="translate(729.15 372.50) scale(0.00928 -0.00928)" fill="#0F172A" /><use href="#g700_c" ns1:href="#g700_c" transform="translate(744.97 372.50) scale(0.00928 -0.00928)" fill="#0F172A" /><use href="#g700_e" ns1:href="#g700_e" transform="translate(756.15 372.50) scale(0.00928 -0.00928)" fill="#0F172A" /><use href="#g700_r" ns1:href="#g700_r" transform="translate(767.46 372.50) scale(0.00928 -0.00928)" fill="#0F172A" /><use href="#g700_t" ns1:href="#g700_t" transform="translate(775.57 372.50) scale(0.00928 -0.00928)" fill="#0F172A" /><use href="#g700_i" ns1:href="#g700_i" transform="translate(782.53 372.50) scale(0.00928 -0.00928)" fill="#0F172A" /><use href="#g700_f" ns1:href="#g700_f" transform="translate(787.68 372.50) scale(0.00928 -0.00928)" fill="#0F172A" /><use href="#g700_i" ns1:href="#g700_i" transform="translate(795.40 372.50) scale(0.00928 -0.00928)" fill="#0F172A" /><use href="#g700_c" ns1:href="#g700_c" transform="translate(800.55 372.50) scale(0.00928 -0.00928)" fill="#0F172A" /><use href="#g700_a" ns1:href="#g700_a" transform="translate(811.91 372.50) scale(0.00928 -0.00928)" fill="#0F172A" /><use href="#g700_t" ns1:href="#g700_t" transform="translate(822.94 372.50) scale(0.00928 -0.00928)" fill="#0F172A" /><use href="#g700_e" ns1:href="#g700_e" transform="translate(829.72 372.50) scale(0.00928 -0.00928)" fill="#0F172A" /></g><g><use href="#g500_E" ns1:href="#g500_E" transform="translate(648.00 398.50) scale(0.00781 -0.00781)" fill="#64748B" /><use href="#g500_x" ns1:href="#g500_x" transform="translate(657.65 398.50) scale(0.00781 -0.00781)" fill="#64748B" /><use href="#g500_p" ns1:href="#g500_p" transform="translate(666.56 398.50) scale(0.00781 -0.00781)" fill="#64748B" /><use href="#g500_i" ns1:href="#g500_i" transform="translate(676.45 398.50) scale(0.00781 -0.00781)" fill="#64748B" /><use href="#g500_r" ns1:href="#g500_r" transform="translate(680.48 398.50) scale(0.00781 -0.00781)" fill="#64748B" /><use href="#g500_e" ns1:href="#g500_e" transform="translate(686.37 398.50) scale(0.00781 -0.00781)" fill="#64748B" /><use href="#g500_d" ns1:href="#g500_d" transform="translate(695.77 398.50) scale(0.00781 -0.00781)" fill="#64748B" /><use href="#g500_J" ns1:href="#g500_J" transform="translate(709.92 398.50) scale(0.00781 -0.00781)" fill="#64748B" /><use href="#g500_u" ns1:href="#g500_u" transform="translate(719.12 398.50) scale(0.00781 -0.00781)" fill="#64748B" /><use href="#g500_n" ns1:href="#g500_n" transform="translate(728.75 398.50) scale(0.00781 -0.00781)" fill="#64748B" /><use href="#g500_three" ns1:href="#g500_three" transform="translate(742.64 398.50) scale(0.00781 -0.00781)" fill="#64748B" /><use href="#g500_zero" ns1:href="#g500_zero" transform="translate(752.67 398.50) scale(0.00781 -0.00781)" fill="#64748B" /></g><rect x="998" y="358.5" width="114" height="36" rx="18.0" fill="#FEE2E2" /><circle cx="1014" cy="376.5" r="4" fill="#B91C1C" /><g><use href="#g600_E" ns1:href="#g600_E" transform="translate(1026.00 382.26) scale(0.00781 -0.00781)" fill="#B91C1C" /><use href="#g600_x" ns1:href="#g600_x" transform="translate(1035.69 382.26) scale(0.00781 -0.00781)" fill="#B91C1C" /><use href="#g600_p" ns1:href="#g600_p" transform="translate(1044.79 382.26) scale(0.00781 -0.00781)" fill="#B91C1C" /><use href="#g600_i" ns1:href="#g600_i" transform="translate(1054.77 382.26) scale(0.00781 -0.00781)" fill="#B91C1C" /><use href="#g600_r" ns1:href="#g600_r" transform="translate(1058.96 382.26) scale(0.00781 -0.00781)" fill="#B91C1C" /><use href="#g600_e" ns1:href="#g600_e" transform="translate(1064.96 382.26) scale(0.00781 -0.00781)" fill="#B91C1C" /><use href="#g600_d" ns1:href="#g600_d" transform="translate(1074.42 382.26) scale(0.00781 -0.00781)" fill="#B91C1C" /></g><g transform="translate(588 444.0) scale(0.8333)" fill="none" stroke="#64748B" stroke-width="2" stroke-linecap="round" stroke-linejoin="round">
  <path d="M3 2v7c0 1.1.9 2 2 2h4a2 2 0 0 0 2-2V2" />
  <path d="M7 2v20" />
  <path d="M21 15V2a5 5 0 0 0-5 5v6c0 1.1.9 2 2 2h3Zm0 0v7" />
</g><g><use href="#g600_M" ns1:href="#g600_M" transform="translate(616.00 460.00) scale(0.00781 -0.00781)" fill="#475569" /><use href="#g600_e" ns1:href="#g600_e" transform="translate(630.76 460.00) scale(0.00781 -0.00781)" fill="#475569" /><use href="#g600_n" ns1:href="#g600_n" transform="translate(640.22 460.00) scale(0.00781 -0.00781)" fill="#475569" /><use href="#g600_u" ns1:href="#g600_u" transform="translate(650.01 460.00) scale(0.00781 -0.00781)" fill="#475569" /><use href="#g600_r" ns1:href="#g600_r" transform="translate(663.84 460.00) scale(0.00781 -0.00781)" fill="#475569" /><use href="#g600_e" ns1:href="#g600_e" transform="translate(669.84 460.00) scale(0.00781 -0.00781)" fill="#475569" /><use href="#g600_c" ns1:href="#g600_c" transform="translate(679.30 460.00) scale(0.00781 -0.00781)" fill="#475569" /><use href="#g600_e" ns1:href="#g600_e" transform="translate(688.62 460.00) scale(0.00781 -0.00781)" fill="#475569" /><use href="#g600_i" ns1:href="#g600_i" transform="translate(698.08 460.00) scale(0.00781 -0.00781)" fill="#475569" /><use href="#g600_v" ns1:href="#g600_v" transform="translate(702.27 460.00) scale(0.00781 -0.00781)" fill="#475569" /><use href="#g600_e" ns1:href="#g600_e" transform="translate(711.36 460.00) scale(0.00781 -0.00781)" fill="#475569" /><use href="#g600_d" ns1:href="#g600_d" transform="translate(720.82 460.00) scale(0.00781 -0.00781)" fill="#475569" /><use href="#g600_colon" ns1:href="#g600_colon" transform="translate(730.80 460.00) scale(0.00781 -0.00781)" fill="#475569" /><use href="#g600_b" ns1:href="#g600_b" transform="translate(739.94 460.00) scale(0.00781 -0.00781)" fill="#475569" /><use href="#g600_r" ns1:href="#g600_r" transform="translate(749.92 460.00) scale(0.00781 -0.00781)" fill="#475569" /><use href="#g600_i" ns1:href="#g600_i" transform="translate(756.38 460.00) scale(0.00781 -0.00781)" fill="#475569" /><use href="#g600_s" ns1:href="#g600_s" transform="translate(760.56 460.00) scale(0.00781 -0.00781)" fill="#475569" /><use href="#g600_k" ns1:href="#g600_k" transform="translate(769.35 460.00) scale(0.00781 -0.00781)" fill="#475569" /><use href="#g600_e" ns1:href="#g600_e" transform="translate(778.10 460.00) scale(0.00781 -0.00781)" fill="#475569" /><use href="#g600_t" ns1:href="#g600_t" transform="translate(787.56 460.00) scale(0.00781 -0.00781)" fill="#475569" /><use href="#g600_comma" ns1:href="#g600_comma" transform="translate(793.21 460.00) scale(0.00781 -0.00781)" fill="#475569" /><use href="#g600_r" ns1:href="#g600_r" transform="translate(802.02 460.00) scale(0.00781 -0.00781)" fill="#475569" /><use href="#g600_i" ns1:href="#g600_i" transform="translate(808.47 460.00) scale(0.00781 -0.00781)" fill="#475569" /><use href="#g600_b" ns1:href="#g600_b" transform="translate(812.66 460.00) scale(0.00781 -0.00781)" fill="#475569" /><use href="#g600_s" ns1:href="#g600_s" transform="translate(822.64 460.00) scale(0.00781 -0.00781)" fill="#475569" /><use href="#g600_comma" ns1:href="#g600_comma" transform="translate(831.43 460.00) scale(0.00781 -0.00781)" fill="#475569" /><use href="#g600_s" ns1:href="#g600_s" transform="translate(840.23 460.00) scale(0.00781 -0.00781)" fill="#475569" /><use href="#g600_i" ns1:href="#g600_i" transform="translate(849.02 460.00) scale(0.00781 -0.00781)" fill="#475569" /><use href="#g600_d" ns1:href="#g600_d" transform="translate(853.21 460.00) scale(0.00781 -0.00781)" fill="#475569" /><use href="#g600_e" ns1:href="#g600_e" transform="translate(863.20 460.00) scale(0.00781 -0.00781)" fill="#475569" /><use href="#g600_s" ns1:href="#g600_s" transform="translate(872.66 460.00) scale(0.00781 -0.00781)" fill="#475569" /></g><g class="float"><ellipse cx="850.0" cy="642.0" rx="452.40000000000003" ry="224.2" fill="url(#spot)" /><rect x="560" y="524" width="580" height="236" rx="20" fill="#fff" stroke="#E4E4E7" stroke-width="1" filter="url(#e2)" /><rect x="584" y="550" width="44" height="44" rx="12" fill="#FEF3C7" /><g transform="translate(594 560) scale(1.0000)" fill="none" stroke="#B45309" stroke-width="2" stroke-linecap="round" stroke-linejoin="round">
  <path d="m22 7-8.991 5.727a2 2 0 0 1-2.009 0L2 7" />
  <rect x="2" y="4" width="20" height="16" rx="2" />
</g><g><use href="#g700_R" ns1:href="#g700_R" transform="translate(644.00 580.00) scale(0.00928 -0.00928)" fill="#0F172A" /><use href="#g700_e" ns1:href="#g700_e" transform="translate(656.25 580.00) scale(0.00928 -0.00928)" fill="#0F172A" /><use href="#g700_n" ns1:href="#g700_n" transform="translate(667.56 580.00) scale(0.00928 -0.00928)" fill="#0F172A" /><use href="#g700_e" ns1:href="#g700_e" transform="translate(679.39 580.00) scale(0.00928 -0.00928)" fill="#0F172A" /><use href="#g700_w" ns1:href="#g700_w" transform="translate(690.45 580.00) scale(0.00928 -0.00928)" fill="#0F172A" /><use href="#g700_e" ns1:href="#g700_e" transform="translate(706.34 580.00) scale(0.00928 -0.00928)" fill="#0F172A" /><use href="#g700_d" ns1:href="#g700_d" transform="translate(717.66 580.00) scale(0.00928 -0.00928)" fill="#0F172A" /><use href="#g700_c" ns1:href="#g700_c" transform="translate(734.74 580.00) scale(0.00928 -0.00928)" fill="#0F172A" /><use href="#g700_e" ns1:href="#g700_e" transform="translate(745.92 580.00) scale(0.00928 -0.00928)" fill="#0F172A" /><use href="#g700_r" ns1:href="#g700_r" transform="translate(757.24 580.00) scale(0.00928 -0.00928)" fill="#0F172A" /><use href="#g700_t" ns1:href="#g700_t" transform="translate(765.35 580.00) scale(0.00928 -0.00928)" fill="#0F172A" /><use href="#g700_i" ns1:href="#g700_i" transform="translate(772.31 580.00) scale(0.00928 -0.00928)" fill="#0F172A" /><use href="#g700_f" ns1:href="#g700_f" transform="translate(777.45 580.00) scale(0.00928 -0.00928)" fill="#0F172A" /><use href="#g700_i" ns1:href="#g700_i" transform="translate(785.17 580.00) scale(0.00928 -0.00928)" fill="#0F172A" /><use href="#g700_c" ns1:href="#g700_c" transform="translate(790.32 580.00) scale(0.00928 -0.00928)" fill="#0F172A" /><use href="#g700_a" ns1:href="#g700_a" transform="translate(801.69 580.00) scale(0.00928 -0.00928)" fill="#0F172A" /><use href="#g700_t" ns1:href="#g700_t" transform="translate(812.72 580.00) scale(0.00928 -0.00928)" fill="#0F172A" /><use href="#g700_e" ns1:href="#g700_e" transform="translate(819.49 580.00) scale(0.00928 -0.00928)" fill="#0F172A" /><use href="#g700_r" ns1:href="#g700_r" transform="translate(835.91 580.00) scale(0.00928 -0.00928)" fill="#0F172A" /><use href="#g700_e" ns1:href="#g700_e" transform="translate(843.18 580.00) scale(0.00928 -0.00928)" fill="#0F172A" /><use href="#g700_q" ns1:href="#g700_q" transform="translate(854.50 580.00) scale(0.00928 -0.00928)" fill="#0F172A" /><use href="#g700_u" ns1:href="#g700_u" transform="translate(866.48 580.00) scale(0.00928 -0.00928)" fill="#0F172A" /><use href="#g700_e" ns1:href="#g700_e" transform="translate(878.31 580.00) scale(0.00928 -0.00928)" fill="#0F172A" /><use href="#g700_s" ns1:href="#g700_s" transform="translate(889.63 580.00) scale(0.00928 -0.00928)" fill="#0F172A" /><use href="#g700_t" ns1:href="#g700_t" transform="translate(900.27 580.00) scale(0.00928 -0.00928)" fill="#0F172A" /><use href="#g700_e" ns1:href="#g700_e" transform="translate(907.04 580.00) scale(0.00928 -0.00928)" fill="#0F172A" /><use href="#g700_d" ns1:href="#g700_d" transform="translate(918.36 580.00) scale(0.00928 -0.00928)" fill="#0F172A" /></g><g><use href="#g500_S" ns1:href="#g500_S" transform="translate(584.00 624.00) scale(0.00879 -0.00879)" fill="#0F172A" /><use href="#g500_m" ns1:href="#g500_m" transform="translate(595.63 624.00) scale(0.00879 -0.00879)" fill="#0F172A" /><use href="#g500_o" ns1:href="#g500_o" transform="translate(611.62 624.00) scale(0.00879 -0.00879)" fill="#0F172A" /><use href="#g500_k" ns1:href="#g500_k" transform="translate(622.49 624.00) scale(0.00879 -0.00879)" fill="#0F172A" /><use href="#g500_e" ns1:href="#g500_e" transform="translate(632.15 624.00) scale(0.00879 -0.00879)" fill="#0F172A" /><use href="#g500_P" ns1:href="#g500_P" transform="translate(647.55 624.00) scale(0.00879 -0.00879)" fill="#0F172A" /><use href="#g500_o" ns1:href="#g500_o" transform="translate(658.99 624.00) scale(0.00879 -0.00879)" fill="#0F172A" /><use href="#g500_i" ns1:href="#g500_i" transform="translate(669.86 624.00) scale(0.00879 -0.00879)" fill="#0F172A" /><use href="#g500_n" ns1:href="#g500_n" transform="translate(674.40 624.00) scale(0.00879 -0.00879)" fill="#0F172A" /><use href="#g500_t" ns1:href="#g500_t" transform="translate(685.22 624.00) scale(0.00879 -0.00879)" fill="#0F172A" /><use href="#g500_B" ns1:href="#g500_B" transform="translate(696.18 624.00) scale(0.00879 -0.00879)" fill="#0F172A" /><use href="#g500_B" ns1:href="#g500_B" transform="translate(708.00 624.00) scale(0.00879 -0.00879)" fill="#0F172A" /><use href="#g500_Q" ns1:href="#g500_Q" transform="translate(719.83 624.00) scale(0.00879 -0.00879)" fill="#0F172A" /></g><g transform="translate(584 658) scale(0.8333)" fill="none" stroke="#64748B" stroke-width="2" stroke-linecap="round" stroke-linejoin="round">
  <path d="M8 2v3" />
  <path d="M16 2v3" />
  <rect x="3" y="3" width="18" height="18" rx="2" />
  <path d="M3 9h18" />
  <path d="m14 13-4 4" />
  <path d="m10 13 4 4" />
</g><g><use href="#g600_E" ns1:href="#g600_E" transform="translate(612.00 674.00) scale(0.00781 -0.00781)" fill="#475569" /><use href="#g600_x" ns1:href="#g600_x" transform="translate(621.69 674.00) scale(0.00781 -0.00781)" fill="#475569" /><use href="#g600_p" ns1:href="#g600_p" transform="translate(630.79 674.00) scale(0.00781 -0.00781)" fill="#475569" /><use href="#g600_i" ns1:href="#g600_i" transform="translate(640.77 674.00) scale(0.00781 -0.00781)" fill="#475569" /><use href="#g600_r" ns1:href="#g600_r" transform="translate(644.96 674.00) scale(0.00781 -0.00781)" fill="#475569" /><use href="#g600_e" ns1:href="#g600_e" transform="translate(650.96 674.00) scale(0.00781 -0.00781)" fill="#475569" /><use href="#g600_d" ns1:href="#g600_d" transform="translate(660.42 674.00) scale(0.00781 -0.00781)" fill="#475569" /><use href="#g600_J" ns1:href="#g600_J" transform="translate(674.44 674.00) scale(0.00781 -0.00781)" fill="#475569" /><use href="#g600_u" ns1:href="#g600_u" transform="translate(683.71 674.00) scale(0.00781 -0.00781)" fill="#475569" /><use href="#g600_n" ns1:href="#g600_n" transform="translate(693.51 674.00) scale(0.00781 -0.00781)" fill="#475569" /><use href="#g600_three" ns1:href="#g600_three" transform="translate(707.33 674.00) scale(0.00781 -0.00781)" fill="#475569" /><use href="#g600_zero" ns1:href="#g600_zero" transform="translate(717.51 674.00) scale(0.00781 -0.00781)" fill="#475569" /><use href="#g600_comma" ns1:href="#g600_comma" transform="translate(727.62 674.00) scale(0.00781 -0.00781)" fill="#475569" /><use href="#g600_b" ns1:href="#g600_b" transform="translate(736.42 674.00) scale(0.00781 -0.00781)" fill="#475569" /><use href="#g600_e" ns1:href="#g600_e" transform="translate(746.41 674.00) scale(0.00781 -0.00781)" fill="#475569" /><use href="#g600_f" ns1:href="#g600_f" transform="translate(755.87 674.00) scale(0.00781 -0.00781)" fill="#475569" /><use href="#g600_o" ns1:href="#g600_o" transform="translate(761.70 674.00) scale(0.00781 -0.00781)" fill="#475569" /><use href="#g600_r" ns1:href="#g600_r" transform="translate(771.45 674.00) scale(0.00781 -0.00781)" fill="#475569" /><use href="#g600_e" ns1:href="#g600_e" transform="translate(777.45 674.00) scale(0.00781 -0.00781)" fill="#475569" /><use href="#g600_t" ns1:href="#g600_t" transform="translate(790.94 674.00) scale(0.00781 -0.00781)" fill="#475569" /><use href="#g600_h" ns1:href="#g600_h" transform="translate(796.62 674.00) scale(0.00781 -0.00781)" fill="#475569" /><use href="#g600_e" ns1:href="#g600_e" transform="translate(806.41 674.00) scale(0.00781 -0.00781)" fill="#475569" /><use href="#g600_f" ns1:href="#g600_f" transform="translate(819.91 674.00) scale(0.00781 -0.00781)" fill="#475569" /><use href="#g600_e" ns1:href="#g600_e" transform="translate(825.74 674.00) scale(0.00781 -0.00781)" fill="#475569" /><use href="#g600_s" ns1:href="#g600_s" transform="translate(835.20 674.00) scale(0.00781 -0.00781)" fill="#475569" /><use href="#g600_t" ns1:href="#g600_t" transform="translate(843.99 674.00) scale(0.00781 -0.00781)" fill="#475569" /><use href="#g600_i" ns1:href="#g600_i" transform="translate(849.64 674.00) scale(0.00781 -0.00781)" fill="#475569" /><use href="#g600_v" ns1:href="#g600_v" transform="translate(853.83 674.00) scale(0.00781 -0.00781)" fill="#475569" /><use href="#g600_a" ns1:href="#g600_a" transform="translate(863.09 674.00) scale(0.00781 -0.00781)" fill="#475569" /><use href="#g600_l" ns1:href="#g600_l" transform="translate(872.27 674.00) scale(0.00781 -0.00781)" fill="#475569" /></g><g transform="translate(584 708) scale(0.8333)" fill="none" stroke="#64748B" stroke-width="2" stroke-linecap="round" stroke-linejoin="round">
  <rect x="14" y="3" width="5" height="18" rx="1" />
  <rect x="5" y="3" width="5" height="18" rx="1" />
</g><g><use href="#g600_B" ns1:href="#g600_B" transform="translate(612.00 724.00) scale(0.00781 -0.00781)" fill="#475569" /><use href="#g600_o" ns1:href="#g600_o" transform="translate(622.55 724.00) scale(0.00781 -0.00781)" fill="#475569" /><use href="#g600_o" ns1:href="#g600_o" transform="translate(632.29 724.00) scale(0.00781 -0.00781)" fill="#475569" /><use href="#g600_t" ns1:href="#g600_t" transform="translate(642.03 724.00) scale(0.00781 -0.00781)" fill="#475569" /><use href="#g600_h" ns1:href="#g600_h" transform="translate(647.71 724.00) scale(0.00781 -0.00781)" fill="#475569" /><use href="#g600_o" ns1:href="#g600_o" transform="translate(661.54 724.00) scale(0.00781 -0.00781)" fill="#475569" /><use href="#g600_f" ns1:href="#g600_f" transform="translate(671.28 724.00) scale(0.00781 -0.00781)" fill="#475569" /><use href="#g600_f" ns1:href="#g600_f" transform="translate(676.84 724.00) scale(0.00781 -0.00781)" fill="#475569" /><use href="#g600_e" ns1:href="#g600_e" transform="translate(682.68 724.00) scale(0.00781 -0.00781)" fill="#475569" /><use href="#g600_r" ns1:href="#g600_r" transform="translate(692.14 724.00) scale(0.00781 -0.00781)" fill="#475569" /><use href="#g600_o" ns1:href="#g600_o" transform="translate(702.52 724.00) scale(0.00781 -0.00781)" fill="#475569" /><use href="#g600_n" ns1:href="#g600_n" transform="translate(712.27 724.00) scale(0.00781 -0.00781)" fill="#475569" /><use href="#g600_h" ns1:href="#g600_h" transform="translate(726.09 724.00) scale(0.00781 -0.00781)" fill="#475569" /><use href="#g600_o" ns1:href="#g600_o" transform="translate(735.88 724.00) scale(0.00781 -0.00781)" fill="#475569" /><use href="#g600_l" ns1:href="#g600_l" transform="translate(745.62 724.00) scale(0.00781 -0.00781)" fill="#475569" /><use href="#g600_d" ns1:href="#g600_d" transform="translate(749.81 724.00) scale(0.00781 -0.00781)" fill="#475569" /></g></g></svg>